<?xml version="1.0" encoding="utf-8"?>
<!-- Generator: Adobe Illustrator 22.1.0, SVG Export Plug-In . SVG Version: 6.00 Build 0)  -->
<svg version="1.1" xmlns="http://www.w3.org/2000/svg" xmlns:xlink="http://www.w3.org/1999/xlink" x="0px" y="0px"
	 viewBox="0 0 566.9 566.9" style="enable-background:new 0 0 566.9 566.9;" xml:space="preserve">
<style type="text/css">
	.st0{fill-rule:evenodd;clip-rule:evenodd;fill:#EDA5BD;}
	.st1{fill:none;stroke:#B66E87;stroke-width:2;stroke-linecap:round;stroke-linejoin:round;stroke-miterlimit:10;}
	.st2{fill:none;stroke:#B66E87;stroke-width:3;stroke-linecap:round;stroke-linejoin:round;stroke-miterlimit:10;}
	.st3{fill:#FACEE1;}
	.st4{fill:#F2B9D5;}
	.st5{fill:#FFF7ED;}
	.st6{fill:none;stroke:#D8D0BE;stroke-width:3;stroke-miterlimit:10;}
	.st7{fill:none;stroke:#EDA5BD;stroke-width:3;stroke-linecap:round;stroke-linejoin:round;stroke-miterlimit:10;}
	.st8{fill:none;stroke:#EDA5BD;stroke-width:2;stroke-linecap:round;stroke-linejoin:round;stroke-miterlimit:10;}
	.st9{fill:none;stroke:#D9D0BF;stroke-width:2;stroke-linecap:round;stroke-miterlimit:10;}
	.st10{fill:#E2B7CC;}
	.st11{fill:none;stroke:#EBA5BD;stroke-width:2;stroke-miterlimit:10;}
	.st12{fill:#EBA5BD;}
	.st13{fill:none;stroke:#000000;stroke-width:3;stroke-linecap:round;stroke-miterlimit:10;}
	.st14{fill:none;stroke:#D8D0BE;stroke-width:3;stroke-linecap:round;stroke-miterlimit:10;}
</style>
<g id="tail">
	<g>
		<g>
			<path class="st0" d="M489.1,485.1H245.3l76.2-61.6l28.4,16.7c26.9,15.7,56,27.1,86.5,33.6L489.1,485.1z"/>
			<path class="st1" d="M337.5,433.2c1.6,7.1,1.7,15.4,0,23.9c-2.3,11.4-7.3,21.1-13.6,27.3"/>
			<path class="st1" d="M354.7,443.6c1.2,5.9,1.2,12.7-0.3,19.7c-2,9.4-6.4,17.3-11.6,22.3"/>
			<path class="st1" d="M372.9,452.9c0.8,4.5,0.6,9.7-0.8,15c-1.8,7.1-5.3,13-9.4,16.7"/>
			<path class="st1" d="M387.7,459.2c1,3.5,1.4,7.6,0.8,11.9c-0.7,5.8-2.9,10.7-5.8,14"/>
			<path class="st1" d="M403,465.9c0.8,2.6,1,5.6,0.6,8.8c-0.5,4.3-2.2,8-4.3,10.4"/>
			<path class="st1" d="M416.2,468.4c0.7,2.3,0.9,4.9,0.5,7.7c-0.5,3.7-1.9,6.9-3.8,9.1"/>
			<path class="st1" d="M427.7,471.5c0.5,1.8,0.7,4,0.4,6.3c-0.4,3-1.5,5.7-3.1,7.4"/>
			<path class="st1" d="M438.7,474.1c0.4,1.5,0.6,3.3,0.4,5.1c-0.3,2.5-1.3,4.6-2.5,6"/>
			<path class="st1" d="M449.8,476.2c0.4,1.2,0.5,2.6,0.3,4.1c-0.3,2-1,3.7-2,4.8"/>
			<path class="st1" d="M325,425.4c0.5,8.5-0.6,18.2-3.7,28.1c-4.1,13.3-10.9,24.2-18.5,31"/>
			<path class="st2" d="M489.1,485.1H245.3l76.2-61.6l28.4,16.7c26.9,15.7,56,27.1,86.5,33.6L489.1,485.1z"/>
		</g>
		<path class="st1" d="M460.3,479.2c0.2,0.7,0.3,1.5,0.2,2.3c-0.1,1.1-0.6,2.1-1.1,2.7"/>
	</g>
</g>
<g id="body">
	<path class="st3" d="M368.4,366c4.1-75.7-5.4-200.2-95.5-260c-73.8-49-147-28.8-171.1-19.8c-2.3,0.9-4.2,2.3-5.7,4
		c18.7-0.1,37.4,3,55.1,9.2c42.3,14.7,77,47,101.9,83.5c3.9,5.8,7.7,11.7,11.1,17.8c21.4,37.4,32.5,79.2,35.8,122
		c2.6,34.5,1.7,69.6-4.7,103.6c-3.3,17.4-8,34.6-13.8,51.4c-1,2.8-2,5.6-3,8.4c56.1-10,104.9-30.8,104.9-30.8S364.8,431.4,368.4,366
		z"/>
	<g>
		<path class="st4" d="M377,445.1c-1.8,1.2-3.7,2.3-5.5,3.3c-3.8,2-7.7,3.6-11.6,5c-7.7,2.7-15.4,4.3-23.1,5.6
			c-7.7,1.2-15.3,1.9-22.9,2.3c-7.6,0.3-15.2,0.3-22.7-0.1c7.4-0.5,14.9-1.4,22.2-2.7c7.4-1.2,14.7-2.8,21.8-4.8
			c7.2-2,14.3-4.5,21-7.7c6.7-3.2,13.2-7.2,18.3-12.7C374.6,433.2,378.9,443.8,377,445.1z"/>
		<path class="st4" d="M258.2,190c11.3-5.6,21.3-13.7,29.5-23.3c2-2.4,4-4.9,5.7-7.5c1.8-2.6,3.4-5.3,4.9-8.1
			c2.9-5.6,5.2-11.5,6.4-17.8c0,0,6.8,7,6.8,7c-1,3.1-1.6,6.4-2.9,9.5c-2.1,4.9-5.9,9.3-9.5,13.3c-2.3,2.5-4.7,4.9-7.2,7.2
			c-5,4.5-10.4,8.4-16.1,11.8C270.2,185.3,264.3,188.1,258.2,190z"/>
		<path class="st4" d="M273.8,217.7c6.3-0.8,12.5-2.6,18.4-5.1c5.9-2.5,11.5-5.6,16.5-9.5c5.1-3.9,9.7-8.3,14-13
			c4.3-4.7,8.2-9.7,12-14.9c0,0,6.4,9,5.1,10.3c-3.5,3.5-7.1,6.9-11,10.1c-5.2,4.4-10.8,8.4-16.8,11.8c-6,3.4-12.4,5.9-18.8,7.6
			C286.8,216.9,280.3,217.9,273.8,217.7z"/>
		<path class="st4" d="M211.9,135.4c3.8-2.7,7.2-6,10-9.7c1.5-1.8,2.7-3.8,3.9-5.8c1.2-2,2.3-4.1,3.2-6.2c1.9-4.3,3.1-8.8,3.8-13.4
			c0.6-4.6,0.4-9.4-0.6-13.9l10.8,2.7c0.4,6-0.4,6.9-2,12.3c-1.6,5.4-4,10.3-6.9,14.6c-1.4,2.2-3,4.2-4.7,6.2
			c-1.7,1.9-3.4,3.7-5.3,5.4C220.3,130.7,216.2,133.4,211.9,135.4z"/>
		<path class="st4" d="M235.5,160.8c5.1-2.9,9.9-6.4,14-10.6c2.1-2.1,4-4.3,5.8-6.6c0.9-1.2,1.8-2.3,2.6-3.6l1.2-1.8l1.1-1.9
			c3-5.1,5.3-10.6,6.8-16.2c1.4-5.7,1.9-11.7,1.4-17.5l10,6c-0.3,7.2-0.8,7.2-3.3,13.5c-2.6,6.3-6,12-10,17l-1.5,1.9l-1.6,1.8
			c-1,1.2-2.2,2.3-3.3,3.4c-2.3,2.2-4.6,4.2-7.1,6C246.5,155.8,241.1,158.8,235.5,160.8z"/>
		<path class="st4" d="M354.1,225.9c-3.4,3-7,5.8-10.7,8.4c-5.7,4-11.7,7.4-18,10.2c-6.3,2.7-12.9,4.8-19.7,5.7
			c-6.7,0.9-13.5,0.6-19.8-1.2c6.4,0.9,12.9,0.2,19-1.5c6.2-1.7,12.1-4.4,17.5-7.7c5.5-3.3,10.6-7.2,15.3-11.6
			c4.7-4.3,9.1-9.1,13-14.2C350.8,214.1,355.9,224.3,354.1,225.9z"/>
		<path class="st4" d="M363.2,269.2c-3,2.1-6.1,4.1-9.3,6c-5.9,3.5-12.1,6.4-18.5,8.6c-6.4,2.2-13.1,3.7-19.8,4.1
			c-6.7,0.4-13.3-0.4-19.4-2.3c6.2,1.1,12.7,0.9,18.8-0.4c6.2-1.2,12.2-3.5,17.8-6.3c5.6-2.9,10.9-6.3,15.9-10.2
			c5-3.9,9.6-8.2,13.9-12.8C362.8,255.9,365.8,267.3,363.2,269.2z"/>
		<path class="st4" d="M367.8,314.2c-3.2,2.1-6.6,3.9-10,5.4c-6.3,2.8-12.8,4.7-19.2,5.9c-6.5,1.2-13,1.6-19.3,1.3
			c-6.4-0.3-12.6-1.3-18.6-3c6.1,0.8,12.2,0.9,18.3,0.3c6.1-0.6,12.1-1.9,17.9-3.8c5.8-1.9,11.4-4.5,16.6-7.7
			c5.2-3.2,10-7.1,14-11.7C367.6,300.9,370.6,312.4,367.8,314.2z"/>
		<path class="st4" d="M367.5,363.6c-3.4,1.7-6.9,2.9-10.4,3.9c-6.3,1.7-12.6,2.6-18.7,2.8c-6.1,0.2-12.2-0.1-18.1-1
			c-5.9-0.9-11.7-2.2-17.1-4.3c5.6,1.1,11.4,1.6,17.1,1.5c5.7-0.1,11.5-0.6,17.1-1.7c5.6-1.1,11.2-2.7,16.4-5
			c5.2-2.3,10.2-5.3,14.4-9.3C368.2,350.7,370.3,362.2,367.5,363.6z"/>
		<path class="st4" d="M367.8,407.3c-10.1,4.5-20.8,7.1-31.3,8.1c-12.8,1.1-25.5-0.3-37-4.3c11.8,2.2,24,1.7,35.7-1
			c11.7-2.7,22.8-7.8,32.6-14.8C367.8,395.3,370,406.4,367.8,407.3z"/>
		<path class="st4" d="M208.3,77.4c0.8,4.6,0.7,6.3-0.2,10.7c-0.9,4.4-2.5,8.4-4.5,11.9c-2,3.6-4.4,6.8-7.1,9.6
			c-2.6,2.9-5.5,5.4-8.5,7.7c5-5.4,9.3-11.7,11.9-18.6c1.3-3.5,2.1-7.1,2.3-10.8c0.2-3.7-0.3-7.4-1.4-11L208.3,77.4z"/>
		<path class="st4" d="M184.4,75.7c0,0.4,0.1,0.7,0.1,1.1c0,0.6,0,1.1,0,1.7c0,1.8-0.2,3.6-0.5,5.3c-0.7,3.4-1.9,6.6-3.4,9.4
			c-1.5,2.6-3.3,5.1-5.2,7.4c-1.9,2.3-3.9,4.4-6.2,6.1c1.7-2.1,3.2-4.5,4.4-7c1.2-2.5,2.3-5,3.1-7.7c0.8-2.6,1.3-5.4,1.2-8.2
			c0-2.8-0.4-5.5-1.4-8.1C176.5,75.7,184.3,75.2,184.4,75.7z"/>
		<path class="st4" d="M159.8,75.6c0.4,1.5,0.6,2.9,0.7,4.4c0.1,2.9-0.4,5.7-1.4,8.1c-0.9,2.3-2,4.5-3.3,6.5c-1.3,2-2.7,3.9-4.4,5.5
			c1.2-1.9,2.2-3.9,3-6c0.8-2.1,1.3-4.3,1.7-6.5c0.4-2.2,0.4-4.5-0.1-6.7c-0.5-2.2-1.4-4.3-2.8-6C153.3,74.9,159.6,74.9,159.8,75.6z
			"/>
		<path class="st4" d="M141.5,75.5c0.2,0.6,0.3,1.2,0.5,1.8c0.2,1.2,0.3,2.4,0.2,3.6c-0.1,2.3-0.8,4.5-1.7,6.2
			c-0.9,1.7-2,3.2-3.2,4.5c-1.2,1.3-2.5,2.4-4,3.4c1-1.2,1.9-2.6,2.6-4c0.7-1.4,1.3-3,1.7-4.5c0.4-1.6,0.5-3.2,0.2-4.8
			c-0.3-1.6-0.8-3.1-1.8-4.4C135.9,77.2,141.3,75.2,141.5,75.5z"/>
		<path class="st4" d="M123.1,79.6c0.2,0.4,0.3,0.9,0.4,1.3c0.1,0.3,0.1,0.6,0.2,0.8c0.1,0.7,0.1,1.3,0.1,1.9c0,0.3,0,0.6-0.1,0.9
			c0,0.4-0.1,0.7-0.2,1c-0.3,1.3-0.9,2.3-1.6,3.1c-0.7,0.8-1.4,1.5-2.3,2c0.5-0.7,0.8-1.5,1.1-2.3c0.3-0.8,0.4-1.7,0.3-2.5
			c-0.1-0.9-0.4-1.7-0.7-2.5c-0.4-0.8-0.9-1.5-1.6-2C118.7,81.3,122.9,79.2,123.1,79.6z"/>
	</g>
	<path class="st5" d="M300,322.6c-3.3-42.8-14.4-84.6-35.8-122c-3.5-6.1-7.2-12-11.1-17.8c-24.9-36.5-59.6-68.8-101.9-83.5
		c-17.7-6.2-36.4-9.2-55.1-9.2c-3.4,4-4.4,9.8-1.8,14.9c11.1,22.3,38.8,30,46,55.1c4.7,16.3,3,33.5-0.5,50.3
		c-3.3,19.5-6,39.2-8.3,58.9c-4.6,38.7-10,79.2-3.4,118.4c5.7,34.6,21.9,67.4,43.4,95.1c31.2,11.5,70.8,9.6,107.3,3.1
		c1-2.8,2-5.6,3-8.4c5.8-16.8,10.5-33.9,13.8-51.4C301.7,392.1,302.6,357,300,322.6z"/>
	<path class="st3" d="M131.4,269.4c2.3-19.7,5-39.3,8.3-58.9c-2.6,12.3-6.1,24.5-8.9,36.1c-10.6,43.8-53.8,174,19.5,225.4
		c6.4,4.5,13.5,8.1,21,10.8c-21.5-27.7-37.6-60.5-43.4-95.1C121.4,348.6,126.8,308.1,131.4,269.4z"/>
	<path class="st6" d="M300,322.6c-3.3-42.8-14.4-84.6-35.8-122c-3.5-6.1-7.2-12-11.1-17.8c-24.9-36.5-59.6-68.8-101.9-83.5
		c-17.7-6.2-36.4-9.2-55.1-9.2c-3.4,4-4.4,9.8-1.8,14.9c11.1,22.3,38.8,30,46,55.1c4.7,16.3,3,33.5-0.5,50.3
		c-3.3,19.5-6,39.2-8.3,58.9c-4.6,38.7-10,79.2-3.4,118.4c5.7,34.6,21.9,67.4,43.4,95.1c31.2,11.5,70.8,9.6,107.3,3.1
		c1-2.8,2-5.6,3-8.4c5.8-16.8,10.5-33.9,13.8-51.4C301.7,392.1,302.6,357,300,322.6z"/>
	<g>
		<path class="st4" d="M110,339.9l4.1,0.7c1.4,0.3,2.8,0.4,4.2,0.5c2.8,0.2,5.6,0.3,8.4,0c-2.7,1.4-5.6,2.5-8.7,3.5
			c-1.5,0.5-3.1,0.9-4.7,1.2c-1.6,0.3-3.2,0.6-4.9,0.9L110,339.9z"/>
	</g>
	<g>
		<path class="st4" d="M117,298l2.7,0.5c0.9,0.2,1.8,0.3,2.7,0.3c1.8,0.1,3.6,0.1,5.5-0.1c-1.7,1.4-3.6,2.6-5.7,3.6
			c-1,0.5-2.1,1-3.3,1.3c-1.1,0.4-2.3,0.8-3.5,1.1L117,298z"/>
	</g>
	<path class="st7" d="M368.4,366c4.1-75.7-5.4-200.2-95.5-260c-73.8-49-147-28.8-171.1-19.8c-2.3,0.9-4.2,2.3-5.7,4
		c18.7-0.1,37.4,3,55.1,9.2c42.3,14.7,77,47,101.9,83.5c3.9,5.8,7.7,11.7,11.1,17.8c21.4,37.4,32.5,79.2,35.8,122
		c2.6,34.5,1.7,69.6-4.7,103.6c-3.3,17.4-8,34.6-13.8,51.4c-1,2.8-2,5.6-3,8.4c56.1-10,104.9-30.8,104.9-30.8S364.8,431.4,368.4,366
		z"/>
	<g>
		<path class="st4" d="M109.3,380.5l4.5,0.2c1.5,0.1,3,0,4.5,0c3-0.1,6-0.5,9-1.1c-2.7,1.8-5.7,3.3-8.8,4.6
			c-1.6,0.6-3.2,1.3-4.8,1.8c-1.6,0.5-3.3,1-5.1,1.5L109.3,380.5z"/>
	</g>
	<path class="st8" d="M133.6,456.3c2.9-0.3,5.8-0.8,8.8-1.6c2-0.5,4-1.2,5.9-2"/>
	<g>
		<path class="st4" d="M115.9,418.1c6.8,0.6,13.8,0.1,20.5-1.3c-3.1,1.9-6.5,3.5-10,4.9c-3.5,1.4-7.2,2.5-11.1,3.4L115.9,418.1z"/>
	</g>
	<path class="st4" d="M134.8,456.6c4.6-0.4,9.2-1.5,13.4-3.2c-3.4,3.9-5.5,6.2-10.7,9L134.8,456.6z"/>
	<path class="st7" d="M131.4,269.4c2.3-19.7,5-39.3,8.3-58.9c-2.6,12.3-6.1,24.5-8.9,36.1c-10.6,43.8-53.8,174,19.5,225.4
		c6.4,4.5,13.5,8.1,21,10.8c-21.5-27.7-37.6-60.5-43.4-95.1C121.4,348.6,126.8,308.1,131.4,269.4z"/>
	<circle class="st3" cx="153.8" cy="128.9" r="5.5"/>
	<path class="st8" d="M374.2,432.8c-16.2,17.9-56.2,26.1-83.3,28"/>
	<g>
		<path class="st9" d="M158,378.4c-0.7-0.6-1.4-1.2-2.2-1.9c-1.6-1.6-3.3-3.6-4.8-6.5"/>
		<path class="st9" d="M151.1,389c-2.1-1.5-4.2-3.4-6.2-5.5c-0.7-0.7-1.4-1.5-2.1-2.3c-1.6-1.8-3.2-4.1-4.7-7"/>
		<path class="st9" d="M155.4,383.8c-1.7-1.3-3.4-2.8-5.1-4.6c-0.6-0.6-1.1-1.2-1.7-1.9c-1.3-1.5-2.7-3.3-4-5.7"/>
	</g>
	<path class="st9" d="M242,489.7c-2.3-1.4-4.7-3.1-6.9-5.2c-0.8-0.7-1.6-1.4-2.4-2.2"/>
	<path class="st9" d="M233.5,490.9c-3.4-2.1-6.9-4.7-10.4-7.7c-0.8-0.7-1.5-1.4-2.2-2.1"/>
	<path class="st9" d="M226.9,221.5c-0.2,1-0.5,2-0.8,3.2c-0.7,2.4-1.7,5.1-3.4,8.2"/>
	<path class="st9" d="M234.5,217.6c-0.3,3.3-0.9,6.8-1.9,10.4c-0.3,1.2-0.7,2.5-1.2,3.8c-1,2.9-2.4,6.2-4.6,9.8"/>
	<path class="st8" d="M257.9,189.6c7.7-3.8,15.5-9.2,22.6-16c13.1-12.6,21.4-27.5,23.9-40.7"/>
	<path class="st8" d="M273.5,217.3c10.8-1.2,24-6.4,34.3-14.1c10.5-7.8,19-17.9,26.6-28.3"/>
	<path class="st8" d="M211.5,135c10.9-7.8,19.2-21.6,20.9-35.2c0.6-4.8,0.4-9.5-0.6-13.9"/>
	<path class="st8" d="M235.1,160.4c14.9-8,27.3-24.1,31.5-40.8c1.5-5.9,1.9-11.8,1.4-17.5"/>
	<path class="st8" d="M350.4,213.6c-14.3,18.8-39.8,38.3-64.8,34.9"/>
	<path class="st8" d="M362.4,255.4c-16.1,17.2-40.8,34.1-66.5,29.7"/>
	<path class="st8" d="M367.2,300.4c-15.6,17.9-43.8,26.1-66.9,22.9"/>
	<path class="st8" d="M367.8,350.2c-15.2,14.7-45,18.5-65,14.4"/>
	<path class="st8" d="M367.5,394.8c-19.4,14-44.6,20.1-68.3,15.8"/>
	<path class="st8" d="M200.3,76.3c4.7,14.9-2.7,29.7-12.7,40.5"/>
	<path class="st8" d="M176.1,75.3c0,0,3.1,7,0.2,16.3s-7.5,14.6-7.5,14.6"/>
	<path class="st8" d="M152.9,74.5c0,0,4.2,4.7,2.9,12.6s-4.7,12.6-4.7,12.6"/>
	<path class="st8" d="M135.5,76.8c0,0,2.7,3.3,1.8,8.6c-1,5.3-4.4,9.2-4.4,9.2"/>
	<path class="st8" d="M118.3,80.9c0,0,1.5,1,2.2,3.8c0.7,2.8-1.3,5.6-1.3,5.6"/>
	<path class="st8" d="M110.7,339.9c1.5,0.4,3.1,0.7,4.8,0.9c3.5,0.4,6.8,0.5,9.8,0.2"/>
	<path class="st8" d="M108.6,380.3c1.9,0.2,3.8,0.3,5.8,0.3c4.4,0,8.5-0.4,12.2-1.3"/>
	<path class="st8" d="M113.9,418.7c3.5,0.2,7.1,0.1,10.9-0.1c3.6-0.2,7.1-0.7,10.3-1.2"/>
	<path class="st8" d="M118.3,298c1,0.3,2,0.5,3,0.6c2.2,0.3,4.3,0.2,6.2-0.1"/>
</g>
<g id="left_back_paw">
	<g>
		<g>
			<path class="st3" d="M152.7,437.5c-0.2-1.2-0.3-2.1-0.4-3.2c-0.1-1-0.2-2-0.2-3.1c-0.1-2-0.2-4.1-0.2-6.1c0-2,0-4,0.1-6l0.2-5.9
				c0-0.7,0.6-1.3,1.3-1.3c0.6,0,1,0.4,1.2,0.9l1.9,5.6c0.6,1.9,1.3,3.7,2,5.5c0.7,1.8,1.4,3.5,2.2,5.3c0.4,0.9,0.8,1.7,1.2,2.6
				c0.4,0.8,0.8,1.7,1.2,2.4c1.6,2.7,0.6,6.1-2.1,7.7c-2.7,1.6-6.1,0.6-7.7-2.1c-0.4-0.6-0.6-1.3-0.7-1.9L152.7,437.5z"/>
			<path class="st3" d="M188.2,427.1c0-0.8-0.1-1.8-0.2-2.7c-0.1-0.9-0.2-1.9-0.3-2.8c-0.2-1.9-0.5-3.8-0.9-5.6
				c-0.3-1.9-0.7-3.7-1.2-5.7l-1.3-5.8c-0.2-0.7,0.3-1.4,1-1.6c0.5-0.1,1.1,0.1,1.4,0.6l3.2,4.9c1.1,1.6,2.2,3.3,3.2,5.1
				c1,1.7,2,3.5,3,5.3c0.5,0.9,0.9,1.8,1.4,2.7c0.5,0.9,0.9,1.8,1.3,2.9l0.1,0.3c1.2,2.9-0.1,6.2-3,7.4c-2.9,1.2-6.2-0.1-7.4-3
				C188.4,428.5,188.2,427.8,188.2,427.1z"/>
			<path class="st3" d="M164.3,407l10.8,22.9c1.3,2.8,0.1,6.1-2.7,7.4c-2.8,1.3-6.1,0.1-7.4-2.7c-0.3-0.6-0.4-1.2-0.5-1.8l-2.7-25.2
				c-0.1-0.7,0.4-1.4,1.2-1.4C163.6,406.2,164.1,406.5,164.3,407z"/>
			<path class="st3" d="M175.6,403.8l10.8,22.9c1.3,2.8,0.1,6.1-2.7,7.4c-2.8,1.3-6.1,0.1-7.4-2.7c-0.3-0.6-0.4-1.2-0.5-1.8
				l-2.7-25.2c-0.1-0.7,0.4-1.4,1.2-1.4C174.9,403,175.4,403.3,175.6,403.8z"/>
		</g>
		<g>
			<g>
				<path class="st10" d="M152.4,433.3c0.1,1,0.1,2,0.2,3.1c0.1,1,0.2,2,0.4,3.2l0,0.3c0.1,0.7,0.3,1.3,0.7,1.9
					c1.6,2.7,5,3.6,7.7,2.1c2.7-1.6,3.6-5,2.1-7.7c-0.4-0.7-0.8-1.6-1.2-2.4c-0.4-0.8-0.8-1.7-1.2-2.6c-0.8-1.7-1.5-3.5-2.2-5.3
					c-0.3-0.7-0.6-1.5-0.8-2.3c-1-0.2-2.1-0.3-3.2,0c-1,0.3-1.9,0.8-2.7,1.5c0,0.7,0,1.3,0,2C152.2,429.2,152.3,431.2,152.4,433.3z"
					/>
				<path class="st10" d="M188,423.6c0.1,0.9,0.2,1.9,0.3,2.8c0.1,0.9,0.2,1.9,0.2,2.7c0,0.7,0.2,1.4,0.4,2c1.2,2.9,4.5,4.2,7.4,3
					c2.9-1.2,4.2-4.5,3-7.4l-0.1-0.3c-0.5-1.1-0.9-1.9-1.3-2.9c-0.5-0.9-0.9-1.8-1.4-2.7c-1-1.8-1.9-3.6-3-5.3c-0.3-0.5-0.6-1-1-1.6
					c-0.7-0.1-1.5,0-2.2,0.2c-1.4,0.4-2.6,1.2-3.5,2.3c0.1,0.5,0.2,1,0.3,1.4C187.4,419.9,187.7,421.7,188,423.6z"/>
				<path class="st10" d="M165.3,436.7c1.3,2.8,4.6,4,7.4,2.7c2.8-1.3,4-4.6,2.7-7.4l-5.4-11.4c-1.1-0.3-2.2-0.3-3.4,0
					c-1.3,0.3-2.3,1-3.2,2l1.3,12.4C164.9,435.5,165.1,436.1,165.3,436.7z"/>
				<path class="st10" d="M176.6,433.5c1.3,2.8,4.6,4,7.4,2.7c2.8-1.3,4-4.6,2.7-7.4l-5.4-11.5c-0.9-0.2-1.9-0.1-2.8,0.1
					c-1.5,0.4-2.8,1.3-3.6,2.5l1.3,11.8C176.2,432.3,176.3,433,176.6,433.5z"/>
			</g>
		</g>
		<path class="st0" d="M203.5,433c-0.6-2.3-1.3-4.5-2.2-6.7c-0.7-1.8-1.7-3.5-3.1-4.8c-1.7-1.5-4.1-2.3-6.4-1.7
			c-2.5,0.7-4.3,2.8-4.9,5.3c-1.8-1.9-4.4-2.9-6.9-2.2c-2.5,0.7-4.3,2.8-4.9,5.3c-1.8-1.9-4.4-2.9-6.9-2.2c-2.5,0.7-4.3,2.8-4.9,5.3
			c-1.8-1.9-4.4-2.9-6.9-2.2c-3,0.8-4.9,3.6-5.1,6.7l0,0c0,0.1,0,0.1,0,0.2c0,0.5,0,1.1,0.1,1.6c0.3,3.6,1.1,7.6,2.5,11.9
			c8.7,27.9,37.4,60.3,45.6,57.8c1.4-0.4,2.3-1.8,3-2.9c1.1-2,1.9-4.2,2.5-6.4c1.8-6.5,2.6-13.3,3-20c0.5-8.2,0.3-16.5-0.5-24.7
			c-0.5-4.9-1.3-9.8-2.4-14.6C204.5,437,204.1,435,203.5,433z"/>
		<g>
			<g>
				<path class="st11" d="M152.7,437.5c-0.2-1.2-0.3-2.1-0.4-3.2c-0.1-1-0.2-2-0.2-3.1c-0.1-2-0.2-4.1-0.2-6.1c0-2,0-4,0.1-6
					l0.2-5.9c0-0.7,0.6-1.3,1.3-1.3c0.6,0,1,0.4,1.2,0.9l1.9,5.6c0.6,1.9,1.3,3.7,2,5.5c0.7,1.8,1.4,3.5,2.2,5.3
					c0.4,0.9,0.8,1.7,1.2,2.6c0.4,0.8,0.8,1.7,1.2,2.4c1.6,2.7,0.6,6.1-2.1,7.7c-2.7,1.6-6.1,0.6-7.7-2.1c-0.4-0.6-0.6-1.3-0.7-1.9
					L152.7,437.5z"/>
				<path class="st11" d="M188.2,427.1c0-0.8-0.1-1.8-0.2-2.7c-0.1-0.9-0.2-1.9-0.3-2.8c-0.2-1.9-0.5-3.8-0.9-5.6
					c-0.3-1.9-0.7-3.7-1.2-5.7l-1.3-5.8c-0.2-0.7,0.3-1.4,1-1.6c0.5-0.1,1.1,0.1,1.4,0.6l3.2,4.9c1.1,1.6,2.2,3.3,3.2,5.1
					c1,1.7,2,3.5,3,5.3c0.5,0.9,0.9,1.8,1.4,2.7c0.5,0.9,0.9,1.8,1.3,2.9l0.1,0.3c1.2,2.9-0.1,6.2-3,7.4c-2.9,1.2-6.2-0.1-7.4-3
					C188.4,428.5,188.2,427.8,188.2,427.1z"/>
				<path class="st11" d="M164.3,407l10.8,22.9c1.3,2.8,0.1,6.1-2.7,7.4c-2.8,1.3-6.1,0.1-7.4-2.7c-0.3-0.6-0.4-1.2-0.5-1.8
					l-2.7-25.2c-0.1-0.7,0.4-1.4,1.2-1.4C163.6,406.2,164.1,406.5,164.3,407z"/>
				<path class="st11" d="M175.6,403.8l10.8,22.9c1.3,2.8,0.1,6.1-2.7,7.4c-2.8,1.3-6.1,0.1-7.4-2.7c-0.3-0.6-0.4-1.2-0.5-1.8
					l-2.7-25.2c-0.1-0.7,0.4-1.4,1.2-1.4C174.9,403,175.4,403.3,175.6,403.8z"/>
			</g>
		</g>
		<path class="st2" d="M203.2,432c-0.6-2.3-1.3-4.5-2.2-6.7c-0.7-1.8-1.7-3.5-3.1-4.8c-1.7-1.5-4.1-2.3-6.4-1.7
			c-2.5,0.7-4.3,2.8-4.9,5.3c-1.8-1.9-4.4-2.9-6.9-2.2c-2.5,0.7-4.3,2.8-4.9,5.3c-1.8-1.9-4.4-2.9-6.9-2.2c-2.5,0.7-4.3,2.8-4.9,5.3
			c-1.8-1.9-4.4-2.9-6.9-2.2c-3,0.8-4.9,3.6-5.1,6.7l0,0c0,0.1,0,0.1,0,0.2c0,0.5,0,1.1,0.1,1.6c0.3,3.6,1.1,7.6,2.5,11.9
			c8.7,27.9,37.4,60.3,45.6,57.8c1.4-0.4,2.3-1.8,3-2.9c1.1-2,1.9-4.2,2.5-6.4c1.8-6.5,2.6-13.3,3-20c0.5-8.2,0.3-16.5-0.5-24.7
			c-0.5-4.9-1.3-9.8-2.4-14.6C204.3,436,203.8,434,203.2,432z"/>
		<path class="st1" d="M206.7,487.5c-3.1,3.2-7.1,5.6-11.7,6.9c-4.6,1.3-9.2,1.3-13.5,0.2"/>
		<path class="st1" d="M207.5,474.1c-3.7,5.5-9.2,9.8-15.9,11.7c-6.2,1.8-12.6,1.3-18.3-1"/>
		<path class="st1" d="M207.3,459.6c-3.9,7.4-10.7,13.2-19.2,15.6c-8,2.3-16.3,1.1-23.2-2.6"/>
	</g>
</g>
<g id="right_back_paw">
	<g>
		<g>
			<path class="st3" d="M239.9,422.1c0.3-1.1,0.6-2,0.9-3c0.3-1,0.7-1.9,1-2.9c0.7-1.9,1.5-3.8,2.2-5.7c0.8-1.9,1.7-3.7,2.5-5.4
				l2.5-5.3c0.3-0.7,1.1-0.9,1.7-0.6c0.5,0.2,0.8,0.8,0.7,1.3l-0.5,5.9c-0.2,2-0.3,3.9-0.4,5.8c-0.1,1.9-0.1,3.8-0.1,5.7
				c0,0.9,0,1.9,0.1,2.8c0,0.9,0.1,1.9,0.2,2.7c0.3,3.1-1.9,5.9-5,6.2c-3.1,0.3-5.9-1.9-6.2-5c-0.1-0.7,0-1.4,0.2-2.1L239.9,422.1z"
				/>
			<path class="st3" d="M276.5,426.9c0.3-0.7,0.6-1.7,0.9-2.6c0.3-0.9,0.6-1.8,0.8-2.7c0.5-1.8,1-3.6,1.5-5.5
				c0.5-1.8,0.8-3.7,1.2-5.7l1.2-5.8c0.1-0.7,0.8-1.2,1.5-1c0.5,0.1,0.9,0.6,1,1.1l0.9,5.8c0.3,1.9,0.6,3.9,0.9,5.9
				c0.2,2,0.4,4,0.6,6.1c0.1,1,0.1,2,0.2,3.1c0,1,0.1,2,0.1,3.2l0,0.3c-0.1,3.1-2.6,5.6-5.7,5.5s-5.6-2.6-5.5-5.7
				C276.1,428.3,276.3,427.6,276.5,426.9z"/>
			<path class="st3" d="M262.8,398.9l0.7,25.4c0.1,3.1-2.4,5.6-5.4,5.7c-3.1,0.1-5.6-2.4-5.7-5.4c0-0.6,0.1-1.3,0.3-1.8l7.7-24.2
				c0.2-0.7,1-1.1,1.6-0.8C262.4,397.9,262.7,398.4,262.8,398.9z"/>
			<path class="st3" d="M274.4,400.5l0.7,25.4c0.1,3.1-2.4,5.6-5.4,5.7c-3.1,0.1-5.6-2.4-5.7-5.4c0-0.6,0.1-1.3,0.3-1.8l7.7-24.2
				c0.2-0.7,1-1.1,1.6-0.8C274,399.5,274.4,400,274.4,400.5z"/>
		</g>
		<g>
			<g>
				<path class="st10" d="M241.3,418.1c-0.4,1-0.7,1.9-1,2.9c-0.3,1-0.6,1.9-0.9,3l-0.1,0.3c-0.2,0.7-0.2,1.3-0.2,2.1
					c0.3,3.1,3.1,5.3,6.2,5c3.1-0.3,5.3-3.1,5-6.2c-0.1-0.8-0.1-1.8-0.2-2.7c0-0.9-0.1-1.9-0.1-2.8c0-1.9,0-3.8,0.1-5.7
					c0-0.8,0.1-1.6,0.1-2.4c-0.8-0.6-1.8-1.1-2.9-1.3c-1-0.2-2.1,0-3,0.3c-0.3,0.6-0.6,1.2-0.8,1.8
					C242.7,414.3,242,416.2,241.3,418.1z"/>
				<path class="st10" d="M277.7,423.6c-0.3,0.9-0.5,1.8-0.8,2.7c-0.3,0.9-0.6,1.8-0.9,2.6c-0.3,0.6-0.4,1.3-0.4,2
					c-0.1,3.1,2.4,5.7,5.5,5.7c3.1,0.1,5.7-2.4,5.7-5.5l0-0.3c0-1.2,0-2.1-0.1-3.2c0-1-0.1-2-0.2-3.1c-0.1-2-0.3-4-0.6-6.1
					c-0.1-0.6-0.2-1.2-0.2-1.8c-0.6-0.3-1.3-0.6-2.1-0.7c-1.5-0.2-2.9,0.1-4.1,0.7c-0.1,0.5-0.2,1-0.3,1.4
					C278.7,420,278.2,421.8,277.7,423.6z"/>
				<path class="st10" d="M251.7,426.5c0.1,3.1,2.6,5.5,5.7,5.4c3.1-0.1,5.5-2.6,5.4-5.7l-0.3-12.6c-0.9-0.7-1.9-1.2-3.1-1.4
					c-1.3-0.2-2.6,0-3.7,0.5l-3.8,11.9C251.8,425.2,251.7,425.8,251.7,426.5z"/>
				<path class="st10" d="M263.3,428.1c0.1,3.1,2.6,5.5,5.7,5.4c3.1-0.1,5.5-2.6,5.4-5.7l-0.3-12.7c-0.8-0.5-1.6-0.9-2.6-1
					c-1.5-0.2-3.1,0.1-4.4,0.9l-3.6,11.3C263.4,426.9,263.3,427.5,263.3,428.1z"/>
			</g>
		</g>
		<path class="st0" d="M288.2,438.5c0.3-2.3,0.6-4.7,0.7-7c0-1.9-0.1-3.9-0.9-5.6c-1-2.1-2.9-3.7-5.2-4.1c-2.6-0.4-5.1,0.8-6.6,2.9
			c-0.8-2.5-2.9-4.4-5.5-4.8c-2.6-0.4-5.1,0.8-6.6,2.9c-0.8-2.5-2.9-4.4-5.5-4.8c-2.6-0.4-5.1,0.8-6.6,2.9c-0.8-2.5-2.9-4.4-5.5-4.8
			c-3-0.5-6,1.3-7.4,4.1l0,0c0,0.1,0,0.1-0.1,0.2c-0.2,0.5-0.4,1-0.5,1.5c-1.1,3.4-2,7.4-2.5,11.9c-3.3,29.1,9.9,70.3,18.5,71.3
			c1.4,0.2,2.8-0.7,3.9-1.5c1.8-1.3,3.4-3.1,4.8-4.8c4.3-5.2,7.7-11.1,10.8-17.1c3.8-7.3,7-14.9,9.5-22.8c1.5-4.7,2.8-9.5,3.7-14.4
			C287.5,442.5,287.9,440.5,288.2,438.5z"/>
		<g>
			<g>
				<path class="st11" d="M239.9,422.1c0.3-1.1,0.6-2,0.9-3c0.3-1,0.7-1.9,1-2.9c0.7-1.9,1.5-3.8,2.2-5.7c0.8-1.9,1.7-3.7,2.5-5.4
					l2.5-5.3c0.3-0.7,1.1-0.9,1.7-0.6c0.5,0.2,0.8,0.8,0.7,1.3l-0.5,5.9c-0.2,2-0.3,3.9-0.4,5.8c-0.1,1.9-0.1,3.8-0.1,5.7
					c0,0.9,0,1.9,0.1,2.8c0,0.9,0.1,1.9,0.2,2.7c0.3,3.1-1.9,5.9-5,6.2c-3.1,0.3-5.9-1.9-6.2-5c-0.1-0.7,0-1.4,0.2-2.1L239.9,422.1z
					"/>
				<path class="st11" d="M276.5,426.9c0.3-0.7,0.6-1.7,0.9-2.6c0.3-0.9,0.6-1.8,0.8-2.7c0.5-1.8,1-3.6,1.5-5.5
					c0.5-1.8,0.8-3.7,1.2-5.7l1.2-5.8c0.1-0.7,0.8-1.2,1.5-1c0.5,0.1,0.9,0.6,1,1.1l0.9,5.8c0.3,1.9,0.6,3.9,0.9,5.9
					c0.2,2,0.4,4,0.6,6.1c0.1,1,0.1,2,0.2,3.1c0,1,0.1,2,0.1,3.2l0,0.3c-0.1,3.1-2.6,5.6-5.7,5.5s-5.6-2.6-5.5-5.7
					C276.1,428.3,276.3,427.6,276.5,426.9z"/>
				<path class="st11" d="M262.8,398.9l0.7,25.4c0.1,3.1-2.4,5.6-5.4,5.7c-3.1,0.1-5.6-2.4-5.7-5.4c0-0.6,0.1-1.3,0.3-1.8l7.7-24.2
					c0.2-0.7,1-1.1,1.6-0.8C262.4,397.9,262.7,398.4,262.8,398.9z"/>
				<path class="st11" d="M274.4,400.5l0.7,25.4c0.1,3.1-2.4,5.6-5.4,5.7c-3.1,0.1-5.6-2.4-5.7-5.4c0-0.6,0.1-1.3,0.3-1.8l7.7-24.2
					c0.2-0.7,1-1.1,1.6-0.8C274,399.5,274.4,400,274.4,400.5z"/>
			</g>
		</g>
		<path class="st2" d="M288.3,437.5c0.3-2.3,0.6-4.7,0.7-7c0-1.9-0.1-3.9-0.9-5.6c-1-2.1-2.9-3.7-5.2-4.1c-2.6-0.4-5.1,0.8-6.6,2.9
			c-0.8-2.5-2.9-4.4-5.5-4.8c-2.6-0.4-5.1,0.8-6.6,2.9c-0.8-2.5-2.9-4.4-5.5-4.8c-2.6-0.4-5.1,0.8-6.6,2.9c-0.8-2.5-2.9-4.4-5.5-4.8
			c-3-0.5-6,1.3-7.4,4.1l0,0c0,0.1,0,0.1-0.1,0.2c-0.2,0.5-0.4,1-0.5,1.5c-1.1,3.4-2,7.4-2.5,11.9c-3.3,29.1,9.9,70.3,18.5,71.3
			c1.4,0.2,2.8-0.7,3.9-1.5c1.8-1.3,3.4-3.1,4.8-4.8c4.3-5.2,7.7-11.1,10.8-17.1c3.8-7.3,7-14.9,9.5-22.8c1.5-4.7,2.8-9.5,3.7-14.4
			C287.6,441.5,288,439.5,288.3,437.5z"/>
		<path class="st1" d="M269.1,489.6c-4.2,1.6-8.7,2.3-13.4,1.6c-4.7-0.7-8.9-2.5-12.4-5.3"/>
		<path class="st1" d="M275.3,477.7c-5.6,3.6-12.3,5.2-19.3,4.2c-6.4-0.9-12-3.9-16.3-8.3"/>
		<path class="st1" d="M280.9,464.3c-6.6,5.2-15.1,7.8-23.9,6.5c-8.3-1.2-15.3-5.5-20.2-11.7"/>
	</g>
</g>
<g id="left_front_paw">
	<g>
		<g>
			<path class="st3" d="M153.3,297.8c-0.2,3.8-0.3,7.9-0.4,11.8c0,4,0.1,7.9,0.3,11.9c0.2,4,0.6,7.9,1.2,11.8c0.3,2,0.7,3.9,1.1,5.8
				c0.4,1.9,0.9,3.9,1.5,5.7l0,0.1c0.3,0.8-0.2,1.7-1,1.9c-0.7,0.2-1.4-0.1-1.8-0.7c-1.1-1.9-2-3.7-2.9-5.6
				c-0.9-1.9-1.6-3.8-2.4-5.8c-1.4-3.9-2.7-7.9-3.8-11.9c-1.1-4-2-8.1-2.9-12.1c-0.8-4.1-1.6-8.1-2.2-12.4c-0.5-3.6,2-6.9,5.5-7.4
				c3.6-0.5,6.9,2,7.4,5.5C153.4,296.9,153.4,297.3,153.3,297.8L153.3,297.8z"/>
			<path class="st3" d="M183.1,344.2c1.7-8.4,2.1-16.8,1.5-25.2c-0.3-4.2-0.9-8.3-1.6-12.4c-0.4-2-0.9-4.1-1.3-6.2l-1.4-6.2
				l-0.1-0.2c-0.7-3.3,1.3-6.5,4.6-7.2c3.3-0.7,6.5,1.3,7.2,4.6c0.1,0.3,0.1,0.7,0.1,1.1l0.3,6.6c0.1,2.2,0.2,4.4,0.2,6.6
				c0,4.5-0.2,9-0.6,13.4c-0.9,8.9-3,17.7-6.2,25.8c-0.3,0.7-1.1,1.1-1.8,0.8C183.3,345.5,183,344.8,183.1,344.2L183.1,344.2z"/>
			<path class="st3" d="M167.3,296.1c-0.4,4.2-0.6,8.5-0.8,12.8c-0.2,4.3-0.3,8.6-0.3,12.8c0,4.2,0.2,8.6,0.3,12.9
				c0.2,4.3,0.4,8.7,0.7,13l0,0c0.1,0.8-0.6,1.6-1.4,1.6c-0.7,0.1-1.4-0.4-1.6-1.1c-1.1-4.2-2.2-8.5-3.2-12.7c-1-4.3-2-8.5-2.8-12.9
				c-0.8-4.4-1.6-8.7-2.2-13.1c-0.6-4.4-1.2-8.7-1.7-13.2c-0.4-3.6,2.2-6.8,5.8-7.2c3.6-0.4,6.8,2.2,7.2,5.8
				C167.4,295.3,167.4,295.7,167.3,296.1L167.3,296.1z"/>
			<path class="st3" d="M180.3,293.8c0,4.6-0.1,9.1-0.3,13.6c-0.2,4.5-0.4,9.1-0.7,13.6c-0.3,4.6-0.9,9.1-1.5,13.6
				c-0.7,4.5-1.4,8.9-2.3,13.4c-0.2,0.8-1,1.4-1.8,1.2c-0.7-0.1-1.2-0.8-1.2-1.5l0,0c0.1-4.4,0-8.9-0.2-13.4
				c-0.2-4.4-0.5-8.8-1-13.2c-0.5-4.4-1.1-8.8-1.8-13.2c-0.7-4.4-1.4-8.8-2.2-13.1l0,0c-0.6-3.5,1.7-6.9,5.3-7.6
				c3.5-0.6,6.9,1.7,7.6,5.3C180.3,293,180.3,293.4,180.3,293.8z"/>
		</g>
		<g>
			<path class="st10" d="M153,313.2c0-1.2,0-2.4,0-3.6c0-3.9,0.1-8,0.4-11.8l0-0.1c0-0.4,0-0.9-0.1-1.3c-0.5-3.6-3.8-6.1-7.4-5.5
				c-3.6,0.5-6.1,3.8-5.5,7.4c0.6,4.3,1.3,8.3,2.2,12.4c0.1,0.3,0.2,0.7,0.2,1c1-0.6,2.2-0.9,3.4-1
				C148.7,310.4,151.1,311.4,153,313.2z"/>
			<path class="st10" d="M180.3,293.8c0,0.3,0,0.6,0,0.9l1.3,5.8c0.4,2.1,1,4.2,1.3,6.2c0.3,1.8,0.6,3.6,0.9,5.4
				c1.4-1.2,3.1-1.9,4.9-2.1c1.3-0.1,2.6,0.1,3.8,0.6c0-1.6,0.1-3.2,0.1-4.7c0-2.3-0.1-4.4-0.2-6.6l-0.3-6.6c0-0.3-0.1-0.7-0.1-1.1
				c-0.7-3.3-3.9-5.3-7.2-4.6c-2.6,0.6-4.4,2.7-4.7,5.2c0.1,0.2,0.1,0.4,0.1,0.6C180.3,293,180.3,293.4,180.3,293.8z"/>
			<path class="st10" d="M166.4,311.3c0-0.8,0.1-1.6,0.1-2.4c0.2-4.3,0.5-8.6,0.8-12.8l0-0.1c0-0.4,0-0.8,0-1.2
				c-0.4-3.6-3.6-6.2-7.2-5.8c-3.6,0.4-6.2,3.6-5.8,7.2c0.5,4.5,1,8.8,1.7,13.2c0.1,0.7,0.2,1.5,0.3,2.2c1.3-1,2.9-1.7,4.6-1.8
				C162.9,309.7,164.8,310.2,166.4,311.3z"/>
			<path class="st10" d="M179.9,311.2c0.1-1.3,0.1-2.5,0.2-3.8c0.1-4.3,0.2-8.5,0.3-12.8l-0.1-0.4l-0.1-0.2c-0.2-0.7-0.2-1.4-0.1-2
				c-0.9-3.2-4.1-5.2-7.4-4.6c-3.5,0.6-5.9,4-5.3,7.6l0,0c0.8,4.3,1.5,8.7,2.2,13.1c0.2,1.2,0.4,2.5,0.5,3.7c1.3-1,2.9-1.7,4.6-1.8
				C176.6,309.7,178.3,310.2,179.9,311.2z"/>
			<path class="st3" d="M180.2,294l0.1,0.2l0.1,0.4c0-0.3,0-0.6,0-0.9c0-0.4,0-0.8-0.1-1.2c0-0.2-0.1-0.4-0.1-0.6
				C180,292.6,180,293.3,180.2,294z"/>
		</g>
		<g>
			<path class="st12" d="M150.4,301.3c1.8,0.9,3.1,2.3,3.7,4c1.4-2.5,4.1-4.2,7.2-4c3,0.1,5.5,1.9,6.8,4.4c0-0.1,0.1-0.2,0.1-0.3
				c1.8-3.7,6.3-5.3,10-3.5c1.3,0.6,2.3,1.5,3,2.6c0.1-0.2,0.2-0.4,0.3-0.7c1.8-3.7,6.3-5.3,10-3.5c0.6,0.3,1.1,0.6,1.5,1
				c0.1-1.2,0.1-2.4,0.1-3.7c0.1-22.2-11.7-40.3-26.4-40.4c-14.7-0.1-26.7,17.9-26.8,40.1c0,2.5,0.1,4.9,0.4,7.2
				C142.3,301,146.8,299.5,150.4,301.3z"/>
		</g>
		<g>
			<path class="st11" d="M153.3,297.8c-0.2,3.8-0.3,7.9-0.4,11.8c0,4,0.1,7.9,0.3,11.9c0.2,4,0.6,7.9,1.2,11.8
				c0.3,2,0.7,3.9,1.1,5.8c0.4,1.9,0.9,3.9,1.5,5.7l0,0.1c0.3,0.8-0.2,1.7-1,1.9c-0.7,0.2-1.4-0.1-1.8-0.7c-1.1-1.9-2-3.7-2.9-5.6
				c-0.9-1.9-1.6-3.8-2.4-5.8c-1.4-3.9-2.7-7.9-3.8-11.9c-1.1-4-2-8.1-2.9-12.1c-0.8-4.1-1.6-8.1-2.2-12.4c-0.5-3.6,2-6.9,5.5-7.4
				c3.6-0.5,6.9,2,7.4,5.5C153.4,296.9,153.4,297.3,153.3,297.8L153.3,297.8z"/>
			<path class="st11" d="M183.1,344.2c1.7-8.4,2.1-16.8,1.5-25.2c-0.3-4.2-0.9-8.3-1.6-12.4c-0.4-2-0.9-4.1-1.3-6.2l-1.4-6.2
				l-0.1-0.2c-0.7-3.3,1.3-6.5,4.6-7.2c3.3-0.7,6.5,1.3,7.2,4.6c0.1,0.3,0.1,0.7,0.1,1.1l0.3,6.6c0.1,2.2,0.2,4.4,0.2,6.6
				c0,4.5-0.2,9-0.6,13.4c-0.9,8.9-3,17.7-6.2,25.8c-0.3,0.7-1.1,1.1-1.8,0.8C183.3,345.5,183,344.8,183.1,344.2L183.1,344.2z"/>
			<path class="st11" d="M167.3,296.1c-0.4,4.2-0.6,8.5-0.8,12.8c-0.2,4.3-0.3,8.6-0.3,12.8c0,4.2,0.2,8.6,0.3,12.9
				c0.2,4.3,0.4,8.7,0.7,13l0,0c0.1,0.8-0.6,1.6-1.4,1.6c-0.7,0.1-1.4-0.4-1.6-1.1c-1.1-4.2-2.2-8.5-3.2-12.7c-1-4.3-2-8.5-2.8-12.9
				c-0.8-4.4-1.6-8.7-2.2-13.1c-0.6-4.4-1.2-8.7-1.7-13.2c-0.4-3.6,2.2-6.8,5.8-7.2c3.6-0.4,6.8,2.2,7.2,5.8
				C167.4,295.3,167.4,295.7,167.3,296.1L167.3,296.1z"/>
			<path class="st11" d="M180.3,293.8c0,4.6-0.1,9.1-0.3,13.6c-0.2,4.5-0.4,9.1-0.7,13.6c-0.3,4.6-0.9,9.1-1.5,13.6
				c-0.7,4.5-1.4,8.9-2.3,13.4c-0.2,0.8-1,1.4-1.8,1.2c-0.7-0.1-1.2-0.8-1.2-1.5l0,0c0.1-4.4,0-8.9-0.2-13.4
				c-0.2-4.4-0.5-8.8-1-13.2c-0.5-4.4-1.1-8.8-1.8-13.2c-0.7-4.4-1.4-8.8-2.2-13.1l0,0c-0.6-3.5,1.7-6.9,5.3-7.6
				c3.5-0.6,6.9,1.7,7.6,5.3C180.3,293,180.3,293.4,180.3,293.8z"/>
		</g>
		<g>
			<path class="st2" d="M150.4,301.3c1.8,0.9,3.1,2.3,3.7,4c1.4-2.5,4.1-4.2,7.2-4c3,0.1,5.5,1.9,6.8,4.4c0-0.1,0.1-0.2,0.1-0.3
				c1.8-3.7,6.3-5.3,10-3.5c1.3,0.6,2.3,1.5,3,2.6c0.1-0.2,0.2-0.4,0.3-0.7c1.8-3.7,6.3-5.3,10-3.5c0.6,0.3,1.1,0.6,1.5,1
				c0.1-1.2,0.1-2.4,0.1-3.7c0.1-22.2-11.7-40.3-26.4-40.4c-14.7-0.1-26.7,17.9-26.8,40.1c0,2.5,0.1,4.9,0.4,7.2
				C142.3,301,146.8,299.5,150.4,301.3z"/>
		</g>
		<path class="st1" d="M140.1,301.8c5.1-8.8,16.4-14.8,29.5-14.7c9.2,0,17.5,3.1,23.3,8"/>
		<path class="st1" d="M140.8,287.7c5.6-7.3,15.6-12.1,27.1-12.1c9.4,0,17.8,3.4,23.5,8.6"/>
		<path class="st1" d="M145.2,273.5c5.3-5.3,13.1-8.6,21.8-8.6c8.2,0,15.7,3.1,20.9,8"/>
	</g>
</g>
<g id="right_front_paw">
	<g>
		<g>
			<path class="st3" d="M269.5,292.6c0.2,3.8,0.3,7.9,0.2,11.8c0,4-0.2,7.9-0.4,11.9c-0.3,4-0.7,7.9-1.3,11.8
				c-0.3,2-0.7,3.9-1.1,5.8c-0.4,1.9-1,3.9-1.6,5.6l0,0.1c-0.3,0.8,0.1,1.7,0.9,1.9c0.7,0.2,1.4-0.1,1.8-0.7c1.1-1.9,2-3.7,2.9-5.6
				c0.9-1.9,1.7-3.8,2.4-5.8c1.5-3.9,2.8-7.9,3.9-11.9c1.1-4,2.1-8,3-12.1c0.9-4.1,1.7-8.1,2.3-12.4c0.5-3.6-1.9-6.9-5.5-7.4
				c-3.6-0.5-6.9,1.9-7.4,5.5C269.5,291.7,269.5,292.2,269.5,292.6L269.5,292.6z"/>
			<path class="st3" d="M239.3,338.7c-1.6-8.4-1.9-16.9-1.2-25.2c0.4-4.2,0.9-8.3,1.8-12.4c0.4-2,0.9-4.1,1.4-6.2l1.4-6.2l0.1-0.2
				c0.8-3.2-1.3-6.5-4.5-7.2c-3.2-0.8-6.5,1.3-7.2,4.5c-0.1,0.3-0.1,0.7-0.1,1.1l-0.3,6.6c-0.1,2.2-0.3,4.4-0.3,6.6
				c-0.1,4.5,0.1,9,0.5,13.4c0.8,8.9,2.8,17.7,5.9,25.9c0.3,0.7,1.1,1.1,1.8,0.8C239,340.1,239.4,339.4,239.3,338.7L239.3,338.7z"/>
			<path class="st3" d="M255.5,290.8c0.3,4.2,0.5,8.5,0.7,12.8c0.2,4.3,0.2,8.6,0.2,12.8c-0.1,4.2-0.2,8.6-0.5,12.9
				c-0.2,4.3-0.5,8.7-0.9,13l0,0c-0.1,0.8,0.6,1.6,1.4,1.6c0.7,0.1,1.4-0.4,1.6-1.1c1.2-4.2,2.3-8.4,3.3-12.7
				c1.1-4.3,2.1-8.5,3-12.9c0.9-4.4,1.6-8.7,2.3-13.1c0.7-4.4,1.3-8.7,1.8-13.2c0.4-3.6-2.1-6.8-5.7-7.3c-3.6-0.4-6.8,2.1-7.3,5.7
				C255.5,290,255.5,290.4,255.5,290.8L255.5,290.8z"/>
			<path class="st3" d="M242.5,288.3c0,4.6,0,9.1,0.1,13.6c0.1,4.5,0.3,9.1,0.6,13.7c0.3,4.6,0.8,9.2,1.4,13.6
				c0.6,4.5,1.3,9,2.2,13.4c0.2,0.8,1,1.4,1.8,1.2c0.7-0.1,1.2-0.8,1.2-1.5l0,0c0-4.4,0.1-8.9,0.3-13.4c0.2-4.4,0.6-8.8,1.1-13.2
				c0.5-4.4,1.2-8.8,1.9-13.1c0.7-4.4,1.5-8.8,2.3-13.1l0,0c0.7-3.5-1.6-7-5.2-7.6c-3.5-0.7-7,1.6-7.6,5.2
				C242.6,287.5,242.5,288,242.5,288.3z"/>
		</g>
		<g>
			<path class="st10" d="M269.7,308c0-1.2,0.1-2.4,0.1-3.6c0-3.9,0-8-0.2-11.8l0-0.1c0-0.4,0-0.9,0.1-1.3c0.5-3.6,3.9-6,7.4-5.5
				c3.6,0.5,6,3.9,5.5,7.4c-0.7,4.3-1.4,8.3-2.3,12.4c-0.1,0.3-0.2,0.7-0.2,1c-1-0.6-2.2-1-3.4-1.1C274,305.3,271.6,306.3,269.7,308
				z"/>
			<path class="st10" d="M242.5,288.3c0,0.3,0,0.6,0,0.9l-1.3,5.8c-0.5,2.1-1,4.2-1.4,6.2c-0.4,1.8-0.7,3.6-0.9,5.3
				c-1.4-1.2-3.1-2-4.9-2.1c-1.3-0.1-2.6,0.1-3.8,0.5c0-1.6,0-3.2,0-4.7c0-2.3,0.2-4.4,0.3-6.6l0.3-6.6c0-0.3,0.1-0.7,0.1-1.1
				c0.8-3.2,4-5.3,7.2-4.5c2.6,0.6,4.4,2.7,4.6,5.2c-0.1,0.2-0.1,0.4-0.2,0.6C242.6,287.5,242.5,288,242.5,288.3z"/>
			<path class="st10" d="M256.3,306c0-0.8,0-1.6-0.1-2.4c-0.2-4.3-0.4-8.6-0.7-12.8l0-0.1c0-0.4,0-0.8,0-1.2
				c0.4-3.6,3.7-6.1,7.3-5.7c3.6,0.4,6.1,3.7,5.7,7.3c-0.5,4.5-1.1,8.8-1.8,13.2c-0.1,0.7-0.2,1.5-0.4,2.2c-1.3-1-2.9-1.7-4.6-1.9
				C259.8,304.4,257.9,305,256.3,306z"/>
			<path class="st10" d="M242.8,305.8c0-1.3-0.1-2.5-0.1-3.8c-0.1-4.3-0.1-8.5-0.1-12.8l0.1-0.4l0.1-0.2c0.2-0.7,0.2-1.4,0.1-2
				c0.9-3.2,4.2-5.2,7.5-4.6c3.5,0.7,5.9,4.1,5.2,7.6l0,0c-0.8,4.3-1.6,8.7-2.3,13.1c-0.2,1.2-0.4,2.5-0.6,3.7
				c-1.3-1-2.9-1.7-4.6-1.9C246.2,304.4,244.4,304.8,242.8,305.8z"/>
			<path class="st3" d="M242.7,288.5l-0.1,0.2l-0.1,0.4c0-0.3,0-0.6,0-0.9c0-0.4,0-0.8,0.1-1.2c0-0.2,0.1-0.4,0.2-0.6
				C242.9,287.2,242.9,287.8,242.7,288.5z"/>
		</g>
		<g>
			<path class="st12" d="M272.4,296.2c-1.8,0.8-3.1,2.3-3.8,4c-1.4-2.5-4.1-4.2-7.2-4.1c-3,0.1-5.5,1.8-6.8,4.3
				c0-0.1-0.1-0.2-0.1-0.3c-1.8-3.7-6.2-5.4-10-3.6c-1.3,0.6-2.3,1.5-3,2.6c-0.1-0.2-0.2-0.4-0.3-0.7c-1.8-3.7-6.2-5.4-10-3.6
				c-0.6,0.3-1.1,0.6-1.6,1c-0.1-1.2-0.1-2.4-0.1-3.7c0.1-22.2,12.1-40.2,26.8-40.1c14.7,0.1,26.5,18.2,26.4,40.4
				c0,2.5-0.2,4.9-0.5,7.2C280.5,296,276.1,294.4,272.4,296.2z"/>
		</g>
		<g>
			<path class="st11" d="M269.5,292.6c0.2,3.8,0.3,7.9,0.2,11.8c0,4-0.2,7.9-0.4,11.9c-0.3,4-0.7,7.9-1.3,11.8
				c-0.3,2-0.7,3.9-1.1,5.8c-0.4,1.9-1,3.9-1.6,5.6l0,0.1c-0.3,0.8,0.1,1.7,0.9,1.9c0.7,0.2,1.4-0.1,1.8-0.7c1.1-1.9,2-3.7,2.9-5.6
				c0.9-1.9,1.7-3.8,2.4-5.8c1.5-3.9,2.8-7.9,3.9-11.9c1.1-4,2.1-8,3-12.1c0.9-4.1,1.7-8.1,2.3-12.4c0.5-3.6-1.9-6.9-5.5-7.4
				c-3.6-0.5-6.9,1.9-7.4,5.5C269.5,291.7,269.5,292.2,269.5,292.6L269.5,292.6z"/>
			<path class="st11" d="M239.3,338.7c-1.6-8.4-1.9-16.9-1.2-25.2c0.4-4.2,0.9-8.3,1.8-12.4c0.4-2,0.9-4.1,1.4-6.2l1.4-6.2l0.1-0.2
				c0.8-3.2-1.3-6.5-4.5-7.2c-3.2-0.8-6.5,1.3-7.2,4.5c-0.1,0.3-0.1,0.7-0.1,1.1l-0.3,6.6c-0.1,2.2-0.3,4.4-0.3,6.6
				c-0.1,4.5,0.1,9,0.5,13.4c0.8,8.9,2.8,17.7,5.9,25.9c0.3,0.7,1.1,1.1,1.8,0.8C239,340.1,239.4,339.4,239.3,338.7L239.3,338.7z"/>
			<path class="st11" d="M255.5,290.8c0.3,4.2,0.5,8.5,0.7,12.8c0.2,4.3,0.2,8.6,0.2,12.8c-0.1,4.2-0.2,8.6-0.5,12.9
				c-0.2,4.3-0.5,8.7-0.9,13l0,0c-0.1,0.8,0.6,1.6,1.4,1.6c0.7,0.1,1.4-0.4,1.6-1.1c1.2-4.2,2.3-8.4,3.3-12.7
				c1.1-4.3,2.1-8.5,3-12.9c0.9-4.4,1.6-8.7,2.3-13.1c0.7-4.4,1.3-8.7,1.8-13.2c0.4-3.6-2.1-6.8-5.7-7.3c-3.6-0.4-6.8,2.1-7.3,5.7
				C255.5,290,255.5,290.4,255.5,290.8L255.5,290.8z"/>
			<path class="st11" d="M242.5,288.3c0,4.6,0,9.1,0.1,13.6c0.1,4.5,0.3,9.1,0.6,13.7c0.3,4.6,0.8,9.2,1.4,13.6
				c0.6,4.5,1.3,9,2.2,13.4c0.2,0.8,1,1.4,1.8,1.2c0.7-0.1,1.2-0.8,1.2-1.5l0,0c0-4.4,0.1-8.9,0.3-13.4c0.2-4.4,0.6-8.8,1.1-13.2
				c0.5-4.4,1.2-8.8,1.9-13.1c0.7-4.4,1.5-8.8,2.3-13.1l0,0c0.7-3.5-1.6-7-5.2-7.6c-3.5-0.7-7,1.6-7.6,5.2
				C242.6,287.5,242.5,288,242.5,288.3z"/>
		</g>
		<g>
			<path class="st2" d="M272.4,296.2c-1.8,0.8-3.1,2.3-3.8,4c-1.4-2.5-4.1-4.2-7.2-4.1c-3,0.1-5.5,1.8-6.8,4.3
				c0-0.1-0.1-0.2-0.1-0.3c-1.8-3.7-6.2-5.4-10-3.6c-1.3,0.6-2.3,1.5-3,2.6c-0.1-0.2-0.2-0.4-0.3-0.7c-1.8-3.7-6.2-5.4-10-3.6
				c-0.6,0.3-1.1,0.6-1.6,1c-0.1-1.2-0.1-2.4-0.1-3.7c0.1-22.2,12.1-40.2,26.8-40.1c14.7,0.1,26.5,18.2,26.4,40.4
				c0,2.5-0.2,4.9-0.5,7.2C280.5,296,276.1,294.4,272.4,296.2z"/>
		</g>
		<path class="st1" d="M282.7,296.8c-5-8.8-16.2-15-29.3-15.1c-9.2,0-17.5,2.9-23.4,7.7"/>
		<path class="st1" d="M282.2,282.7c-5.5-7.3-15.5-12.3-27-12.3c-9.4,0-17.8,3.2-23.6,8.4"/>
		<path class="st1" d="M277.9,268.5c-5.3-5.3-13-8.7-21.7-8.8c-8.2,0-15.7,2.9-21,7.8"/>
	</g>
</g>
<g id="eye">
	<path class="st13" d="M135.7,111.9c0.4-3.4,3.5-7,7.2-6.1c3.7,0.8,5.1,5.7,5.7,8.9"/>
</g>
<g id="mouth">
	<path class="st14" d="M150,147.6c-3.6,2.8-8.6,3.9-13.4,1c-1.2-0.7-2.3-1.6-3.1-2.6"/>
</g>
</svg>
