<?xml version="1.0" encoding="utf-8"?>
<!-- Generator: Adobe Illustrator 22.1.0, SVG Export Plug-In . SVG Version: 6.00 Build 0)  -->
<svg version="1.1" xmlns="http://www.w3.org/2000/svg" xmlns:xlink="http://www.w3.org/1999/xlink" x="0px" y="0px"
	 viewBox="0 0 566.9 566.9" style="enable-background:new 0 0 566.9 566.9;" xml:space="preserve">
<style type="text/css">
	.st0{fill:#FACEE1;}
	.st1{fill:#E2B7CC;}
	.st2{fill:none;stroke:#EBA5BD;stroke-width:2;stroke-miterlimit:10;}
	.st3{fill-rule:evenodd;clip-rule:evenodd;fill:#EDA5BD;}
	.st4{fill:none;stroke:#B66E87;stroke-width:3;stroke-linecap:round;stroke-linejoin:round;stroke-miterlimit:10;}
	.st5{fill:none;stroke:#B66E87;stroke-width:2;stroke-linecap:round;stroke-linejoin:round;stroke-miterlimit:10;}
	.st6{fill:#ECF1C3;}
	.st7{fill:none;stroke:#BECD96;stroke-width:3;stroke-linecap:round;stroke-linejoin:round;stroke-miterlimit:10;}
	.st8{fill:none;stroke:#BECD96;stroke-width:2;stroke-linecap:round;stroke-linejoin:round;stroke-miterlimit:10;}
	.st9{fill:#F2B9D5;}
	.st10{fill:none;stroke:#EDA5BD;stroke-width:3;stroke-linecap:round;stroke-linejoin:round;stroke-miterlimit:10;}
	.st11{fill:none;stroke:#BECD95;stroke-width:2;stroke-linecap:round;stroke-miterlimit:10;}
	.st12{fill:none;stroke:#EDA5BD;stroke-width:2;stroke-linecap:round;stroke-linejoin:round;stroke-miterlimit:10;}
	.st13{fill:none;stroke:#212121;stroke-width:3;stroke-linecap:round;stroke-miterlimit:10;}
</style>
<g id="Front_Background_Foot">
	<g>
		<path class="st0" d="M63.8,221.1c0-0.3,0.4-0.4,0.5-0.1c0.9,2.4,1.7,4.8,2.7,7.1c0.6,1.5,1.3,3,2,4.5c0.7,1.5,1.5,2.9,2.3,4.3
			l0.6,1l0.6,1l1.4,2.1c0.9,1.4,1.9,2.8,2.8,4.2c1.8,2.8,3.5,5.7,5,8.7l-3.3,2c-2-2.8-3.7-5.7-5.4-8.6c-0.8-1.5-1.6-3-2.4-4.5
			l-1.2-2.2c-0.4-0.8-0.8-1.6-1.1-2.4c-1.4-3.2-2.4-6.5-3.2-9.7C64.6,226.1,64.2,223.6,63.8,221.1z"/>
		<path class="st1" d="M78,248.9c-1,0.7-2.1,1.1-3.3,1.3c1.5,2.5,3,5,4.7,7.4l3.3-2c-1.2-2.5-2.6-4.8-4-7.1
			C78.5,248.6,78.3,248.7,78,248.9z"/>
		<path class="st2" d="M63.8,221.1c0-0.3,0.4-0.4,0.5-0.1c0.9,2.4,1.7,4.8,2.7,7.1c0.6,1.5,1.3,3,2,4.5c0.7,1.5,1.5,2.9,2.3,4.3
			l0.6,1l0.6,1l1.4,2.1c0.9,1.4,1.9,2.8,2.8,4.2c1.8,2.8,3.5,5.7,5,8.7l-3.3,2c-2-2.8-3.7-5.7-5.4-8.6c-0.8-1.5-1.6-3-2.4-4.5
			l-1.2-2.2c-0.4-0.8-0.8-1.6-1.1-2.4c-1.4-3.2-2.4-6.5-3.2-9.7C64.6,226.1,64.2,223.6,63.8,221.1z"/>
		<path class="st0" d="M67.4,215.4c0-0.4,0.5-0.5,0.7-0.1c1.1,2.7,2.1,5.4,3.2,8.1c0.7,1.7,1.4,3.3,2.1,5c0.4,0.8,0.7,1.6,1.1,2.4
			c0.4,0.8,0.8,1.5,1.2,2.3c0.9,1.5,1.8,3,2.8,4.6c1,1.5,1.9,3,2.9,4.6c1.9,3.1,3.7,6.2,5.3,9.5l-4.7,2.8c-2.3-3-4.1-6.2-5.9-9.5
			c-0.9-1.6-1.7-3.3-2.4-5c-0.8-1.7-1.5-3.4-2.2-5.2c-1.4-3.7-2.2-7.3-2.8-10.9C68.1,221,67.7,218.2,67.4,215.4z"/>
		<path class="st1" d="M79.6,247.8c-0.6,0.2-1.2,0.3-1.8,0.3c1.5,2.8,3.2,5.5,5.1,8l4.7-2.8c-1.5-3.1-3.2-6.2-5-9.1
			C82.1,246,81.1,247.3,79.6,247.8z"/>
		<path class="st2" d="M67.4,215.4c0-0.4,0.5-0.5,0.7-0.1c1.1,2.7,2.1,5.4,3.2,8.1c0.7,1.7,1.4,3.3,2.1,5c0.4,0.8,0.7,1.6,1.1,2.4
			c0.4,0.8,0.8,1.5,1.2,2.3c0.9,1.5,1.8,3,2.8,4.6c1,1.5,1.9,3,2.9,4.6c1.9,3.1,3.7,6.2,5.3,9.5l-4.7,2.8c-2.3-3-4.1-6.2-5.9-9.5
			c-0.9-1.6-1.7-3.3-2.4-5c-0.8-1.7-1.5-3.4-2.2-5.2c-1.4-3.7-2.2-7.3-2.8-10.9C68.1,221,67.7,218.2,67.4,215.4z"/>
		<path class="st0" d="M72,209.6c0-0.5,0.6-0.5,0.8-0.1c1.2,3,2.3,6,3.6,9c0.8,1.8,1.5,3.6,2.3,5.2c0.2,0.4,0.4,0.8,0.6,1.3l0.6,1.2
			c0.4,0.8,0.9,1.5,1.4,2.3c2,3.2,4.2,6.3,6.3,9.6c1.1,1.6,2.1,3.3,3.1,4.9c1,1.7,1.9,3.4,2.7,5.1l-6,3.9c-1.3-1.6-2.5-3.2-3.6-4.9
			c-1.1-1.7-2.1-3.4-3.1-5.2c-1-1.8-1.8-3.6-2.7-5.4c-0.9-1.8-1.7-3.7-2.4-5.7c-0.4-1-0.7-2-1.1-3l-0.4-1.5c-0.1-0.5-0.3-1-0.4-1.5
			c-0.4-2-0.8-3.9-1.1-5.9C72.3,215.9,72,212.8,72,209.6z"/>
		<path class="st1" d="M86.5,242.9c-1.5,1-3.4,1.6-4.5,1.1c0.3,1.2,1.4,2.6,2.1,3.7c1.1,1.7,2.2,3.3,3.6,4.9l6-3.9
			c-0.8-1.7-1.8-3.5-2.7-5.1c-0.9-1.5-1.8-3-2.8-4.4C89.1,240.8,87.5,242.2,86.5,242.9z"/>
		<path class="st2" d="M72,209.6c0-0.5,0.6-0.5,0.8-0.1c1.2,3,2.3,6,3.6,9c0.8,1.8,1.5,3.6,2.3,5.2c0.2,0.4,0.4,0.8,0.6,1.3l0.6,1.2
			c0.4,0.8,0.9,1.5,1.4,2.3c2,3.2,4.2,6.3,6.3,9.6c1.1,1.6,2.1,3.3,3.1,4.9c1,1.7,1.9,3.4,2.7,5.1l-6,3.9c-1.3-1.6-2.5-3.2-3.6-4.9
			c-1.1-1.7-2.1-3.4-3.1-5.2c-1-1.8-1.8-3.6-2.7-5.4c-0.9-1.8-1.7-3.7-2.4-5.7c-0.4-1-0.7-2-1.1-3l-0.4-1.5c-0.1-0.5-0.3-1-0.4-1.5
			c-0.4-2-0.8-3.9-1.1-5.9C72.3,215.9,72,212.8,72,209.6z"/>
		<path class="st0" d="M82.8,207.5c0.1-0.6,0.9-0.6,1.2,0l1.3,3.1l2.2,5.1c1.5,3.3,3,6.6,4.6,9.5c0.4,0.7,0.8,1.4,1.3,2.1l1.4,2
			c1,1.5,2,2.9,3,4.4c1,1.5,1.9,3,2.7,4.5c0.5,0.9,1,1.8,1.4,2.6c0.2,0.3,0.3,0.7,0.5,1c0.1,0.3,0.3,0.7,0.4,0.9l-8,5.8
			c-0.4-0.5-0.8-0.8-1.1-1.2c-0.3-0.4-0.6-0.8-0.9-1.2c-0.6-0.8-1.2-1.6-1.7-2.4c-1.1-1.6-2-3.3-2.8-5.1c-0.8-1.7-1.6-3.5-2.2-5.3
			c-0.2-0.5-0.3-0.8-0.5-1.4l-0.5-1.5c-0.2-0.5-0.3-1-0.5-1.5c-0.1-0.5-0.3-1-0.4-1.5c-0.9-3.9-1.3-7.7-1.4-11.4
			c-0.1-1.8,0-3.7,0.1-5.5C82.6,209.7,82.7,208.6,82.8,207.5z"/>
		<path class="st1" d="M94.1,238.3c-1.6,1-4.9,1.8-5.7,1c0.1,0.1,0.1,0.3,0.2,0.4c0.8,1.7,1.8,3.4,2.8,5.1c0.5,0.8,1.1,1.6,1.7,2.4
			c0.3,0.4,0.6,0.8,0.9,1.2c0.3,0.4,0.7,0.7,1.1,1.2l8-5.8c-0.1-0.2-0.2-0.6-0.4-0.9c-0.1-0.3-0.3-0.7-0.5-1
			c-0.4-0.9-0.9-1.8-1.4-2.6c-0.8-1.5-1.8-3-2.7-4.5c-0.3-0.4-0.5-0.8-0.8-1.2C97.4,234.9,95.7,237.3,94.1,238.3z"/>
		<path class="st2" d="M82.8,207.5c0.1-0.6,0.9-0.6,1.2,0l1.3,3.1l2.2,5.1c1.5,3.3,3,6.6,4.6,9.5c0.4,0.7,0.8,1.4,1.3,2.1l1.4,2
			c1,1.5,2,2.9,3,4.4c1,1.5,1.9,3,2.7,4.5c0.5,0.9,1,1.8,1.4,2.6c0.2,0.3,0.3,0.7,0.5,1c0.1,0.3,0.3,0.7,0.4,0.9l-8,5.8
			c-0.4-0.5-0.8-0.8-1.1-1.2c-0.3-0.4-0.6-0.8-0.9-1.2c-0.6-0.8-1.2-1.6-1.7-2.4c-1.1-1.6-2-3.3-2.8-5.1c-0.8-1.7-1.6-3.5-2.2-5.3
			c-0.2-0.5-0.3-0.8-0.5-1.4l-0.5-1.5c-0.2-0.5-0.3-1-0.5-1.5c-0.1-0.5-0.3-1-0.4-1.5c-0.9-3.9-1.3-7.7-1.4-11.4
			c-0.1-1.8,0-3.7,0.1-5.5C82.6,209.7,82.7,208.6,82.8,207.5z"/>
		<g>
			<g>
				<path class="st3" d="M98.3,234.5c0.1,0.1,0.2,0.2,0.3,0.4c1.7,2.7,0.9,6.2-1.8,8c-2.7,1.7-6.3,1-8-1.7c1.7,2.7,1.8,5.7,0.2,6.7
					c-1.6,1-4.3-0.3-6-3c1.7,2.7,1.9,5.6,0.5,6.6c-1.5,0.9-4.1-0.4-5.8-3.1c-0.1-0.1-0.2-0.4-0.2-0.4l0,0c0.2,0.4,0.4,0.6,0.6,0.9
					c1.5,2.4,1.7,5,0.7,5.7c-0.3,0.2-0.6,0.2-1,0.1c7.2,11.5,25.8,39.1,35.9,36.4c9.5-2.5,3-24.9-5.3-40.5S98.2,234.5,98.3,234.5
					L98.3,234.5z"/>
			</g>
		</g>
		<g>
			<g>
				<path class="st4" d="M98.5,234.4c0.1,0.1,0.2,0.2,0.3,0.4c1.7,2.7,0.9,6.2-1.8,8c-2.7,1.7-6.3,1-8-1.7c1.7,2.7,1.8,5.7,0.2,6.7
					c-1.6,1-4.3-0.3-6-3c1.7,2.7,1.9,5.6,0.5,6.6c-1.5,0.9-4.1-0.4-5.8-3.1c-0.1-0.1-0.2-0.4-0.2-0.4l0,0c0.2,0.4,0.4,0.6,0.6,0.9
					c1.5,2.4,1.7,5,0.7,5.7c-0.3,0.2-0.6,0.2-1,0.1c7.2,11.5,25.8,39.1,35.9,36.4c9.5-2.5,3-24.9-5.3-40.5S98.4,234.4,98.5,234.4
					L98.5,234.4z"/>
			</g>
		</g>
		<path class="st5" d="M89.8,272.2c0,0,5.4,5.3,13.6-2.3s6.1-17.8,6.1-17.8"/>
		<path class="st5" d="M96,279.4c0,0,4.7,4.5,12-2.2s5.6-15.5,5.6-15.5"/>
		<path class="st5" d="M102.9,286.5c0,0,3.6,3.4,9.5-1.9s4.7-12,4.7-12"/>
	</g>
</g>
<g id="Back_Background_Foot">
	<g>
		<g>
			<path class="st0" d="M277.7,229.2c-0.7-0.4-1.2-0.8-1.8-1.3c-0.6-0.4-1.1-0.9-1.7-1.3c-1.1-0.9-2.2-1.8-3.2-2.7
				c-1-0.9-2-1.9-3-2.8l-2.9-2.8c-0.4-0.3-0.4-0.9,0-1.3c0.3-0.3,0.7-0.3,1-0.2l3.7,1.6c1.3,0.5,2.5,1,3.7,1.5
				c1.2,0.5,2.5,0.9,3.7,1.3c0.6,0.2,1.2,0.4,1.9,0.6c0.6,0.2,1.3,0.4,1.8,0.5c2.1,0.4,3.4,2.5,3,4.6c-0.4,2.1-2.5,3.4-4.6,3
				c-0.5-0.1-0.9-0.3-1.3-0.5L277.7,229.2z"/>
			<path class="st0" d="M288.8,206.3c-0.4-0.4-1-0.8-1.5-1.1c-0.5-0.4-1-0.8-1.6-1.1c-1.1-0.7-2.2-1.5-3.3-2.2
				c-1.1-0.7-2.2-1.3-3.4-2l-3.5-2c-0.4-0.2-0.6-0.8-0.3-1.2c0.2-0.3,0.6-0.5,0.9-0.4l4,0.6c1.3,0.2,2.7,0.4,4.1,0.7
				c1.4,0.3,2.7,0.6,4.1,0.9c0.7,0.2,1.4,0.4,2,0.5c0.7,0.2,1.3,0.4,2.1,0.6l0.2,0.1c2,0.7,3.1,2.9,2.4,4.9c-0.7,2-2.9,3.1-4.9,2.4
				C289.6,206.9,289.1,206.6,288.8,206.3z"/>
			<path class="st0" d="M267.5,209.3l16.7,5c2,0.6,3.2,2.8,2.6,4.8c-0.6,2-2.8,3.2-4.8,2.6c-0.4-0.1-0.8-0.3-1.1-0.6l-14.1-10.2
				c-0.4-0.3-0.5-0.9-0.2-1.3C266.8,209.3,267.2,209.2,267.5,209.3z"/>
			<path class="st0" d="M271.1,202l16.7,5c2,0.6,3.2,2.8,2.6,4.8c-0.6,2-2.8,3.2-4.8,2.6c-0.4-0.1-0.8-0.3-1.1-0.6l-14.1-10.2
				c-0.4-0.3-0.5-0.9-0.2-1.3C270.4,202.1,270.8,201.9,271.1,202z"/>
		</g>
		<g>
			<g>
				<path class="st1" d="M275.4,227.4c0.5,0.4,1.1,0.9,1.7,1.3c0.6,0.4,1.1,0.8,1.8,1.3l0.2,0.1c0.4,0.3,0.8,0.4,1.3,0.5
					c2.1,0.4,4.1-0.9,4.6-3c0.4-2.1-0.9-4.1-3-4.6c-0.5-0.1-1.2-0.3-1.8-0.5c-0.6-0.2-1.2-0.4-1.9-0.6c-1.2-0.4-2.5-0.8-3.7-1.3
					c-0.5-0.2-1-0.4-1.5-0.6c-0.6,0.4-1.1,1-1.4,1.6c-0.3,0.6-0.5,1.3-0.5,2c0.3,0.3,0.7,0.6,1,0.9
					C273.3,225.7,274.3,226.6,275.4,227.4z"/>
				<path class="st1" d="M286.9,204.9c0.5,0.4,1.1,0.7,1.6,1.1c0.5,0.4,1.1,0.8,1.5,1.1c0.4,0.3,0.8,0.6,1.2,0.7
					c2,0.7,4.2-0.4,4.9-2.4c0.7-2-0.4-4.2-2.4-4.9l-0.2-0.1c-0.8-0.3-1.4-0.4-2.1-0.6c-0.7-0.2-1.4-0.4-2-0.5
					c-1.4-0.3-2.7-0.7-4.1-0.9c-0.4-0.1-0.8-0.2-1.2-0.2c-0.4,0.3-0.7,0.7-0.9,1.2c-0.5,0.9-0.6,1.9-0.4,2.9
					c0.3,0.2,0.6,0.3,0.9,0.5C284.7,203.4,285.8,204.1,286.9,204.9z"/>
				<path class="st1" d="M283.1,222.4c2,0.6,4.2-0.5,4.8-2.6c0.6-2-0.5-4.2-2.6-4.8l-8.3-2.5c-0.6,0.4-1.2,1-1.6,1.7
					c-0.4,0.8-0.6,1.7-0.5,2.5l6.9,5C282.3,222.1,282.7,222.3,283.1,222.4z"/>
				<path class="st1" d="M286.7,215.2c2,0.6,4.2-0.5,4.8-2.6c0.6-2-0.5-4.2-2.6-4.8l-8.4-2.5c-0.5,0.4-0.9,0.9-1.2,1.5
					c-0.5,1-0.6,2-0.4,3l6.6,4.8C285.9,214.9,286.3,215.1,286.7,215.2z"/>
			</g>
		</g>
		<path class="st3" d="M298.8,201.2c-1.5-0.7-2.9-1.4-4.4-1.9c-1.2-0.4-2.6-0.8-3.9-0.6c-1.6,0.2-3.1,1.1-3.8,2.5
			c-0.8,1.6-0.6,3.5,0.5,5c-1.8,0-3.5,0.9-4.3,2.5c-0.8,1.6-0.6,3.5,0.5,5c-1.8,0-3.5,0.9-4.3,2.5c-0.8,1.6-0.6,3.5,0.5,5
			c-1.8,0-3.5,0.9-4.3,2.5c-1,1.9-0.5,4.2,1.1,5.7l0,0c0,0,0.1,0.1,0.1,0.1c0.3,0.3,0.6,0.5,0.9,0.7c2,1.5,4.4,2.9,7.2,4.2
			c18.3,8.4,48,8.7,50.5,3.3c0.4-0.9,0.2-2-0.1-2.9c-0.5-1.5-1.3-2.9-2.1-4.2c-2.5-3.9-5.6-7.4-8.8-10.7c-4-4-8.2-7.8-12.8-11.1
			c-2.7-2-5.6-3.9-8.6-5.5C301.3,202.6,300.1,201.9,298.8,201.2z"/>
		<g>
			<g>
				<path class="st2" d="M277.7,229.2c-0.7-0.4-1.2-0.8-1.8-1.3c-0.6-0.4-1.1-0.9-1.7-1.3c-1.1-0.9-2.2-1.8-3.2-2.7
					c-1-0.9-2-1.9-3-2.8l-2.9-2.8c-0.4-0.3-0.4-0.9,0-1.3c0.3-0.3,0.7-0.3,1-0.2l3.7,1.6c1.3,0.5,2.5,1,3.7,1.5
					c1.2,0.5,2.5,0.9,3.7,1.3c0.6,0.2,1.2,0.4,1.9,0.6c0.6,0.2,1.3,0.4,1.8,0.5c2.1,0.4,3.4,2.5,3,4.6c-0.4,2.1-2.5,3.4-4.6,3
					c-0.5-0.1-0.9-0.3-1.3-0.5L277.7,229.2z"/>
				<path class="st2" d="M288.8,206.3c-0.4-0.4-1-0.8-1.5-1.1c-0.5-0.4-1-0.8-1.6-1.1c-1.1-0.7-2.2-1.5-3.3-2.2
					c-1.1-0.7-2.2-1.3-3.4-2l-3.5-2c-0.4-0.2-0.6-0.8-0.3-1.2c0.2-0.3,0.6-0.5,0.9-0.4l4,0.6c1.3,0.2,2.7,0.4,4.1,0.7
					c1.4,0.3,2.7,0.6,4.1,0.9c0.7,0.2,1.4,0.4,2,0.5c0.7,0.2,1.3,0.4,2.1,0.6l0.2,0.1c2,0.7,3.1,2.9,2.4,4.9c-0.7,2-2.9,3.1-4.9,2.4
					C289.6,206.9,289.1,206.6,288.8,206.3z"/>
				<path class="st2" d="M267.5,209.3l16.7,5c2,0.6,3.2,2.8,2.6,4.8c-0.6,2-2.8,3.2-4.8,2.6c-0.4-0.1-0.8-0.3-1.1-0.6l-14.1-10.2
					c-0.4-0.3-0.5-0.9-0.2-1.3C266.8,209.3,267.2,209.2,267.5,209.3z"/>
				<path class="st2" d="M271.1,202l16.7,5c2,0.6,3.2,2.8,2.6,4.8c-0.6,2-2.8,3.2-4.8,2.6c-0.4-0.1-0.8-0.3-1.1-0.6l-14.1-10.2
					c-0.4-0.3-0.5-0.9-0.2-1.3C270.4,202.1,270.8,201.9,271.1,202z"/>
			</g>
		</g>
		<path class="st4" d="M298.2,200.9c-1.5-0.7-2.9-1.4-4.4-1.9c-1.2-0.4-2.6-0.8-3.9-0.6c-1.6,0.2-3.1,1.1-3.8,2.5
			c-0.8,1.6-0.6,3.5,0.5,5c-1.8,0-3.5,0.9-4.3,2.5c-0.8,1.6-0.6,3.5,0.5,5c-1.8,0-3.5,0.9-4.3,2.5c-0.8,1.6-0.6,3.5,0.5,5
			c-1.8,0-3.5,0.9-4.3,2.5c-1,1.9-0.5,4.2,1.1,5.7l0,0c0,0,0.1,0.1,0.1,0.1c0.3,0.3,0.6,0.5,0.9,0.7c2,1.5,4.4,2.9,7.2,4.2
			c18.3,8.4,48,8.7,50.5,3.3c0.4-0.9,0.2-2-0.1-2.9c-0.5-1.5-1.3-2.9-2.1-4.2c-2.5-3.9-5.6-7.4-8.8-10.7c-4-4-8.2-7.8-12.8-11.1
			c-2.7-2-5.6-3.9-8.6-5.5C300.7,202.3,299.5,201.6,298.2,200.9z"/>
		<path class="st5" d="M328.1,224.7c0.2,3.1-0.4,6.2-1.9,9.1c-1.4,2.9-3.6,5.3-6.1,7"/>
		<path class="st5" d="M321.6,218.1c1.1,4.4,0.8,9.2-1.4,13.5c-2,4-5.2,7-8.9,8.8"/>
		<path class="st5" d="M314.2,211.5c2,5.4,1.8,11.5-0.9,17c-2.6,5.1-6.9,8.8-12,10.7"/>
	</g>
</g>
<g id="Tail">
	<g>
		<polygon class="st3" points="560.3,394.7 394.1,394.7 394.1,360.4 		"/>
		<polygon class="st4" points="560.3,394.7 394.1,394.7 394.1,360.4 		"/>
		<path class="st5" d="M421.1,366c1.2,3.9,1.7,8.4,1,13.2c-0.9,6.4-3.5,11.9-7.1,15.6"/>
		<path class="st5" d="M438.2,369.4c1.1,3.4,1.5,7.4,0.9,11.6c-0.8,5.6-3.1,10.5-6.2,13.7"/>
		<path class="st5" d="M454.5,372.4c1,3,1.3,6.6,0.8,10.3c-0.7,5-2.7,9.3-5.5,12.1"/>
		<path class="st5" d="M469.8,376.6c0.8,2.4,1,5.3,0.6,8.3c-0.6,4-2.2,7.5-4.4,9.8"/>
		<path class="st5" d="M483.7,379c0.7,2.1,0.9,4.6,0.5,7.2c-0.5,3.5-1.9,6.5-3.9,8.5"/>
		<path class="st5" d="M495.4,381.1c0.6,1.8,0.8,4,0.5,6.3c-0.4,3-1.7,5.7-3.4,7.4"/>
		<path class="st5" d="M505.7,383.6c0.5,1.5,0.6,3.3,0.4,5.1c-0.3,2.5-1.4,4.6-2.7,6.1"/>
		<path class="st5" d="M515.6,385.1c0.4,1.3,0.6,2.8,0.3,4.4c-0.3,2.1-1.2,4-2.4,5.2"/>
		<path class="st5" d="M525.3,387.5c0.3,1,0.4,2.1,0.3,3.4c-0.2,1.6-0.9,3-1.8,4"/>
		<path class="st5" d="M403.9,362.7c1.4,4.2,1.8,9.2,1.1,14.4c-1,7-3.9,13-7.7,17"/>
		<path class="st5" d="M534.7,389.9c0.2,0.6,0.2,1.2,0.1,1.9c-0.1,0.9-0.5,1.7-1,2.2"/>
	</g>
</g>
<g id="Body">
	<g>
		<path class="st6" d="M307,219.5c-65.5-19.8-129.3,4.8-181.4,44.9c-20.7,15.9-39.8,33.6-57.9,52.4c0.8,0.5,1.5,1.1,2.3,1.7
			c8.7,7.2,12.8,16.6,9.2,20.9c-3.6,4.4-13.6,2.1-22.3-5.1c-1.1-0.9-2-1.8-3-2.7c-14.4,16-28.1,32.7-41.1,49.8
			c-4.4,5.8-4.4,17.3,2.9,17.3c36.1-0.1,122.4-2.9,200.9-2.9c102.5,0,185.6,0.7,185.6-60C402.3,279.3,358.9,235.2,307,219.5z"/>
	</g>
	<g>
		<g>
			<path class="st7" d="M307,219.5c-65.5-19.8-129.3,4.8-181.4,44.9c-20.7,15.9-39.8,33.6-57.9,52.4c0.8,0.5,1.5,1.1,2.3,1.7
				c8.7,7.2,12.8,16.6,9.2,20.9c-3.6,4.4-13.6,2.1-22.3-5.1c-1.1-0.9-2-1.8-3-2.7c-14.4,16-28.1,32.7-41.1,49.8
				c-4.4,5.8-4.4,17.4,2.9,17.3c37.9-0.7,122.4-2.9,200.9-2.9c102.5,0,185.6,0.7,185.6-60C402.3,279.3,358.9,235.2,307,219.5z"/>
		</g>
	</g>
	<polyline class="st8" points="100,321.8 96.8,339.1 106.3,321.8 106.3,337.6 110.9,327 113.4,336 	"/>
	<path class="st0" d="M407.9,394.7l-393.4,3.9c-4.2,0-3-2.1,0.7-3.9c23.9-10.5,47.8-20.9,71.7-31.4c39-17.1,77.2-35.5,117.9-48.7
		c40.1-13,81.9-22,124.2-23.3c4.1-0.1,8.3-0.2,12.4-0.2c18.5,0.1,37.4,2.7,55.7-0.5c2-0.3,22.2-6.5,21.6-7.4
		c21.1,30.2,20.4,70.1-1.9,99.6L407.9,394.7z"/>
	<g>
		<path class="st9" d="M24.1,390.2c2.2,2.3,4,5.5,4.7,9.3l-4-0.7C25.3,396,25.1,393,24.1,390.2z"/>
		<path class="st9" d="M38.9,384.5c1.8,1.6,3.4,3.8,4.4,6.3c1.1,2.5,1.7,5.4,1.8,8.3l-4.8-1.2c0.6-2.2,0.8-4.6,0.6-6.9
			C40.6,388.8,40,386.5,38.9,384.5z"/>
		<path class="st9" d="M51.5,379c2,2.6,3.7,5.7,4.9,9.1c0.6,1.7,1.1,3.4,1.4,5.3c0.3,1.9,0.3,3.9,0.4,5.6l-4.8-1.1
			c0.4-1.6,0.7-3.2,0.8-4.8c0.1-1.6,0-3.2-0.1-4.8C53.6,385.1,52.8,381.9,51.5,379z"/>
		<path class="st9" d="M65.8,371.7c3,3.5,5.5,7.6,7.3,12.2c0.9,2.3,1.7,4.7,2.3,7.2c0.6,2.5,0.8,5.3,1,7.8l-6.5-1.1
			c0.4-2.2,0.6-4.4,0.6-6.7c0-2.2-0.2-4.5-0.6-6.7C69.2,380,67.8,375.7,65.8,371.7z"/>
		<path class="st9" d="M88.4,362.3c1.7,2.5,3.3,5.2,4.7,8c1.4,2.8,2.5,5.8,3.4,9c1.8,6.3,2.5,12.9,2.2,19.7l-6.4-1.3
			c1.2-5.9,1.6-12,0.9-18c-0.3-3-0.9-6-1.7-8.9C90.7,367.9,89.6,365.1,88.4,362.3z"/>
		<path class="st9" d="M112.3,352.3c1.2,1.5,2.4,3.1,3.5,4.8c1.1,1.7,2.1,3.4,3,5.3c1.8,3.7,3.1,7.6,4.2,11.6c0.5,2,1,4,1.4,6
			c0.4,2.1,0.7,4.2,0.9,6.3c0.4,4.3,0.4,7,0,11.3l-7.2-0.1c0.9-3.8,1.4-7.6,1.6-11.5c0.2-3.9-0.1-7.8-0.5-11.6
			c-0.4-3.9-1.1-7.7-2.3-11.4c-0.6-1.9-1.3-3.7-2.1-5.4C114.2,355.8,113.3,354,112.3,352.3z"/>
		<path class="st9" d="M135.6,342.2c1.5,1.9,2.8,3.8,4.2,5.9c1.3,2,2.5,4.1,3.6,6.3c2.2,4.4,4,9.1,5.3,13.9c0.6,2.4,1.2,4.9,1.6,7.3
			c0.4,2.5,0.8,5,1,7.6c0.4,5.1,0.3,8.7-0.3,13.9l-7.2-0.1c1.1-4.6,1.8-9.3,2-14.1c0.2-4.7-0.1-9.5-0.7-14.2
			c-0.6-4.7-1.8-9.3-3.4-13.8c-0.8-2.2-1.7-4.4-2.7-6.6C137.9,346.3,136.8,344.2,135.6,342.2z"/>
		<path class="st9" d="M167.5,328.2c1.7,2.4,3.3,4.9,4.8,7.4c1.5,2.6,2.9,5.2,4.2,7.9c2.5,5.4,4.6,11.2,6.1,17.1
			c0.7,3,1.3,6,1.8,9.1c0.5,3.1,0.7,6.2,0.9,9.4c0.3,6.3-0.1,12.7-1.1,19l-8.7-2.4c1.6-5.6,2.6-11.3,3.1-17.1
			c0.2-2.9,0.3-5.8,0.2-8.7c0-2.9-0.3-5.8-0.6-8.7c-0.7-5.8-2-11.5-3.8-17c-0.9-2.8-1.9-5.5-3.1-8.2
			C170.1,333.4,168.8,330.8,167.5,328.2z"/>
		<path class="st9" d="M202.2,315.1c4.7,5.4,9.1,11.2,12.8,17.6c3.7,6.4,6.7,13.3,8.6,20.7c1.9,7.5,2.5,15.3,2.1,23
			c-0.3,7.7-1.6,12.9-3.6,20.5l-8.4-0.7c2.5-6.7,4.4-13.6,5.4-20.7c1-7.1,1.1-14.3,0.1-21.4c-1-7.1-3.2-14-6.2-20.5
			C210,327.1,206.3,320.9,202.2,315.1z"/>
		<path class="st9" d="M246.1,302.8c4.8,6.4,9.1,13.3,12.6,20.6c3.5,7.3,6.4,15.1,8.2,23.3c0.9,4.1,1.6,8.3,2,12.5
			c0.4,4.2,0.5,8.5,0.3,12.7c-0.3,8.5-1.4,15.3-3.4,23.6l-8.5-1.2c2.5-7.6,4.3-15.4,5.2-23.3c0.9-7.9,1-15.9-0.1-23.8
			c-1-7.9-3.1-15.6-5.9-23.1C253.9,316.7,250.3,309.5,246.1,302.8z"/>
		<path class="st9" d="M292,294.5c5.3,6.9,9.9,14.4,13.7,22.4c3.8,8,7,16.4,9,25.4c1,4.4,1.8,9,2.1,13.6c0.4,4.6,0.5,9.2,0.4,13.8
			c-0.3,9.2-1.6,16.8-3.7,25.9l-9.3-1.4c2.7-8.2,4.7-16.7,5.7-25.3c1-8.6,1.1-17.3-0.1-25.9c-1.1-8.6-3.4-17-6.4-25.1
			C300.4,309.6,296.6,301.8,292,294.5z"/>
		<path class="st9" d="M350.2,292.2c4.6,7.5,8.8,15.4,12.1,23.8c3.2,8.4,5.6,17.3,6.7,26.6c1.1,9.3,0.8,18.7-0.5,27.9
			c-1.2,9.3-3.5,15.2-6.5,24.1l-9-0.7c3.5-8.1,6.4-16.4,8.3-25c2-8.6,3-17.4,2.7-26.2c-0.2-8.8-1.7-17.5-4.1-26
			C357.5,308.3,354.1,300.1,350.2,292.2z"/>
		<path class="st9" d="M400.7,290.2c4.1,8,7.5,16.4,10.1,25.1c2.5,8.8,4.2,17.9,4.6,27.3c0.4,9.4-0.6,18.9-2.6,28.1
			c-2,9.2-4.1,15-7.9,23.8l-8.8-0.9c4.2-7.9,7.6-16.2,10.2-24.7c2.6-8.6,4.2-17.4,4.5-26.3c0.4-8.9-0.6-17.9-2.3-26.6
			C406.8,307,404.1,298.4,400.7,290.2z"/>
	</g>
	<path class="st10" d="M407.9,394.7l-393.4,3.9c-4.2,0-3-2.1,0.7-3.9c23.9-10.5,47.8-20.9,71.7-31.4c39-17.1,77.2-35.5,117.9-48.7
		c40.1-13,81.9-22,124.2-23.3c4.1-0.1,8.3-0.2,12.4-0.2c18.5,0.1,37.4,2.7,55.7-0.5c2-0.3,22.2-6.5,21.6-7.4
		c21.1,30.2,20.4,70.1-1.9,99.6L407.9,394.7z"/>
	<g>
		<path class="st11" d="M318.5,259.9c0,1,0,2-0.1,3.1c-0.2,2.4-0.7,5-2.1,8.2"/>
		<path class="st11" d="M331.7,258.4c0.1,2.7,0,5.6-0.4,8.7c-0.1,1-0.3,2.1-0.5,3.2c-0.5,2.5-1.2,5.3-2.6,8.5"/>
		<path class="st11" d="M324.6,258.4c0.1,2.2-0.1,4.6-0.4,7.1c-0.1,0.8-0.2,1.7-0.4,2.7c-0.4,2-0.9,4.4-2,7"/>
	</g>
	<path class="st11" d="M197.2,224.1c2.1,0.5,4.4,1.3,6.7,2.4c0.8,0.3,1.6,0.7,2.4,1.2c1.8,1,3.8,2.2,6,4"/>
	<path class="st11" d="M206.1,221.2c3.2,0.8,6.6,2,10,3.5c4.9,2.2,9.2,5,12.6,7.8"/>
	<path class="st11" d="M169.3,284.8c-0.8,0.3-1.6,0.6-2.5,1c-1.9,0.7-4.2,1.3-7.1,1.6"/>
	<path class="st11" d="M175.5,287.9c-2.3,1.4-5,2.6-7.8,3.7c-1,0.4-2,0.7-3.1,1c-2.4,0.7-5.2,1.4-8.7,1.6"/>
	<g>
		<g>
			<path class="st12" d="M24.4,390.4c0.6,1.7,0.9,3.6,0.9,5.5c0,1.1-0.1,2.1-0.3,3.1"/>
			<path class="st12" d="M39.2,384.7c2.3,4.2,2.6,9,1.4,13.4"/>
			<path class="st12" d="M51.8,379.2c1.7,4,2.6,8.2,2.6,12.5c0,2.5-0.3,4-0.8,6.4"/>
			<path class="st12" d="M66.1,371.9c2.6,5.3,4.2,11,4.6,17c0.2,3.4,0,5.9-0.5,9.1"/>
			<path class="st12" d="M88.7,362.6c3.2,7.2,5,14.1,5.2,22.1c0.1,4.5-0.3,8.9-1.2,13.2"/>
			<path class="st12" d="M112.6,352.6c5.4,9.3,6.9,17.5,7.5,27.9c0.3,5.8-0.3,11.6-1.6,17.3"/>
			<path class="st12" d="M135.9,342.4c6.5,11.1,9.5,21.5,10.1,34c0.4,7-0.3,14-1.9,20.8"/>
			<path class="st12" d="M167.8,328.4c7.2,13.6,11.1,27.9,11.2,42.9c0.1,8.4-1.1,16.6-3.3,24.6"/>
			<path class="st12" d="M202.5,315.3c9.8,13.9,17,29.2,17.6,46.2c0.4,11.7-2,23.9-6.1,34.9"/>
			<path class="st12" d="M246.4,303c9.5,15.3,16.5,34.5,17.1,53.2c0.4,12.9-1.9,26.3-5.9,38.3"/>
			<path class="st12" d="M292.3,294.7c10.4,16.6,18,37.5,18.7,57.8c0.5,14-2.1,28.7-6.5,41.8"/>
			<path class="st12" d="M350.5,292.4c9,18.2,15,37.9,13.7,59.1c-0.9,14.6-5.1,29.5-10.9,42.7"/>
			<path class="st12" d="M401,290.4c7.7,18.8,12.3,40.5,9.4,61.5c-2,14.5-7.2,29.1-14,41.9"/>
		</g>
	</g>
</g>
<g id="breath">
	<line class="st13" x1="47.7" y1="311.4" x2="60.1" y2="323.4"/>
	<line class="st13" x1="58.2" y1="311.4" x2="63.4" y2="319.5"/>
	<line class="st13" x1="47.7" y1="322.2" x2="56.3" y2="327.1"/>
</g>
<g id="eye">
	<path class="st13" d="M75.7,360.4c0.8-5.7,5.7-10.1,11.6-10.1c1.5,0,2.9,0.3,4.2,0.8"/>
</g>
<g id="Front_Foreground_Foot">
	<g>
		<path class="st0" d="M133.3,187.7c0.2-0.4,0.8-0.1,0.7,0.3c-0.8,3-1.6,6-2.3,9c-0.4,2-0.8,3.9-1.1,5.9c-0.3,2-0.5,3.9-0.6,5.9
			l-0.1,1.5l0,1.5l0.1,3c0.1,2,0.1,4,0.1,6.1c0,4-0.2,8.1-0.8,12.1l-5.5-0.1c-0.2-4.1-0.1-8.2,0.2-12.2c0.2-2,0.3-4.1,0.5-6.1
			l0.3-3.1c0.1-1.1,0.3-2.1,0.5-3.1c0.8-4.2,2.1-8.2,3.7-12C130.4,193.3,131.8,190.5,133.3,187.7z"/>
		<path class="st1" d="M128.9,225.2c-1.7,0-3.4-0.3-4.9-0.9c-0.2,3.5-0.3,7-0.1,10.5l5.5,0.1c0.4-3.3,0.6-6.6,0.7-9.9
			C129.7,225.2,129.3,225.2,128.9,225.2z"/>
		<path class="st2" d="M133.3,187.7c0.2-0.4,0.8-0.1,0.7,0.3c-0.8,3-1.6,6-2.3,9c-0.4,2-0.8,3.9-1.1,5.9c-0.3,2-0.5,3.9-0.6,5.9
			l-0.1,1.5l0,1.5l0.1,3c0.1,2,0.1,4,0.1,6.1c0,4-0.2,8.1-0.8,12.1l-5.5-0.1c-0.2-4.1-0.1-8.2,0.2-12.2c0.2-2,0.3-4.1,0.5-6.1
			l0.3-3.1c0.1-1.1,0.3-2.1,0.5-3.1c0.8-4.2,2.1-8.2,3.7-12C130.4,193.3,131.8,190.5,133.3,187.7z"/>
		<path class="st0" d="M142,184.2c0.3-0.5,1-0.2,0.9,0.3c-0.8,3.5-1.6,6.9-2.3,10.3c-0.5,2.2-0.9,4.3-1.3,6.4
			c-0.2,1.1-0.4,2.1-0.5,3.2c-0.1,1.1-0.2,2-0.3,3.1c-0.1,2.1-0.2,4.3-0.2,6.4c0,2.2,0,4.4-0.1,6.6c-0.1,4.4-0.4,8.8-1.1,13.1
			l-7.9-0.3c-0.4-4.5-0.2-9,0.3-13.4c0.2-2.2,0.6-4.5,1-6.7c0.4-2.2,0.8-4.5,1.4-6.8c1.2-4.7,3.1-8.8,5-12.9
			C138.5,190.4,140.2,187.3,142,184.2z"/>
		<path class="st1" d="M131.6,225.2c-0.9-0.1-1.7-0.4-2.4-0.8c-0.3,3.8-0.4,7.6-0.1,11.5l7.9,0.3c0.7-4.1,0.9-8.4,1-12.5
			C136,224.9,133.8,225.5,131.6,225.2z"/>
		<path class="st2" d="M142,184.2c0.3-0.5,1-0.2,0.9,0.3c-0.8,3.5-1.6,6.9-2.3,10.3c-0.5,2.2-0.9,4.3-1.3,6.4
			c-0.2,1.1-0.4,2.1-0.5,3.2c-0.1,1.1-0.2,2-0.3,3.1c-0.1,2.1-0.2,4.3-0.2,6.4c0,2.2,0,4.4-0.1,6.6c-0.1,4.4-0.4,8.8-1.1,13.1
			l-7.9-0.3c-0.4-4.5-0.2-9,0.3-13.4c0.2-2.2,0.6-4.5,1-6.7c0.4-2.2,0.8-4.5,1.4-6.8c1.2-4.7,3.1-8.8,5-12.9
			C138.5,190.4,140.2,187.3,142,184.2z"/>
		<path class="st0" d="M152,181.4c0.3-0.5,1.1-0.1,0.9,0.4c-0.9,3.9-1.9,7.7-2.7,11.5c-0.5,2.3-0.9,4.6-1.3,6.8
			c-0.1,0.6-0.2,1.1-0.2,1.7l-0.2,1.6c-0.1,1.1-0.1,2.1-0.1,3.3c-0.1,4.5,0.2,9.2,0.2,13.8c0,2.3,0,4.7-0.1,7
			c-0.1,2.3-0.3,4.7-0.7,7l-10.2,0c-0.4-2.5-0.5-4.8-0.5-7.3c0-2.4,0.1-4.8,0.3-7.2c0.2-2.4,0.6-4.8,1-7.3c0.4-2.4,0.9-4.9,1.5-7.3
			c0.3-1.2,0.7-2.5,1.1-3.7l0.6-1.8c0.2-0.6,0.5-1.2,0.7-1.8c1-2.3,2.1-4.5,3.3-6.7C147.5,188,149.6,184.6,152,181.4z"/>
		<path class="st1" d="M143.6,224.7c-2.6,0.1-5.3-0.6-6.2-1.8c-0.5,1.5-0.4,3.6-0.3,5.2c0,2.4,0.1,4.8,0.5,7.3l10.2,0
			c0.4-2.3,0.6-4.7,0.7-7c0.1-2.1,0.2-4.2,0.1-6.3C148.4,224.2,145.4,224.6,143.6,224.7z"/>
		<path class="st2" d="M152,181.4c0.3-0.5,1.1-0.1,0.9,0.4c-0.9,3.9-1.9,7.7-2.7,11.5c-0.5,2.3-0.9,4.6-1.3,6.8
			c-0.1,0.6-0.2,1.1-0.2,1.7l-0.2,1.6c-0.1,1.1-0.1,2.1-0.1,3.3c-0.1,4.5,0.2,9.2,0.2,13.8c0,2.3,0,4.7-0.1,7
			c-0.1,2.3-0.3,4.7-0.7,7l-10.2,0c-0.4-2.5-0.5-4.8-0.5-7.3c0-2.4,0.1-4.8,0.3-7.2c0.2-2.4,0.6-4.8,1-7.3c0.4-2.4,0.9-4.9,1.5-7.3
			c0.3-1.2,0.7-2.5,1.1-3.7l0.6-1.8c0.2-0.6,0.5-1.2,0.7-1.8c1-2.3,2.1-4.5,3.3-6.7C147.5,188,149.6,184.6,152,181.4z"/>
		<path class="st0" d="M166.6,186.4c0.6-0.6,1.6,0,1.4,0.8l-0.9,4l-1.4,6.6c-0.8,4.3-1.5,8.6-1.8,12.7c0,1-0.1,2-0.1,2.9l0.1,3
			c0.1,2.2,0.2,4.3,0.2,6.5c0,2.1-0.1,4.3-0.2,6.4c-0.1,1.2-0.2,2.4-0.4,3.6c-0.1,0.4-0.1,0.9-0.2,1.3c-0.1,0.4-0.2,0.9-0.3,1.2
			l-14.1,0.7c-0.2-0.8-0.3-1.3-0.4-1.9c-0.1-0.6-0.2-1.2-0.2-1.8c-0.1-1.2-0.2-2.4-0.2-3.6c0-2.4,0.2-4.7,0.5-7
			c0.3-2.3,0.8-4.6,1.4-6.9c0.1-0.6,0.3-1.1,0.4-1.8l0.5-1.9c0.2-0.6,0.4-1.2,0.6-1.8c0.2-0.6,0.4-1.2,0.7-1.8
			c1.9-4.6,4.4-8.7,7.1-12.5c1.4-1.9,2.8-3.7,4.4-5.5C164.7,188.4,165.7,187.4,166.6,186.4z"/>
		<path class="st1" d="M156.4,225c-2.7,0-7.2-1.3-7.7-2.7c0,0.2-0.1,0.4-0.1,0.6c-0.3,2.3-0.5,4.6-0.5,7c0,1.2,0.1,2.4,0.2,3.6
			c0.1,0.6,0.1,1.2,0.2,1.8c0.1,0.6,0.2,1.2,0.4,1.9l14.1-0.7c0.1-0.3,0.2-0.8,0.3-1.2c0.1-0.4,0.2-0.9,0.2-1.3
			c0.2-1.2,0.3-2.4,0.4-3.6c0.2-2.1,0.2-4.2,0.2-6.4c0-0.6,0-1.2,0-1.7C163,223.7,159.1,225,156.4,225z"/>
		<path class="st2" d="M166.6,186.4c0.6-0.6,1.6,0,1.4,0.8l-0.9,4l-1.4,6.6c-0.8,4.3-1.5,8.6-1.8,12.7c0,1-0.1,2-0.1,2.9l0.1,3
			c0.1,2.2,0.2,4.3,0.2,6.5c0,2.1-0.1,4.3-0.2,6.4c-0.1,1.2-0.2,2.4-0.4,3.6c-0.1,0.4-0.1,0.9-0.2,1.3c-0.1,0.4-0.2,0.9-0.3,1.2
			l-14.1,0.7c-0.2-0.8-0.3-1.3-0.4-1.9c-0.1-0.6-0.2-1.2-0.2-1.8c-0.1-1.2-0.2-2.4-0.2-3.6c0-2.4,0.2-4.7,0.5-7
			c0.3-2.3,0.8-4.6,1.4-6.9c0.1-0.6,0.3-1.1,0.4-1.8l0.5-1.9c0.2-0.6,0.4-1.2,0.6-1.8c0.2-0.6,0.4-1.2,0.7-1.8
			c1.9-4.6,4.4-8.7,7.1-12.5c1.4-1.9,2.8-3.7,4.4-5.5C164.7,188.4,165.7,187.4,166.6,186.4z"/>
		<g>
			<g>
				<path class="st3" d="M164.3,223.9c0,0.2,0,0.4,0,0.5c0,3.8-3.7,7-8.3,7c-4.6,0-8.3-3.1-8.3-7c0,3.8-2.2,7-5,7c-2.7,0-5-3.1-5-7
					c0,3.8-2,7-4.5,7s-4.5-3.1-4.5-7c0-0.2,0-0.5,0-0.5l0,0c0,0.5,0,0.9,0,1.3c0,3.4-1.9,6.2-3.6,6.2c-0.4,0-0.9-0.2-1.2-0.5
					c-0.2,16.5,0.7,56.6,14.9,60.5c13.4,3.7,22.9-23.3,24.9-44.6s0.4-22.9,0.4-22.9H164.3z"/>
			</g>
		</g>
		<g>
			<g>
				<path class="st4" d="M164.6,223.9c0,0.2,0,0.4,0,0.5c0,3.8-3.7,7-8.3,7c-4.6,0-8.3-3.1-8.3-7c0,3.8-2.2,7-5,7c-2.7,0-5-3.1-5-7
					c0,3.8-2,7-4.5,7s-4.5-3.1-4.5-7c0-0.2,0-0.5,0-0.5l0,0c0,0.5,0,0.9,0,1.3c0,3.4-1.9,6.2-3.6,6.2c-0.4,0-0.9-0.2-1.2-0.5
					c-0.2,16.5,0.7,56.6,14.9,60.5c13.4,3.7,22.9-23.3,24.9-44.6c2-21.3,0.4-22.9,0.4-22.9H164.6z"/>
			</g>
		</g>
		<path class="st5" d="M125,256.6c0,0,2.4,8.9,18.2,6.5c15.7-2.3,21.1-14.1,21.1-14.1"/>
		<path class="st5" d="M126.9,268c0,0,2.2,7.6,16.1,5.6c13.9-2,18.7-12,18.7-12"/>
		<path class="st5" d="M129.7,279.7c0,0,1.7,5.8,12.8,4.2c11.1-1.5,14.9-9.2,14.9-9.2"/>
	</g>
</g>
<g id="Back_Foreground_foot">
	<g>
		<g>
			<path class="st0" d="M277.6,269.5c-0.9-0.2-1.7-0.4-2.5-0.5c-0.8-0.2-1.6-0.4-2.4-0.6c-1.6-0.4-3.2-0.9-4.8-1.4
				c-1.6-0.5-3.1-1.1-4.6-1.6l-4.5-1.7c-0.6-0.2-0.8-0.8-0.6-1.4c0.2-0.4,0.6-0.7,1-0.7l4.8,0c1.6,0,3.2,0,4.7-0.1
				c1.6-0.1,3.1-0.2,4.6-0.3c0.8-0.1,1.5-0.2,2.3-0.3c0.7-0.1,1.5-0.2,2.2-0.3c2.5-0.5,4.9,1.1,5.4,3.6c0.5,2.5-1.1,4.9-3.6,5.4
				c-0.6,0.1-1.1,0.1-1.7,0L277.6,269.5z"/>
			<path class="st0" d="M278.8,239.3c-0.6-0.2-1.4-0.4-2.1-0.6c-0.7-0.2-1.5-0.3-2.3-0.5c-1.5-0.3-3-0.6-4.6-0.8
				c-1.5-0.2-3.1-0.4-4.7-0.6l-4.8-0.5c-0.6-0.1-1-0.6-0.9-1.2c0.1-0.5,0.4-0.8,0.8-0.9l4.7-1.2c1.5-0.4,3.1-0.8,4.8-1.1
				c1.6-0.3,3.2-0.7,4.9-0.9c0.8-0.1,1.6-0.3,2.5-0.4c0.9-0.1,1.6-0.2,2.6-0.3l0.3,0c2.5-0.2,4.7,1.7,4.9,4.2s-1.7,4.7-4.2,4.9
				C279.9,239.6,279.3,239.5,278.8,239.3z"/>
			<path class="st0" d="M257,252.6l20.6-2.4c2.5-0.3,4.8,1.5,5.1,4c0.3,2.5-1.5,4.8-4,5.1c-0.5,0.1-1,0-1.5-0.1l-20.3-4.5
				c-0.6-0.1-0.9-0.7-0.8-1.3C256.2,253,256.6,252.6,257,252.6z"/>
			<path class="st0" d="M257.5,243l20.6-2.4c2.5-0.3,4.8,1.5,5.1,4c0.3,2.5-1.5,4.8-4,5.1c-0.5,0.1-1,0-1.5-0.1l-20.3-4.5
				c-0.6-0.1-0.9-0.7-0.8-1.3C256.7,243.4,257,243,257.5,243z"/>
		</g>
		<g>
			<g>
				<path class="st1" d="M274.2,268.7c0.8,0.2,1.6,0.4,2.4,0.6c0.8,0.2,1.6,0.4,2.5,0.5l0.3,0c0.5,0.1,1.1,0.1,1.7,0
					c2.5-0.5,4.1-2.9,3.6-5.4c-0.5-2.5-2.9-4.1-5.4-3.6c-0.6,0.1-1.4,0.2-2.2,0.3c-0.8,0.1-1.5,0.2-2.3,0.3
					c-1.5,0.1-3.1,0.3-4.6,0.3c-0.7,0-1.3,0-2,0.1c-0.5,0.7-0.7,1.6-0.8,2.5c-0.1,0.9,0.1,1.7,0.4,2.4c0.5,0.2,1,0.4,1.6,0.5
					C271,267.8,272.6,268.2,274.2,268.7z"/>
				<path class="st1" d="M276,238.6c0.8,0.2,1.5,0.3,2.3,0.5c0.7,0.2,1.5,0.4,2.1,0.6c0.5,0.2,1.1,0.2,1.7,0.2
					c2.5-0.2,4.4-2.4,4.2-4.9c-0.2-2.5-2.4-4.4-4.9-4.2l-0.3,0c-1,0.1-1.7,0.2-2.6,0.3c-0.8,0.1-1.7,0.2-2.5,0.4
					c-1.6,0.3-3.3,0.6-4.9,0.9c-0.5,0.1-1,0.2-1.5,0.3c-0.2,0.5-0.4,1.1-0.4,1.7c-0.1,1.2,0.3,2.3,0.9,3.3c0.4,0.1,0.8,0.1,1.2,0.2
					C273,238,274.5,238.3,276,238.6z"/>
				<path class="st1" d="M280.3,259.6c2.5-0.3,4.3-2.6,4-5.1c-0.3-2.5-2.6-4.3-5.1-4l-10.2,1.2c-0.5,0.8-0.8,1.6-0.9,2.6
					c-0.1,1.1,0.2,2.1,0.7,3l10,2.2C279.2,259.6,279.8,259.6,280.3,259.6z"/>
				<path class="st1" d="M280.8,250c2.5-0.3,4.3-2.6,4-5.1c-0.3-2.5-2.6-4.3-5.1-4l-10.3,1.2c-0.4,0.7-0.6,1.4-0.6,2.2
					c-0.1,1.3,0.3,2.5,1,3.5l9.5,2.1C279.7,250,280.2,250,280.8,250z"/>
			</g>
		</g>
		<path class="st3" d="M287.3,229c-1.9-0.1-3.9-0.1-5.8,0c-1.6,0.1-3.1,0.4-4.5,1.1c-1.7,0.9-2.8,2.6-3,4.5c-0.1,2.1,1,4.1,2.9,5.2
			c-2,0.9-3.4,2.7-3.5,4.8c-0.1,2.1,1,4.1,2.9,5.2c-2,0.9-3.4,2.7-3.5,4.8c-0.1,2.1,1,4.1,2.9,5.2c-2,0.9-3.4,2.7-3.5,4.8
			c-0.2,2.5,1.5,4.8,3.9,5.7l0,0c0.1,0,0.1,0,0.2,0c0.4,0.1,0.8,0.3,1.3,0.3c2.9,0.7,6.1,1.1,9.8,1.2c23.9,0.6,56.5-13.2,56.7-20.3
			c0-1.2-0.8-2.2-1.5-3.1c-1.2-1.4-2.8-2.5-4.3-3.6c-4.5-3.1-9.6-5.5-14.7-7.5c-6.2-2.5-12.7-4.6-19.2-6.1c-3.9-0.9-8-1.6-12-1.9
			C290.7,229.2,289,229.1,287.3,229z"/>
		<g>
			<g>
				<path class="st2" d="M277.6,269.5c-0.9-0.2-1.7-0.4-2.5-0.5c-0.8-0.2-1.6-0.4-2.4-0.6c-1.6-0.4-3.2-0.9-4.8-1.4
					c-1.6-0.5-3.1-1.1-4.6-1.6l-4.5-1.7c-0.6-0.2-0.8-0.8-0.6-1.4c0.2-0.4,0.6-0.7,1-0.7l4.8,0c1.6,0,3.2,0,4.7-0.1
					c1.6-0.1,3.1-0.2,4.6-0.3c0.8-0.1,1.5-0.2,2.3-0.3c0.7-0.1,1.5-0.2,2.2-0.3c2.5-0.5,4.9,1.1,5.4,3.6c0.5,2.5-1.1,4.9-3.6,5.4
					c-0.6,0.1-1.1,0.1-1.7,0L277.6,269.5z"/>
				<path class="st2" d="M278.8,239.3c-0.6-0.2-1.4-0.4-2.1-0.6c-0.7-0.2-1.5-0.3-2.3-0.5c-1.5-0.3-3-0.6-4.6-0.8
					c-1.5-0.2-3.1-0.4-4.7-0.6l-4.8-0.5c-0.6-0.1-1-0.6-0.9-1.2c0.1-0.5,0.4-0.8,0.8-0.9l4.7-1.2c1.5-0.4,3.1-0.8,4.8-1.1
					c1.6-0.3,3.2-0.7,4.9-0.9c0.8-0.1,1.6-0.3,2.5-0.4c0.9-0.1,1.6-0.2,2.6-0.3l0.3,0c2.5-0.2,4.7,1.7,4.9,4.2s-1.7,4.7-4.2,4.9
					C279.9,239.6,279.3,239.5,278.8,239.3z"/>
				<path class="st2" d="M257,252.6l20.6-2.4c2.5-0.3,4.8,1.5,5.1,4c0.3,2.5-1.5,4.8-4,5.1c-0.5,0.1-1,0-1.5-0.1l-20.3-4.5
					c-0.6-0.1-0.9-0.7-0.8-1.3C256.2,253,256.6,252.6,257,252.6z"/>
				<path class="st2" d="M257.5,243l20.6-2.4c2.5-0.3,4.8,1.5,5.1,4c0.3,2.5-1.5,4.8-4,5.1c-0.5,0.1-1,0-1.5-0.1l-20.3-4.5
					c-0.6-0.1-0.9-0.7-0.8-1.3C256.7,243.4,257,243,257.5,243z"/>
			</g>
		</g>
		<path class="st4" d="M286.5,229c-1.9-0.1-3.9-0.1-5.8,0c-1.6,0.1-3.1,0.4-4.5,1.1c-1.7,0.9-2.8,2.6-3,4.5c-0.1,2.1,1,4.1,2.9,5.2
			c-2,0.9-3.4,2.7-3.5,4.8c-0.1,2.1,1,4.1,2.9,5.2c-2,0.9-3.4,2.7-3.5,4.8c-0.1,2.1,1,4.1,2.9,5.2c-2,0.9-3.4,2.7-3.5,4.8
			c-0.2,2.5,1.5,4.8,3.9,5.7l0,0c0.1,0,0.1,0,0.2,0c0.4,0.1,0.8,0.3,1.3,0.3c2.9,0.7,6.1,1.1,9.8,1.2c23.9,0.6,56.5-13.2,56.7-20.3
			c0-1.2-0.8-2.2-1.5-3.1c-1.2-1.4-2.8-2.5-4.3-3.6c-4.5-3.1-9.6-5.5-14.7-7.5c-6.2-2.5-12.7-4.6-19.2-6.1c-3.9-0.9-8-1.6-12-1.9
			C289.9,229.2,288.2,229,286.5,229z"/>
		<path class="st5" d="M330.4,240.8c1.6,3.3,2.5,7,2.3,10.8c-0.2,3.9-1.4,7.4-3.4,10.5"/>
		<path class="st5" d="M320.2,236.6c3.3,4.3,5.2,9.7,4.9,15.4c-0.3,5.3-2.3,10.1-5.6,13.9"/>
		<path class="st5" d="M309,233c4.7,5,7.4,11.7,7,19c-0.3,6.8-3.4,12.9-8.1,17.3"/>
	</g>
</g>
</svg>
