<?xml version="1.0" encoding="utf-8"?>
<!-- Generator: Adobe Illustrator 22.1.0, SVG Export Plug-In . SVG Version: 6.00 Build 0)  -->
<svg version="1.1" xmlns="http://www.w3.org/2000/svg" xmlns:xlink="http://www.w3.org/1999/xlink" x="0px" y="0px"
	 viewBox="0 0 566.9 566.9" style="enable-background:new 0 0 566.9 566.9;" xml:space="preserve">
<style type="text/css">
	.st0{fill:#FACEE1;}
	.st1{fill:#E2B7CC;}
	.st2{fill:none;stroke:#EBA5BD;stroke-width:2;stroke-linecap:round;stroke-linejoin:round;stroke-miterlimit:10;}
	.st3{fill-rule:evenodd;clip-rule:evenodd;fill:#EDA5BD;}
	.st4{fill:none;stroke:#B66E87;stroke-width:3;stroke-linecap:round;stroke-linejoin:round;stroke-miterlimit:10;}
	.st5{fill:none;stroke:#B66E87;stroke-width:2;stroke-linecap:round;stroke-linejoin:round;stroke-miterlimit:10;}
	.st6{fill:none;stroke:#EBA5BD;stroke-width:2;stroke-miterlimit:10;}
	.st7{fill:#EDA5BD;}
	.st8{fill:none;stroke:#B26E85;stroke-width:3;stroke-linejoin:round;stroke-miterlimit:10;}
	.st9{fill:#FFF4EC;}
	.st10{fill:none;stroke:#DCD2C8;stroke-width:3;stroke-miterlimit:10;}
	.st11{fill:#F2B9D5;}
	.st12{fill:none;stroke:#EDA5BD;stroke-width:3;stroke-linecap:round;stroke-linejoin:round;stroke-miterlimit:10;}
	.st13{fill:none;stroke:#D9D0BF;stroke-width:2;stroke-linecap:round;stroke-miterlimit:10;}
	.st14{fill:none;stroke:#000000;stroke-width:3;stroke-linecap:round;stroke-linejoin:round;stroke-miterlimit:10;}
	.st15{fill:none;stroke:#000000;stroke-width:3;stroke-linecap:round;stroke-miterlimit:10;}
</style>
<g id="front_background_paw">
	<g>
		<g>
			<path class="st0" d="M146.9,383.3l-0.3-16.2c-3.9-0.9-7.6-1-11.4-1c-3.8,0-7.5,0.3-11.3,0.8c-3.7,0.5-7.5,1.3-11.2,2.1
				c-1.9,0.4-3.7,0.8-5.6,1.3c-1.9,0.4-3.7,0.9-5.6,1.4c-1.9,0.5-3.7,1-5.6,1.6c-1.8,0.6-3.6,1.1-5.4,1.6c-3.6,1.1-7.1,2.3-10.7,3.5
				c-7.1,2.4-14.1,5.1-21.1,8.2c18.8-3.3,46.8-7,71.4-5.6C137,381.4,142.5,382.2,146.9,383.3z"/>
			<path class="st1" d="M81.3,389.6c3.8,0.3,7.5,0.6,11.3,0.9c1.9,0.1,3.8,0.2,5.6,0.3l5.4,0.4l10.9,0.8c3.6,0.3,7.3,0.5,10.9,0.6
				c3.6,0.1,7.2,0,10.9-0.3c3.6-0.3,7.3-0.7,10.8-1.7l-0.1-7.2c-4.4-1.1-9.9-1.9-16.6-2.3c-24.7-1.5-52.6,2.3-71.4,5.6
				c-0.1,0-0.1,0.1-0.2,0.1C66.2,388,73.8,388.9,81.3,389.6z"/>
			<path class="st2" d="M146.5,382.8l-0.3-16.2c-3.9-0.9-7.6-1-11.4-1c-3.8,0-7.5,0.3-11.3,0.8c-3.7,0.5-7.5,1.3-11.2,2.1
				c-1.9,0.4-3.7,0.8-5.6,1.3c-1.9,0.4-3.7,0.9-5.6,1.4c-1.9,0.5-3.7,1-5.6,1.6c-1.8,0.6-3.6,1.1-5.4,1.6c-3.6,1.1-7.1,2.3-10.7,3.5
				c-7.1,2.4-14.1,5.1-21.1,8.2c-0.1,0-0.1,0.1-0.2,0.1c7.6,1.4,15.1,2.3,22.7,2.9c3.8,0.3,7.5,0.6,11.3,0.9
				c1.9,0.1,3.8,0.2,5.6,0.3l5.4,0.4l10.9,0.8c3.6,0.3,7.3,0.5,10.9,0.6c3.6,0.1,7.2,0,10.9-0.3c3.6-0.3,7.3-0.7,10.8-1.7
				L146.5,382.8z"/>
			<path class="st3" d="M99.8,370.1c16.5-4.4,33.4-7.4,50.4-9.1c16.8-1.6,34.5-1.7,50,5.7c5.9,2.8,12.8,8,11.6,15.4
				c-1.1,6.8-8.7,10.8-14.5,12.9c-15.3,5.5-34.3,2.2-50.1,0.7c-10.7-1-21.4-2.2-32.1-3.7c0,0-0.2,0-0.2,0c0,0,4-3.7,2.3-10.1
				C115.5,375.4,99.8,370.1,99.8,370.1z"/>
			<path class="st4" d="M99.8,370.1c16.5-4.4,33.4-7.4,50.4-9.1c16.8-1.6,34.5-1.7,50,5.7c5.9,2.8,12.8,8,11.6,15.4
				c-1.1,6.8-8.7,10.8-14.5,12.9c-15.3,5.5-34.3,2.2-50.1,0.7c-10.7-1-21.4-2.2-32.1-3.7c0,0-0.2,0-0.2,0c0,0,4-3.7,2.3-10.1
				C115.5,375.4,99.8,370.1,99.8,370.1z"/>
			<path class="st5" d="M155.7,360.2c0,0,10.6,6.6,11.8,18.3c1.2,11.7-4.7,18.8-4.7,18.8"/>
			<path class="st5" d="M174.6,360.8c0,0,8.3,5.4,8.9,16.3c0.7,12.6-6,20.9-6,20.9"/>
			<path class="st5" d="M194.2,364.2c0,0,6.7,8.7,4.9,18.6c-1.7,9.9-5.8,13.4-5.8,13.4"/>
		</g>
		<path class="st0" d="M146.7,383.5l-1.4-16.1c-3.9-0.6-7.6-0.5-11.4-0.3c-3.8,0.3-7.5,0.8-11.2,1.5c-3.7,0.7-7.4,1.8-11,2.8
			c-1.8,0.5-3.7,1.1-5.5,1.7c-1.8,0.6-3.7,1.2-5.5,1.8c-1.8,0.6-3.7,1.3-5.5,2c-1.7,0.7-3.5,1.3-5.2,2c-3.5,1.4-7,2.8-10.5,4.2
			c-6.9,2.9-13.7,6-20.5,9.5c18.6-4.6,46.2-10.2,70.9-10.3C136.7,382.2,142.2,382.7,146.7,383.5z"/>
		<path class="st1" d="M81.6,394.1c3.8,0.1,7.5,0.1,11.3,0.1c1.9,0,3.8,0,5.6-0.1l5.4,0l10.9,0c3.6,0,7.3,0.1,10.9-0.1
			c3.6-0.2,7.2-0.5,10.8-1c3.6-0.6,7.2-1.2,10.6-2.5l-0.6-7.2c-4.5-0.8-10-1.3-16.7-1.2c-24.7,0.2-52.4,5.8-70.9,10.3
			c-0.1,0-0.1,0.1-0.2,0.1C66.5,393.6,74,393.9,81.6,394.1z"/>
		<path class="st2" d="M146.2,383l-1.4-16.1c-3.9-0.6-7.6-0.5-11.4-0.3c-3.8,0.3-7.5,0.8-11.2,1.5c-3.7,0.7-7.4,1.8-11,2.8
			c-1.8,0.5-3.7,1.1-5.5,1.7c-1.8,0.6-3.7,1.2-5.5,1.8c-1.8,0.6-3.7,1.3-5.5,2c-1.7,0.7-3.5,1.3-5.2,2c-3.5,1.4-7,2.8-10.5,4.2
			c-6.9,2.9-13.7,6-20.5,9.5c-0.1,0-0.1,0.1-0.2,0.1c7.7,0.9,15.3,1.2,22.8,1.4c3.8,0.1,7.5,0.1,11.3,0.1c1.9,0,3.8,0,5.6-0.1l5.4,0
			l10.9,0c3.6,0,7.3,0.1,10.9-0.1c3.6-0.2,7.2-0.5,10.8-1c3.6-0.6,7.2-1.2,10.6-2.5L146.2,383z"/>
		<path class="st3" d="M98.7,373.4c16.2-5.5,32.8-9.6,49.7-12.4c16.6-2.7,34.3-4,50.3,2.3c6.1,2.4,13.3,7.1,12.6,14.6
			c-0.6,6.9-7.9,11.4-13.6,13.8c-14.9,6.5-34,4.5-49.9,4c-10.8-0.3-21.5-0.8-32.3-1.5c0,0-0.2,0-0.2,0c0,0,3.7-3.9,1.6-10.3
			C114.8,377.7,98.7,373.4,98.7,373.4z"/>
		<path class="st4" d="M98.7,373.4c16.2-5.5,32.8-9.6,49.7-12.4c16.6-2.7,34.3-4,50.3,2.3c6.1,2.4,13.3,7.1,12.6,14.6
			c-0.6,6.9-7.9,11.4-13.6,13.8c-14.9,6.5-34,4.5-49.9,4c-10.8-0.3-21.5-0.8-32.3-1.5c0,0-0.2,0-0.2,0c0,0,3.7-3.9,1.6-10.3
			C114.8,377.7,98.7,373.4,98.7,373.4z"/>
		<path class="st5" d="M153.9,359.8c0,0,11,5.9,13,17.4c2,11.6-3.5,19.1-3.5,19.1"/>
		<path class="st5" d="M172.8,359.1c0,0,8.6,4.8,10,15.7c1.5,12.6-4.6,21.3-4.6,21.3"/>
		<path class="st5" d="M192.5,361.3c0,0,7.2,8.3,6.2,18.2c-1,10-4.9,13.8-4.9,13.8"/>
		<path class="st0" d="M152,387.2l-1.4-16.6c-4-0.6-7.9-0.5-11.7-0.3c-3.9,0.3-7.7,0.8-11.5,1.6c-3.8,0.8-7.6,1.8-11.3,2.9
			c-1.9,0.5-3.8,1.1-5.6,1.7c-1.9,0.6-3.8,1.2-5.6,1.9c-1.9,0.6-3.8,1.3-5.6,2c-1.8,0.7-3.6,1.3-5.4,2.1c-3.6,1.4-7.2,2.8-10.7,4.3
			c-7.1,3-14.1,6.2-21.1,9.8c19.1-4.7,47.5-10.4,72.9-10.6C141.8,385.9,147.4,386.3,152,387.2z"/>
		<path class="st1" d="M85.2,398.1c3.9,0.1,7.8,0.1,11.6,0.1c1.9,0,3.9,0,5.8-0.1l5.6,0l11.2,0c3.7,0,7.5,0.1,11.2-0.1
			c3.7-0.2,7.4-0.5,11.1-1c3.7-0.6,7.4-1.3,10.9-2.5l-0.6-7.4c-4.6-0.8-10.3-1.3-17.2-1.2c-25.4,0.2-53.8,5.9-72.9,10.6
			c-0.1,0-0.1,0.1-0.2,0.1C69.6,397.5,77.4,397.9,85.2,398.1z"/>
		<path class="st2" d="M151.6,386.7l-1.4-16.6c-4-0.6-7.9-0.5-11.7-0.3c-3.9,0.3-7.7,0.8-11.5,1.6c-3.8,0.8-7.6,1.8-11.3,2.9
			c-1.9,0.5-3.8,1.1-5.6,1.7c-1.9,0.6-3.8,1.2-5.6,1.9c-1.9,0.6-3.8,1.3-5.6,2c-1.8,0.7-3.6,1.3-5.4,2.1c-3.6,1.4-7.2,2.8-10.7,4.3
			c-7.1,3-14.1,6.2-21.1,9.8c-0.1,0-0.1,0.1-0.2,0.1c7.9,0.9,15.7,1.3,23.4,1.5c3.9,0.1,7.8,0.1,11.6,0.1c1.9,0,3.9,0,5.8-0.1l5.6,0
			l11.2,0c3.7,0,7.5,0.1,11.2-0.1c3.7-0.2,7.4-0.5,11.1-1c3.7-0.6,7.4-1.3,10.9-2.5L151.6,386.7z"/>
		<path class="st3" d="M102.8,376.9c16.7-5.6,33.7-9.9,51.1-12.8c17.1-2.8,35.3-4.1,51.7,2.4c6.3,2.5,13.6,7.3,12.9,15
			c-0.6,7.1-8.1,11.7-14,14.2c-15.3,6.6-35,4.6-51.3,4.2c-11.1-0.3-22.1-0.8-33.2-1.5c0,0-0.2,0-0.2,0c0,0,3.8-4,1.7-10.6
			C119.3,381.2,102.8,376.9,102.8,376.9z"/>
		<path class="st4" d="M102.8,376.9c16.7-5.6,33.7-9.9,51.1-12.8c17.1-2.8,35.3-4.1,51.7,2.4c6.3,2.5,13.6,7.3,12.9,15
			c-0.6,7.1-8.1,11.7-14,14.2c-15.3,6.6-35,4.6-51.3,4.2c-11.1-0.3-22.1-0.8-33.2-1.5c0,0-0.2,0-0.2,0c0,0,3.8-4,1.7-10.6
			C119.3,381.2,102.8,376.9,102.8,376.9z"/>
		<path class="st5" d="M159.5,362.9c0,0,11.3,6,13.4,17.9c2.1,11.9-3.6,19.6-3.6,19.6"/>
		<path class="st5" d="M178.9,362.2c0,0,8.9,5,10.2,16.1c1.6,12.9-4.7,21.9-4.7,21.9"/>
		<path class="st5" d="M199.2,364.4c0,0,7.4,8.5,6.4,18.7c-1.1,10.2-5.1,14.1-5.1,14.1"/>
	</g>
</g>
<g id="back_background_paw">
	<g>
		<g>
			<path class="st0" d="M290.3,420.5c-1.2-0.1-2.1-0.3-3.2-0.4c-1-0.2-2-0.3-3-0.5c-2-0.4-4-0.8-6-1.2c-2-0.5-3.9-1-5.8-1.5
				l-5.7-1.6c-0.7-0.2-1.1-0.9-0.9-1.6c0.1-0.5,0.6-0.9,1.1-1l5.9-0.5c2-0.2,3.9-0.4,5.8-0.6c1.9-0.2,3.8-0.5,5.6-0.9
				c0.9-0.2,1.9-0.4,2.8-0.5c0.9-0.2,1.9-0.4,2.6-0.6c3-0.9,6.1,0.9,7,3.8c0.9,3-0.9,6.1-3.8,7c-0.7,0.2-1.4,0.3-2.1,0.2
				L290.3,420.5z"/>
			<path class="st0" d="M288.8,383.6c-0.8-0.2-1.8-0.3-2.7-0.5c-0.9-0.1-1.9-0.3-2.8-0.4c-1.9-0.2-3.8-0.4-5.7-0.5
				c-1.9-0.1-3.8-0.2-5.8-0.2l-5.9-0.2c-0.7,0-1.3-0.6-1.3-1.3c0-0.6,0.4-1,0.9-1.2l5.6-1.9c1.8-0.6,3.7-1.3,5.7-1.9
				c1.9-0.6,3.9-1.1,5.9-1.6c1-0.2,2-0.5,3-0.7c1-0.2,2-0.4,3.1-0.6l0.3,0c3.1-0.5,5.9,1.6,6.4,4.7s-1.6,5.9-4.7,6.4
				C290.1,383.8,289.4,383.7,288.8,383.6z"/>
			<path class="st0" d="M263.5,402l24.9-5c3-0.6,6,1.3,6.6,4.4c0.6,3-1.3,6-4.4,6.6c-0.6,0.1-1.3,0.1-1.9,0.1l-25.1-3.4
				c-0.7-0.1-1.2-0.8-1.1-1.5C262.6,402.5,263,402.1,263.5,402z"/>
			<path class="st0" d="M263.1,390.2l24.9-5c3-0.6,6,1.3,6.6,4.4c0.6,3-1.3,6-4.4,6.6c-0.6,0.1-1.3,0.1-1.9,0.1l-25.1-3.4
				c-0.7-0.1-1.2-0.8-1.1-1.5C262.2,390.8,262.6,390.3,263.1,390.2z"/>
		</g>
		<g>
			<g>
				<path class="st1" d="M286.2,419.8c1,0.2,2,0.4,3,0.5c1,0.2,2,0.3,3.2,0.4l0.3,0c0.7,0.1,1.4,0,2.1-0.2c3-0.9,4.7-4,3.8-7
					c-0.9-3-4-4.7-7-3.8c-0.8,0.2-1.7,0.4-2.6,0.6c-0.9,0.2-1.8,0.4-2.8,0.5c-1.9,0.3-3.7,0.6-5.6,0.9c-0.8,0.1-1.6,0.2-2.4,0.3
					c-0.5,0.9-0.8,2-0.7,3.1c0,1.1,0.3,2,0.8,2.9c0.6,0.2,1.3,0.3,2,0.5C282.2,419,284.2,419.4,286.2,419.8z"/>
				<path class="st1" d="M285.3,383c0.9,0.1,1.9,0.2,2.8,0.4c0.9,0.1,1.9,0.3,2.7,0.5c0.7,0.1,1.4,0.2,2.1,0.1
					c3.1-0.5,5.2-3.4,4.7-6.4c-0.5-3.1-3.4-5.2-6.4-4.7l-0.3,0c-1.2,0.2-2.1,0.4-3.1,0.6c-1,0.2-2,0.5-3,0.7c-2,0.5-3.9,1-5.9,1.6
					c-0.6,0.2-1.2,0.4-1.7,0.6c-0.2,0.7-0.4,1.4-0.3,2.2c0,1.5,0.6,2.8,1.4,3.9c0.5,0,1,0,1.5,0.1
					C281.5,382.6,283.4,382.8,285.3,383z"/>
				<path class="st1" d="M292.6,408.1c3-0.6,5-3.6,4.4-6.6c-0.6-3-3.6-5-6.6-4.4l-12.3,2.5c-0.5,1-0.8,2.1-0.8,3.3
					c0,1.3,0.4,2.5,1.1,3.6l12.4,1.7C291.3,408.2,292,408.2,292.6,408.1z"/>
				<path class="st1" d="M292.2,396.4c3-0.6,5-3.6,4.4-6.6c-0.6-3-3.6-5-6.6-4.4l-12.5,2.5c-0.4,0.8-0.6,1.8-0.5,2.7
					c0,1.6,0.6,3,1.6,4.1l11.8,1.6C291,396.5,291.6,396.5,292.2,396.4z"/>
			</g>
		</g>
		<path class="st3" d="M298.1,370.1c-2.4,0.1-4.7,0.2-7,0.6c-1.9,0.3-3.8,0.8-5.4,1.9c-1.9,1.3-3.2,3.5-3.1,5.8c0.1,2.6,1.7,4.9,4,6
			c-2.3,1.3-3.8,3.6-3.8,6.2c0.1,2.6,1.7,4.9,4,6c-2.3,1.3-3.8,3.6-3.8,6.2c0.1,2.6,1.7,4.9,4,6c-2.3,1.3-3.8,3.6-3.8,6.2
			c0.1,3.1,2.3,5.6,5.3,6.5l0,0c0.1,0,0.1,0,0.2,0c0.5,0.1,1.1,0.2,1.6,0.3c3.6,0.5,7.6,0.7,12.1,0.5c29.2-1.8,67.5-21.9,67-30.5
			c-0.1-1.4-1.2-2.7-2.1-3.6c-1.6-1.6-3.6-2.8-5.6-3.9c-5.9-3.3-12.3-5.7-18.7-7.7c-7.9-2.4-15.9-4.3-24.1-5.4
			c-4.9-0.7-9.8-1.1-14.8-1.1C302.2,370.1,300.2,370.1,298.1,370.1z"/>
		<g>
			<g>
				<path class="st6" d="M290.3,420.5c-1.2-0.1-2.1-0.3-3.2-0.4c-1-0.2-2-0.3-3-0.5c-2-0.4-4-0.8-6-1.2c-2-0.5-3.9-1-5.8-1.5
					l-5.7-1.6c-0.7-0.2-1.1-0.9-0.9-1.6c0.1-0.5,0.6-0.9,1.1-1l5.9-0.5c2-0.2,3.9-0.4,5.8-0.6c1.9-0.2,3.8-0.5,5.6-0.9
					c0.9-0.2,1.9-0.4,2.8-0.5c0.9-0.2,1.9-0.4,2.6-0.6c3-0.9,6.1,0.9,7,3.8c0.9,3-0.9,6.1-3.8,7c-0.7,0.2-1.4,0.3-2.1,0.2
					L290.3,420.5z"/>
				<path class="st6" d="M288.8,383.6c-0.8-0.2-1.8-0.3-2.7-0.5c-0.9-0.1-1.9-0.3-2.8-0.4c-1.9-0.2-3.8-0.4-5.7-0.5
					c-1.9-0.1-3.8-0.2-5.8-0.2l-5.9-0.2c-0.7,0-1.3-0.6-1.3-1.3c0-0.6,0.4-1,0.9-1.2l5.6-1.9c1.8-0.6,3.7-1.3,5.7-1.9
					c1.9-0.6,3.9-1.1,5.9-1.6c1-0.2,2-0.5,3-0.7c1-0.2,2-0.4,3.1-0.6l0.3,0c3.1-0.5,5.9,1.6,6.4,4.7s-1.6,5.9-4.7,6.4
					C290.1,383.8,289.4,383.7,288.8,383.6z"/>
				<path class="st6" d="M263.5,402l24.9-5c3-0.6,6,1.3,6.6,4.4c0.6,3-1.3,6-4.4,6.6c-0.6,0.1-1.3,0.1-1.9,0.1l-25.1-3.4
					c-0.7-0.1-1.2-0.8-1.1-1.5C262.6,402.5,263,402.1,263.5,402z"/>
				<path class="st6" d="M263.1,390.2l24.9-5c3-0.6,6,1.3,6.6,4.4c0.6,3-1.3,6-4.4,6.6c-0.6,0.1-1.3,0.1-1.9,0.1l-25.1-3.4
					c-0.7-0.1-1.2-0.8-1.1-1.5C262.2,390.8,262.6,390.3,263.1,390.2z"/>
			</g>
		</g>
		<path class="st4" d="M297.1,370.2c-2.4,0.1-4.7,0.2-7,0.6c-1.9,0.3-3.8,0.8-5.4,1.9c-1.9,1.3-3.2,3.5-3.1,5.8c0.1,2.6,1.7,4.9,4,6
			c-2.3,1.3-3.8,3.6-3.8,6.2c0.1,2.6,1.7,4.9,4,6c-2.3,1.3-3.8,3.6-3.8,6.2c0.1,2.6,1.7,4.9,4,6c-2.3,1.3-3.8,3.6-3.8,6.2
			c0.1,3.1,2.3,5.6,5.3,6.5l0,0c0.1,0,0.1,0,0.2,0c0.5,0.1,1.1,0.2,1.6,0.3c3.6,0.5,7.6,0.7,12.1,0.5c29.2-1.8,67.5-21.9,67-30.5
			c-0.1-1.4-1.2-2.7-2.1-3.6c-1.6-1.6-3.6-2.8-5.6-3.9c-5.9-3.3-12.3-5.7-18.7-7.7c-7.9-2.4-15.9-4.3-24.1-5.4
			c-4.9-0.7-9.8-1.1-14.8-1.1C301.2,370.1,299.2,370.1,297.1,370.2z"/>
		<path class="st5" d="M351.8,380.1c2.3,3.8,3.7,8.2,3.9,13c0.2,4.7-1,9.2-3,13.2"/>
		<path class="st5" d="M339,376c4.5,4.9,7.3,11.2,7.5,18.3c0.2,6.5-1.8,12.5-5.4,17.5"/>
		<path class="st5" d="M324.9,372.8c6.2,5.6,10.2,13.5,10.5,22.4c0.3,8.4-2.8,16.1-8.1,21.9"/>
	</g>
</g>
<g id="Tail">
	<g>
		<g>
			<path class="st7" d="M560.1,325.5c-9,9.1-19.4,15.2-30.2,18.8c-2.7,0.9-5.4,1.6-8.2,2.3c-2.8,0.6-5.5,1.1-8.3,1.4
				c-5.5,0.7-11.1,0.8-16.6,0.5c-11-0.7-21.9-3.1-31.9-7.4c-5.1-2.1-9.9-4.7-13.9-7.6c-4.1-2.9-7.5-6.3-9.9-9.8l-21.9,36.7
				c7.1,5.6,14.5,9.2,21.6,11.5c7.1,2.3,13.9,3.4,20.5,3.9c13.3,1,26.1-0.4,38.4-3.9c6.1-1.8,12.1-4,17.9-6.8c2.9-1.4,5.7-3,8.5-4.6
				c2.7-1.7,5.4-3.5,8-5.4C544.4,347.4,553.4,337.3,560.1,325.5z"/>
			<path class="st8" d="M560.1,325.5c-9,9.1-19.4,15.2-30.2,18.8c-2.7,0.9-5.4,1.6-8.2,2.3c-2.8,0.6-5.5,1.1-8.3,1.4
				c-5.5,0.7-11.1,0.8-16.6,0.5c-11-0.7-21.9-3.1-31.9-7.4c-5.1-2.1-9.9-4.7-13.9-7.6c-4.1-2.9-7.5-6.3-9.9-9.8l-21.9,36.7
				c7.1,5.6,14.5,9.2,21.6,11.5c7.1,2.3,13.9,3.4,20.5,3.9c13.3,1,26.1-0.4,38.4-3.9c6.1-1.8,12.1-4,17.9-6.8c2.9-1.4,5.7-3,8.5-4.6
				c2.7-1.7,5.4-3.5,8-5.4C544.4,347.4,553.4,337.3,560.1,325.5z"/>
		</g>
		<path class="st8" d="M549,342.4c-1-2.4-2.3-4.5-3.9-6.3"/>
		<path class="st8" d="M513.8,366.6c0.4-3.5,0.1-7.3-1-11c-0.8-2.6-1.9-4.9-3.2-6.9"/>
		<path class="st8" d="M534.8,354.5c-0.4-3.9-1.7-7.5-3.7-10.6"/>
		<path class="st8" d="M525.2,361.6c0.1-1.8,0-3.6-0.4-5.5c-0.6-3.4-1.8-6.5-3.4-9"/>
		<path class="st8" d="M542.2,348.3c-0.8-2.7-2-5.2-3.6-7.4"/>
		<path class="st8" d="M500.4,372.3c0.4-2.5,0.6-5.2,0.5-7.9c-0.2-5.8-1.8-11.1-4.2-15.7"/>
		<path class="st8" d="M484.8,375.9c2.6-9.6,1.4-20.6-3.3-29.5"/>
		<path class="st8" d="M468.6,376.1c4.1-10.3,4-22.8-0.3-33.6"/>
		<path class="st8" d="M449.3,374.7c6.4-10.9,8.2-25.2,4.9-38.7"/>
	</g>
</g>
<g id="Body">
	<path class="st9" d="M32.9,391.8c2.6,17.6,27.8-8.7,80.5-6.8c73.8,2.6,174.9,27.6,233.2,19c88.2-13.1,115-60,107.3-111.9
		c-7.7-51.9-78.8-106.6-167-93.6C198.6,211.6,25.2,339.9,32.9,391.8z"/>
	<path class="st10" d="M32.9,391.8c2.6,17.6,27.8-8.7,80.5-6.8c73.8,2.6,174.9,27.6,233.2,19c88.2-13.1,115-60,107.3-111.9
		c-7.7-51.9-78.8-106.6-167-93.6C198.6,211.6,25.2,339.9,32.9,391.8z"/>
	<path class="st0" d="M105.1,228.8c30.7-32.7,70.1-57.9,112.7-71.7c44.5-14.5,94.4-14.3,137.7,4.4c21.1,9.1,39.1,23.5,62,28.7
		c10.2,2.3,22.1,3.3,31.9-1.6c1.6-0.8,3.3-1.7,4.5-2.9c0,0,26.6,33.8,28.1,82.8c1.5,49-33,89.1-33,89.1s-59.6-79.1-182.9-95.2
		c-46.1-2.2-92.4,7-134.2,28.9c-59.2,31.2-88.6,80.3-97.2,97c-0.6,1.2-2.5,0.7-2.4-0.7c1.1-14.3,4.3-26.6,7.9-40.8
		C50.4,306.4,72.7,263.5,105.1,228.8z"/>
	<g>
		<polygon class="st11" points="432.7,339.9 432.7,339.8 432.7,339.8 		"/>
		<path class="st11" d="M452.6,186.5c0,0.1,0.1,0.1,0.1,0.2c-0.6,0.5-1.3,0.9-2,1.2L452.6,186.5z"/>
		<path class="st11" d="M62.1,288.4c0.2,0.1,0.4,0.2,0.6,0.3c-0.5,0.9-0.9,1.8-1.4,2.7L62.1,288.4z"/>
		<path class="st11" d="M46.1,325.3c0.2,0.1,0.3,0.2,0.5,0.3c-0.8,2.1-1.5,4.3-2.2,6.4L46.1,325.3z"/>
		<polygon class="st11" points="65.2,344.3 65.2,344.3 65.2,344.3 		"/>
		<polygon class="st11" points="140,287.2 140,287.2 140,287.2 		"/>
		<polygon class="st11" points="215.5,264.6 215.5,264.6 215.5,264.6 		"/>
		<path class="st11" d="M452.9,306.1c4.9-12.3,8-25.2,9.4-38.3c1.4-13.1,0.9-26.5-1.8-39.4c-2.7-12.9-8-25.3-15.9-35.9l6.1-4.6
			c0.7-0.4,1.3-0.8,2-1.2c8.2,12.4,13,26.3,15.1,40.2c2.1,14,1.7,28-0.5,41.4c-2.2,13.5-6.3,26.5-12,38.7
			c-5.7,12.1-13.1,23.6-22.6,32.8c0,0,0,0,0,0C441.6,330.1,448.1,318.4,452.9,306.1z"/>
		<path class="st11" d="M44.9,367.5c-2.3-1.9-5.1-3.3-8-3.9l1.4-6.9C42.1,359.9,44.1,363.8,44.9,367.5z"/>
		<path class="st11" d="M79.9,300.7c5,4.9,9,10.6,11.9,16.5c-3.9-5.1-8.7-9.6-14.1-13.2c-5.4-3.6-11.3-6.3-17.6-7.9l1.2-4.7
			c0.5-0.9,0.9-1.8,1.4-2.7C69.2,291.8,75,295.9,79.9,300.7z"/>
		<path class="st11" d="M42.7,341.6c2.6,2.1,5,4.4,7.2,6.8c2.1,2.4,3.9,5,5.5,7.6c-2.3-1.7-4.6-3.2-7.1-4.5
			c-2.5-1.3-5.1-2.4-7.8-3.3L42.7,341.6z"/>
		<path class="st11" d="M68.6,316.9c4,4.1,7,8.8,9.1,13.7c-3.1-4.1-6.9-7.6-11.2-10.3c-4.3-2.8-9.1-4.8-14.1-5.9l1.7-7.8
			C59.8,309.2,64.7,312.8,68.6,316.9z"/>
		<path class="st11" d="M44.4,332.1l0-0.1c0.7-2.1,1.4-4.3,2.2-6.4c8.4,4.6,14.7,11.3,18.6,18.7c0,0,0,0,0,0
			C59.5,338.4,52.3,334.1,44.4,332.1z"/>
		<path class="st11" d="M94.1,241.9l0.6-1.2c1.6-1.9,3.3-3.9,4.9-5.8c9.4,6.3,17.7,14,24.4,22.6c7.1,9.1,12.5,19.2,16,29.7
			c0,0,0,0,0,0c-4.9-9.8-11.4-18.8-19.2-26.5C113.1,253,104,246.6,94.1,241.9z"/>
		<path class="st11" d="M97.9,279c5.9,6.8,10.5,14.3,13.7,22.2c-4.4-7.1-10.1-13.5-16.6-18.7c-6.5-5.3-13.8-9.5-21.7-12.3
			c1.6-2.5,3.2-5,4.8-7.4C85.7,267.2,92.4,272.7,97.9,279z"/>
		<path class="st11" d="M172.7,273.3c-3.8-12.9-9.8-25.2-17.6-36.1c-7.8-11-17.4-20.6-28.3-28.5l0.8-1.1c2.2-1.9,4.4-3.7,6.7-5.4
			c10.1,9.5,18.6,20.4,25,32.2C165.9,246.6,170.4,259.9,172.7,273.3z"/>
		<path class="st11" d="M201.4,217.4c-7.2-14.8-17-28.4-28.6-40l1.8-1.9c2.2-1.2,4.4-2.3,6.7-3.4c10.6,13.1,18.9,27.8,24.6,43.1
			c6,16,9.2,32.8,9.6,49.3c0,0,0,0,0,0C213.5,248.2,208.7,232.2,201.4,217.4z"/>
		<path class="st11" d="M257.9,203c2.3,9.7,3.6,19.5,4.1,29.2c0.6,9.7,0.4,19.4-0.4,29c-0.1-9.6-0.7-19.2-2.1-28.7
			c-1.4-9.5-3.4-18.9-6.4-28c-3-9.1-6.8-18-11.7-26.2c-4.9-8.2-10.9-15.9-17.8-22.5l0.8-0.8c3.1-0.9,6.3-1.7,9.4-2.5
			c5.6,6.8,10.3,14.3,14.1,22C252.4,183.7,255.7,193.3,257.9,203z"/>
		<path class="st11" d="M303.1,157.9l2.2,4l1.1,2c0.4,0.7,0.6,1.4,1,2.1l1.9,4.1c0.7,1.4,1.1,2.8,1.6,4.2l1.5,4.2l1.2,4.3
			c0.4,1.4,0.9,2.8,1.1,4.3c0.6,2.9,1.4,5.7,1.7,8.6l0.7,4.3c0.2,1.4,0.3,2.9,0.5,4.3c1.2,11.5,1,23-0.2,34.2
			c-1.1,11.2-3,22.3-5.4,33.2c1.5-11,2.6-22.1,2.9-33.3c0.3-11.1-0.3-22.3-2.2-33.3c-0.2-1.4-0.5-2.7-0.7-4.1l-1-4.1
			c-0.6-2.7-1.5-5.4-2.2-8c-0.4-1.3-0.9-2.6-1.4-3.9L306,181l-1.7-3.8c-0.6-1.3-1.1-2.6-1.8-3.8l-2-3.7c-0.3-0.6-0.6-1.2-1-1.8
			l-1.1-1.8l-2.2-3.5c-0.8-1.2-1.6-2.3-2.5-3.4c-3.5-4.3-7.7-8.1-12.3-11.2l0.9-1.3c4.3,0,8.6,0.1,12.9,0.4c1.9,2.1,3.7,4.3,5.4,6.6
			C301.4,155.1,302.4,156.5,303.1,157.9z"/>
		<path class="st11" d="M363.4,166.7c0.4,0.8,0.8,1.5,1.1,2.3l1.9,4.4l0.9,2.2l0.8,2.2l1.5,4.5c0.5,1.5,0.8,3,1.2,4.5
			c0.4,1.5,0.8,3,1.1,4.5l0.8,4.6l0.4,2.3c0.1,0.8,0.2,1.5,0.3,2.3l0.5,4.6c0.2,1.5,0.2,3.1,0.3,4.6c0.1,1.5,0.2,3,0.2,4.6l0,4.5
			c0,3-0.3,6-0.4,9c-0.2,3-0.6,6-0.9,8.9c-0.5,2.9-0.8,5.9-1.4,8.8c-0.6,2.9-1,5.8-1.7,8.7c-2.5,11.5-5.8,22.8-9.6,33.8
			c2.9-11.3,5.4-22.6,7.1-34.2c0.5-2.9,0.7-5.8,1.1-8.7c0.3-2.9,0.5-5.8,0.7-8.7c0.1-2.9,0.3-5.8,0.3-8.7c-0.1-2.9,0-5.8-0.2-8.7
			c-0.6-11.6-2.6-23.2-6.7-34.1l-1.7-4l-0.8-2l-1-1.9c-1.3-2.6-2.5-5.2-4.2-7.7c-3.1-4.8-7.1-9-11.6-12.6c4.2,1.4,8.3,3,12.4,4.8
			c2.2,1,4.4,2,6.5,3c0,0,0,0,0,0C362.6,165.2,363,166,363.4,166.7z"/>
		<path class="st11" d="M423.4,197.1l0.5,2.2l1,4.3l0.2,1.1l0.2,1.1l0.3,2.2l0.7,4.3l0.4,4.3c0.9,11.6-0.1,23-2.4,33.9
			c-2.3,10.9-5.7,21.4-9.7,31.5c-4.1,10.1-8.8,19.8-13.9,29.3c4.3-9.8,8.3-19.8,11.5-30.1c3.2-10.2,5.8-20.7,7.1-31.4
			c1.4-10.6,1.5-21.5-0.1-32.1l-0.6-4l-0.9-3.9l-0.5-2l-0.2-1l-0.3-1l-1.2-3.8c-1.5-5.2-4-10-7.1-14.4l0,0c2.9,1,5.9,1.9,9,2.6
			c1.2,0.3,2.5,0.5,3.7,0.8c0.5,1.3,1,2.6,1.4,3.9C423,195.6,423.2,196.4,423.4,197.1z"/>
	</g>
	<path class="st12" d="M105.1,228.8c30.7-32.7,70.1-57.9,112.7-71.7c44.5-14.5,94.4-14.3,137.7,4.4c21.1,9.1,39.1,23.5,62,28.7
		c10.2,2.3,22.1,3.3,31.9-1.6c1.6-0.8,3.3-1.7,4.5-2.9c0,0,26.6,33.8,28.1,82.8c1.5,49-33,89.1-33,89.1s-59.6-79.1-182.9-95.2
		c-46.1-2.2-92.4,7-134.2,28.9c-59.2,31.2-88.6,80.3-97.2,97c-0.6,1.2-2.5,0.7-2.4-0.7c1.1-14.3,4.3-26.6,7.9-40.8
		C50.4,306.4,72.7,263.5,105.1,228.8z"/>
	<path class="st12" d="M444.6,192.5c27.1,36,21.8,92.5,0.5,130c-3.5,6.2-7.6,12-12.4,17.3"/>
	<path class="st12" d="M44.9,367.5c-2.4-1.9-5.1-3.3-8-3.9"/>
	<path class="st12" d="M91.7,317.1c-7.8-10.2-18.9-17.7-31.7-21"/>
	<path class="st12" d="M55.3,356c-4.9-3.6-9.5-6-14.9-7.7"/>
	<path class="st12" d="M77.7,330.6c-6.2-8.1-15-13.9-25.3-16.2"/>
	<path class="st12" d="M65.2,344.3c-5.6-5.8-12.8-10.1-20.8-12.2"/>
	<path class="st12" d="M140,287.2c-9.7-19.4-25.7-35.6-45.9-45.3"/>
	<path class="st12" d="M111.6,301.2c-8.8-14.1-22.2-25.2-38.3-31.1"/>
	<path class="st12" d="M172.7,273.3c-7.6-25.6-23.5-48.5-45.9-64.6"/>
	<path class="st12" d="M215.5,264.5c-4.1-32.4-18.8-63.3-42.7-87.2"/>
	<path class="st12" d="M261.7,261.2c-0.3-37.5-9.8-78.7-38.1-105.3"/>
	<path class="st12" d="M312.1,271.6c5.2-36.4,5.9-77.6-16.2-109.4c-3.9-5.6-8.9-10.3-14.5-14.1"/>
	<path class="st12" d="M360.2,288c9.9-37.7,15.8-80.9-3.6-115.7c-3.4-6.1-8.1-11.4-13.6-15.8"/>
	<path class="st12" d="M400.8,311.2c15.4-34.8,27.1-75,14.2-111.4c-1.6-4.4-3.7-8.5-6.4-12.3"/>
	<path class="st13" d="M161.7,312.8c-0.4-0.6-0.9-1.2-1.4-1.8c-1.6-1.9-2.6-2.8-4.6-4"/>
	<path class="st13" d="M158.6,325.5c-1.5-2.4-3.3-4.8-5.4-7.1c-0.7-0.8-1.5-1.6-2.3-2.4c-1.8-1.8-4-3.7-7-5.5"/>
	<path class="st13" d="M159.7,318.2c-0.9-1.4-2-2.8-3.3-4.2c-0.4-0.5-0.9-0.9-1.4-1.4c-1.1-1.1-2.4-2.2-4.1-3.3"/>
	<path class="st13" d="M261.8,379.5c0.7,3.3,1.8,6.9,3.2,10.4c0.5,1.2,1,2.4,1.6,3.7c1.3,2.8,3.1,5.9,5.7,9.2"/>
	<path class="st13" d="M257.6,387.3c0.5,2,1.1,4,2,6.1c0.3,0.7,0.6,1.4,1,2.2c0.8,1.7,1.8,3.5,3.3,5.5"/>
	<g>
		<path class="st13" d="M393.2,324.6c-1.9,5.4-7.9,8.2-13.3,6.3"/>
		<path class="st13" d="M388.3,322.9c-1,2.7-4,4.1-6.7,3.1"/>
	</g>
</g>
<g id="Z1">
	<polyline class="st14" points="21.1,294.8 27.4,284.6 33.1,304.9 39.7,289.8 	"/>
</g>
<g id="Z2">
	<polyline class="st14" points="6.3,241.9 20.4,235.8 13.9,254.9 30,251.3 	"/>
</g>
<g id="Z3">
	<polyline class="st14" points="20.4,192.7 37.1,194.7 20.4,209.3 37.5,211.7 	"/>
</g>
<g id="eye">
	<path class="st15" d="M90.4,345.2c4.4,3.2,14.8,4.8,17.3-0.8c2.2-4.9-0.5-11-3.3-15.1"/>
</g>
<g id="front_foreground_paw">
	<g>
		<g>
			<path class="st0" d="M161,395.9l-2.2-16.1c-4-0.4-7.7-0.1-11.4,0.3c-3.7,0.4-7.4,1.2-11.1,2.1c-3.7,0.9-7.3,2.1-10.9,3.4
				c-1.8,0.6-3.6,1.3-5.4,1.9c-1.8,0.7-3.6,1.3-5.4,2.1c-1.8,0.7-3.6,1.5-5.3,2.2c-1.7,0.8-3.4,1.5-5.1,2.3
				c-3.4,1.5-6.8,3.1-10.2,4.8c-6.7,3.2-13.4,6.7-20,10.6c18.3-5.5,45.6-12.5,70.3-14C150.9,395.1,156.4,395.3,161,395.9z"/>
			<path class="st1" d="M96.5,409.8c3.8-0.1,7.5-0.3,11.3-0.5c1.9-0.1,3.8-0.2,5.6-0.3l5.4-0.3l10.9-0.5c3.6-0.2,7.3-0.3,10.9-0.7
				c3.6-0.4,7.2-0.8,10.8-1.6c3.5-0.7,7.1-1.6,10.5-3l-1-7.1c-4.5-0.6-10.1-0.8-16.8-0.4c-24.7,1.5-52,8.5-70.3,14
				c-0.1,0-0.1,0.1-0.2,0.1C81.4,410.1,89,410,96.5,409.8z"/>
			<path class="st2" d="M160.5,395.4l-2.2-16.1c-4-0.4-7.7-0.1-11.4,0.3c-3.7,0.4-7.4,1.2-11.1,2.1c-3.7,0.9-7.3,2.1-10.9,3.4
				c-1.8,0.6-3.6,1.3-5.4,1.9c-1.8,0.7-3.6,1.3-5.4,2.1c-1.8,0.7-3.6,1.5-5.3,2.2c-1.7,0.8-3.4,1.5-5.1,2.3
				c-3.4,1.5-6.8,3.1-10.2,4.8c-6.7,3.2-13.4,6.7-20,10.6c-0.1,0-0.1,0.1-0.2,0.1c7.7,0.5,15.3,0.5,22.9,0.2
				c3.8-0.1,7.5-0.3,11.3-0.5c1.9-0.1,3.8-0.2,5.6-0.3l5.4-0.3l10.9-0.5c3.6-0.2,7.3-0.3,10.9-0.7c3.6-0.4,7.2-0.8,10.8-1.6
				c3.5-0.7,7.1-1.6,10.5-3L160.5,395.4z"/>
			<path class="st3" d="M112.6,388.3c15.9-6.3,32.3-11.3,49-15c16.5-3.6,34.1-5.8,50.4-0.3c6.2,2.1,13.6,6.4,13.3,13.9
				c-0.3,6.9-7.3,11.8-12.9,14.5c-14.6,7.2-33.8,6.2-49.7,6.6c-10.8,0.3-21.6,0.3-32.3,0.2c0,0-0.2,0-0.2,0c0,0,3.5-4.1,1.1-10.4
				C128.9,391.7,112.6,388.3,112.6,388.3z"/>
			<path class="st4" d="M112.6,388.3c15.9-6.3,32.3-11.3,49-15c16.5-3.6,34.1-5.8,50.4-0.3c6.2,2.1,13.6,6.4,13.3,13.9
				c-0.3,6.9-7.3,11.8-12.9,14.5c-14.6,7.2-33.8,6.2-49.7,6.6c-10.8,0.3-21.6,0.3-32.3,0.2c0,0-0.2,0-0.2,0c0,0,3.5-4.1,1.1-10.4
				C128.9,391.7,112.6,388.3,112.6,388.3z"/>
			<path class="st5" d="M167,371.9c0,0,11.3,5.3,13.9,16.8c2.6,11.5-2.5,19.2-2.5,19.2"/>
			<path class="st5" d="M185.8,370.2c0,0,8.9,4.4,10.8,15.2c2.2,12.5-3.5,21.5-3.5,21.5"/>
			<path class="st5" d="M205.6,371.3c0,0,7.6,7.9,7.1,17.9c-0.5,10-4.2,14-4.2,14"/>
		</g>
		<path class="st0" d="M160.7,396l-3.3-15.9c-4-0.1-7.7,0.4-11.4,1.1c-3.7,0.7-7.3,1.7-10.9,2.8c-3.6,1.2-7.1,2.6-10.6,4.1
			c-1.8,0.7-3.5,1.5-5.3,2.3c-1.7,0.8-3.5,1.6-5.2,2.4c-1.7,0.8-3.5,1.7-5.2,2.6c-1.7,0.9-3.3,1.7-5,2.6c-3.3,1.8-6.6,3.6-9.9,5.4
			c-6.5,3.7-12.9,7.6-19.2,11.9c17.9-6.7,44.7-15.5,69.2-18.6C150.6,396,156.2,395.8,160.7,396z"/>
		<path class="st1" d="M97.4,414.3c3.8-0.4,7.5-0.8,11.2-1.2c1.9-0.2,3.7-0.5,5.6-0.7l5.4-0.7l10.8-1.3c3.6-0.4,7.2-0.8,10.8-1.4
			c3.6-0.6,7.1-1.3,10.6-2.3c3.5-1,7-2.1,10.3-3.7l-1.4-7c-4.6-0.3-10.1-0.1-16.8,0.8c-24.5,3.1-51.3,11.9-69.2,18.6
			c-0.1,0-0.1,0.1-0.2,0.1C82.3,415.5,89.8,415,97.4,414.3z"/>
		<path class="st2" d="M160.2,395.6l-3.3-15.9c-4-0.1-7.7,0.4-11.4,1.1c-3.7,0.7-7.3,1.7-10.9,2.8c-3.6,1.2-7.1,2.6-10.6,4.1
			c-1.8,0.7-3.5,1.5-5.3,2.3c-1.7,0.8-3.5,1.6-5.2,2.4c-1.7,0.8-3.5,1.7-5.2,2.6c-1.7,0.9-3.3,1.7-5,2.6c-3.3,1.8-6.6,3.6-9.9,5.4
			c-6.5,3.7-12.9,7.6-19.2,11.9c-0.1,0-0.1,0.1-0.2,0.1c7.7,0,15.3-0.6,22.8-1.3c3.8-0.4,7.5-0.8,11.2-1.2c1.9-0.2,3.7-0.5,5.6-0.7
			l5.4-0.7L130,410c3.6-0.4,7.2-0.8,10.8-1.4c3.6-0.6,7.1-1.3,10.6-2.3c3.5-1,7-2.1,10.3-3.7L160.2,395.6z"/>
		<path class="st3" d="M111.9,391.8c15.5-7.3,31.5-13.5,47.9-18.2c16.2-4.7,33.6-8.1,50.2-3.6c6.3,1.7,14,5.5,14.2,13
			c0.2,6.9-6.5,12.2-11.9,15.3c-14.1,8.2-33.3,8.4-49.1,9.9c-10.7,1-21.5,1.8-32.2,2.3c0,0-0.2,0-0.2,0c0,0,3.2-4.3,0.4-10.4
			C128.4,394.1,111.9,391.8,111.9,391.8z"/>
		<path class="st4" d="M111.9,391.8c15.5-7.3,31.5-13.5,47.9-18.2c16.2-4.7,33.6-8.1,50.2-3.6c6.3,1.7,14,5.5,14.2,13
			c0.2,6.9-6.5,12.2-11.9,15.3c-14.1,8.2-33.3,8.4-49.1,9.9c-10.7,1-21.5,1.8-32.2,2.3c0,0-0.2,0-0.2,0c0,0,3.2-4.3,0.4-10.4
			C128.4,394.1,111.9,391.8,111.9,391.8z"/>
		<path class="st5" d="M165.1,371.7c0,0,11.6,4.5,15,15.8c3.4,11.3-1.2,19.4-1.2,19.4"/>
		<path class="st5" d="M183.8,368.8c0,0,9.2,3.8,11.7,14.4c3,12.3-2,21.7-2,21.7"/>
		<path class="st5" d="M203.6,368.6c0,0,8.1,7.3,8.3,17.4c0.1,10-3.3,14.2-3.3,14.2"/>
		<path class="st0" d="M166.5,399.1l-3.4-16.3c-4.1-0.1-7.9,0.4-11.7,1.1c-3.8,0.7-7.5,1.7-11.2,2.9c-3.7,1.2-7.3,2.7-10.9,4.2
			c-1.8,0.8-3.6,1.5-5.4,2.4c-1.8,0.8-3.6,1.6-5.4,2.5c-1.8,0.9-3.6,1.8-5.3,2.7c-1.7,0.9-3.4,1.8-5.1,2.7
			c-3.4,1.8-6.8,3.7-10.2,5.6c-6.7,3.8-13.3,7.8-19.8,12.2c18.4-6.9,45.9-16,71.1-19.2C156.1,399,161.8,398.8,166.5,399.1z"/>
		<path class="st1" d="M101.4,417.9c3.9-0.4,7.7-0.8,11.6-1.3c1.9-0.2,3.8-0.5,5.7-0.7l5.6-0.7l11.1-1.3c3.7-0.4,7.4-0.8,11.1-1.4
			c3.7-0.6,7.3-1.4,10.9-2.3c3.6-1,7.2-2.1,10.5-3.8l-1.5-7.2c-4.7-0.3-10.4-0.1-17.2,0.8c-25.2,3.2-52.7,12.3-71.1,19.2
			c-0.1,0-0.1,0.1-0.2,0.1C85.9,419.1,93.7,418.6,101.4,417.9z"/>
		<path class="st2" d="M166,398.6l-3.4-16.3c-4.1-0.1-7.9,0.4-11.7,1.1c-3.8,0.7-7.5,1.7-11.2,2.9c-3.7,1.2-7.3,2.7-10.9,4.2
			c-1.8,0.8-3.6,1.5-5.4,2.4c-1.8,0.8-3.6,1.6-5.4,2.5c-1.8,0.9-3.6,1.8-5.3,2.7c-1.7,0.9-3.4,1.8-5.1,2.7
			c-3.4,1.8-6.8,3.7-10.2,5.6c-6.7,3.8-13.3,7.8-19.8,12.2c-0.1,0-0.1,0.1-0.2,0.1c7.9-0.1,15.7-0.6,23.5-1.3
			c3.9-0.4,7.7-0.8,11.6-1.3c1.9-0.2,3.8-0.5,5.7-0.7l5.6-0.7l11.1-1.3c3.7-0.4,7.4-0.8,11.1-1.4c3.7-0.6,7.3-1.4,10.9-2.3
			c3.6-1,7.2-2.1,10.5-3.8L166,398.6z"/>
		<path class="st3" d="M116.4,394.7c15.9-7.5,32.3-13.8,49.2-18.7c16.6-4.8,34.5-8.3,51.6-3.7c6.5,1.7,14.4,5.6,14.6,13.4
			c0.2,7.1-6.7,12.6-12.2,15.8c-14.4,8.4-34.2,8.7-50.5,10.2c-11,1-22.1,1.8-33.1,2.4c0,0-0.2,0-0.2,0c0,0,3.3-4.5,0.4-10.7
			C133.3,397,116.4,394.7,116.4,394.7z"/>
		<path class="st4" d="M116.4,394.7c15.9-7.5,32.3-13.8,49.2-18.7c16.6-4.8,34.5-8.3,51.6-3.7c6.5,1.7,14.4,5.6,14.6,13.4
			c0.2,7.1-6.7,12.6-12.2,15.8c-14.4,8.4-34.2,8.7-50.5,10.2c-11,1-22.1,1.8-33.1,2.4c0,0-0.2,0-0.2,0c0,0,3.3-4.5,0.4-10.7
			C133.3,397,116.4,394.7,116.4,394.7z"/>
		<path class="st5" d="M171,374.1c0,0,11.9,4.7,15.4,16.2s-1.2,19.9-1.2,19.9"/>
		<path class="st5" d="M190.2,371.1c0,0,9.4,3.9,12.1,14.8c3.1,12.6-2.1,22.3-2.1,22.3"/>
		<path class="st5" d="M210.6,370.9c0,0,8.4,7.5,8.5,17.8c0.1,10.3-3.4,14.6-3.4,14.6"/>
	</g>
</g>
<g id="back_foreground_paw">
	<g>
		<g>
			<path class="st0" d="M290.3,353.2c-1-0.5-1.9-1-2.8-1.5c-0.9-0.5-1.8-1-2.6-1.5c-1.7-1.1-3.5-2.1-5.1-3.3
				c-1.7-1.1-3.3-2.3-4.9-3.5l-4.8-3.5c-0.6-0.4-0.7-1.2-0.3-1.8c0.3-0.5,0.9-0.6,1.4-0.5l5.7,1.6c1.9,0.5,3.8,1,5.6,1.5
				c1.9,0.4,3.7,0.8,5.6,1.2c0.9,0.2,1.9,0.3,2.8,0.5c0.9,0.1,1.9,0.3,2.7,0.4c3.1,0.3,5.4,3,5.1,6.1c-0.3,3.1-3,5.4-6.1,5.1
				c-0.7-0.1-1.4-0.2-2-0.5L290.3,353.2z"/>
			<path class="st0" d="M301.9,318.2c-0.7-0.4-1.5-0.9-2.3-1.4c-0.8-0.5-1.6-0.9-2.5-1.3c-1.7-0.9-3.4-1.7-5.1-2.5
				c-1.7-0.8-3.5-1.5-5.3-2.3l-5.4-2.2c-0.7-0.3-1-1-0.7-1.7c0.2-0.5,0.7-0.8,1.2-0.8l5.9,0.2c1.9,0.1,4,0.1,6,0.3
				c2,0.1,4,0.3,6.1,0.6c1,0.1,2,0.3,3,0.4c1,0.2,2,0.3,3.1,0.5l0.3,0.1c3,0.6,5,3.6,4.4,6.7c-0.6,3-3.6,5-6.7,4.4
				C303.1,318.8,302.5,318.5,301.9,318.2z"/>
			<path class="st0" d="M271.8,326.4l25,4.1c3,0.5,5.1,3.4,4.6,6.4c-0.5,3-3.4,5.1-6.4,4.6c-0.6-0.1-1.2-0.3-1.8-0.6L271,328.8
				c-0.6-0.3-0.9-1.1-0.5-1.8C270.7,326.6,271.3,326.3,271.8,326.4z"/>
			<path class="st0" d="M275.6,315.3l25,4.1c3,0.5,5.1,3.4,4.6,6.4c-0.5,3-3.4,5.1-6.4,4.6c-0.6-0.1-1.2-0.3-1.8-0.6l-22.3-12.1
				c-0.6-0.3-0.9-1.1-0.5-1.8C274.5,315.5,275.1,315.2,275.6,315.3z"/>
		</g>
		<g>
			<g>
				<path class="st1" d="M286.6,351.1c0.9,0.5,1.8,1,2.6,1.5c0.9,0.5,1.8,1,2.8,1.5l0.3,0.1c0.6,0.3,1.3,0.5,2,0.5
					c3.1,0.3,5.8-2.1,6.1-5.1c0.3-3.1-2.1-5.8-5.1-6.1c-0.8-0.1-1.8-0.2-2.7-0.4c-0.9-0.1-1.9-0.3-2.8-0.5c-1.9-0.3-3.7-0.7-5.6-1.2
					c-0.8-0.2-1.6-0.4-2.3-0.6c-0.8,0.7-1.4,1.6-1.8,2.6c-0.4,1-0.4,2-0.3,3c0.5,0.4,1.1,0.8,1.7,1.1
					C283.2,349,284.9,350.1,286.6,351.1z"/>
				<path class="st1" d="M298.9,316.4c0.8,0.4,1.7,0.9,2.5,1.3c0.8,0.4,1.7,0.9,2.3,1.4c0.6,0.4,1.2,0.7,1.9,0.8
					c3,0.6,6-1.3,6.7-4.4c0.6-3-1.3-6-4.4-6.7l-0.3-0.1c-1.1-0.2-2.1-0.4-3.1-0.5c-1-0.2-2-0.3-3-0.4c-2-0.2-4-0.4-6.1-0.6
					c-0.6,0-1.2-0.1-1.8-0.1c-0.5,0.6-0.8,1.2-1.1,1.9c-0.5,1.4-0.5,2.8,0,4.2c0.4,0.2,0.9,0.4,1.3,0.6
					C295.5,314.7,297.2,315.5,298.9,316.4z"/>
				<path class="st1" d="M296.8,342.4c3,0.5,5.9-1.6,6.4-4.6c0.5-3-1.6-5.9-4.6-6.4l-12.4-2c-0.9,0.7-1.5,1.7-1.9,2.8
					c-0.4,1.2-0.5,2.5-0.2,3.7l11,6C295.6,342.1,296.2,342.3,296.8,342.4z"/>
				<path class="st1" d="M300.6,331.3c3,0.5,5.9-1.6,6.4-4.6c0.5-3-1.6-5.9-4.6-6.4l-12.6-2.1c-0.6,0.7-1.2,1.5-1.5,2.4
					c-0.5,1.5-0.5,3,0,4.4l10.5,5.7C299.4,331,300,331.2,300.6,331.3z"/>
			</g>
		</g>
		<path class="st3" d="M315.4,308.9c-2.2-0.8-4.5-1.5-6.8-2c-1.9-0.4-3.8-0.6-5.7-0.2c-2.3,0.5-4.2,2.1-5,4.3
			c-0.9,2.5-0.2,5.1,1.6,7.1c-2.6,0.4-4.8,2-5.7,4.5c-0.9,2.5-0.2,5.1,1.6,7.1c-2.6,0.4-4.8,2-5.7,4.5c-0.9,2.5-0.2,5.1,1.6,7.1
			c-2.6,0.4-4.8,2-5.7,4.5c-1,2.9,0.1,6.1,2.7,8l0,0c0.1,0,0.1,0.1,0.2,0.1c0.4,0.3,0.9,0.6,1.4,0.8c3.2,1.8,6.9,3.4,11.2,4.7
			c27.9,8.7,70.9,3.5,73.5-4.8c0.4-1.4-0.2-2.9-0.7-4.1c-1-2.1-2.4-3.9-3.8-5.7c-4.3-5.2-9.5-9.7-14.8-13.8
			c-6.5-5.1-13.4-9.6-20.6-13.6c-4.3-2.4-8.8-4.5-13.4-6.3C319.3,310.3,317.4,309.6,315.4,308.9z"/>
		<g>
			<g>
				<path class="st6" d="M290.3,353.2c-1-0.5-1.9-1-2.8-1.5c-0.9-0.5-1.8-1-2.6-1.5c-1.7-1.1-3.5-2.1-5.1-3.3
					c-1.7-1.1-3.3-2.3-4.9-3.5l-4.8-3.5c-0.6-0.4-0.7-1.2-0.3-1.8c0.3-0.5,0.9-0.6,1.4-0.5l5.7,1.6c1.9,0.5,3.8,1,5.6,1.5
					c1.9,0.4,3.7,0.8,5.6,1.2c0.9,0.2,1.9,0.3,2.8,0.5c0.9,0.1,1.9,0.3,2.7,0.4c3.1,0.3,5.4,3,5.1,6.1c-0.3,3.1-3,5.4-6.1,5.1
					c-0.7-0.1-1.4-0.2-2-0.5L290.3,353.2z"/>
				<path class="st6" d="M301.9,318.2c-0.7-0.4-1.5-0.9-2.3-1.4c-0.8-0.5-1.6-0.9-2.5-1.3c-1.7-0.9-3.4-1.7-5.1-2.5
					c-1.7-0.8-3.5-1.5-5.3-2.3l-5.4-2.2c-0.7-0.3-1-1-0.7-1.7c0.2-0.5,0.7-0.8,1.2-0.8l5.9,0.2c1.9,0.1,4,0.1,6,0.3
					c2,0.1,4,0.3,6.1,0.6c1,0.1,2,0.3,3,0.4c1,0.2,2,0.3,3.1,0.5l0.3,0.1c3,0.6,5,3.6,4.4,6.7c-0.6,3-3.6,5-6.7,4.4
					C303.1,318.8,302.5,318.5,301.9,318.2z"/>
				<path class="st6" d="M271.8,326.4l25,4.1c3,0.5,5.1,3.4,4.6,6.4c-0.5,3-3.4,5.1-6.4,4.6c-0.6-0.1-1.2-0.3-1.8-0.6L271,328.8
					c-0.6-0.3-0.9-1.1-0.5-1.8C270.7,326.6,271.3,326.3,271.8,326.4z"/>
				<path class="st6" d="M275.6,315.3l25,4.1c3,0.5,5.1,3.4,4.6,6.4c-0.5,3-3.4,5.1-6.4,4.6c-0.6-0.1-1.2-0.3-1.8-0.6l-22.3-12.1
					c-0.6-0.3-0.9-1.1-0.5-1.8C274.5,315.5,275.1,315.2,275.6,315.3z"/>
			</g>
		</g>
		<path class="st4" d="M314.5,308.6c-2.2-0.8-4.5-1.5-6.8-2c-1.9-0.4-3.8-0.6-5.7-0.2c-2.3,0.5-4.2,2.1-5,4.3
			c-0.9,2.5-0.2,5.1,1.6,7.1c-2.6,0.4-4.8,2-5.7,4.5c-0.9,2.5-0.2,5.1,1.6,7.1c-2.6,0.4-4.8,2-5.7,4.5c-0.9,2.5-0.2,5.1,1.6,7.1
			c-2.6,0.4-4.8,2-5.7,4.5c-1,2.9,0.1,6.1,2.7,8l0,0c0.1,0,0.1,0.1,0.2,0.1c0.4,0.3,0.9,0.6,1.4,0.8c3.2,1.8,6.9,3.4,11.2,4.7
			c27.9,8.7,70.9,3.5,73.5-4.8c0.4-1.4-0.2-2.9-0.7-4.1c-1-2.1-2.4-3.9-3.8-5.7c-4.3-5.2-9.5-9.7-14.8-13.8
			c-6.5-5.1-13.4-9.6-20.6-13.6c-4.3-2.4-8.8-4.5-13.4-6.3C318.4,310,316.4,309.2,314.5,308.6z"/>
		<path class="st5" d="M362.1,337.2c0.8,4.4,0.6,9-1,13.5c-1.5,4.5-4.2,8.3-7.5,11.2"/>
		<path class="st5" d="M351.5,328.9c2.5,6.2,2.8,13.1,0.6,19.7c-2.1,6.1-6.1,11.1-11.2,14.4"/>
		<path class="st5" d="M339.5,320.8c3.8,7.4,4.8,16.3,1.9,24.7c-2.7,7.9-8.3,14-15.3,17.7"/>
	</g>
</g>
</svg>
