<?xml version="1.0" encoding="utf-8"?>
<!-- Generator: Adobe Illustrator 22.1.0, SVG Export Plug-In . SVG Version: 6.00 Build 0)  -->
<svg version="1.1" xmlns="http://www.w3.org/2000/svg" xmlns:xlink="http://www.w3.org/1999/xlink" x="0px" y="0px"
	 viewBox="0 0 566.9 566.9" style="enable-background:new 0 0 566.9 566.9;" xml:space="preserve">
<style type="text/css">
	.st0{fill:#FACEE1;}
	.st1{fill:#E2B7CC;}
	.st2{fill:none;stroke:#EBA5BD;stroke-width:2;stroke-linecap:round;stroke-linejoin:round;stroke-miterlimit:10;}
	.st3{fill-rule:evenodd;clip-rule:evenodd;fill:#EDA5BD;}
	.st4{fill:none;stroke:#B66E87;stroke-width:3;stroke-linecap:round;stroke-linejoin:round;stroke-miterlimit:10;}
	.st5{fill:none;stroke:#B66E87;stroke-width:2;stroke-linecap:round;stroke-linejoin:round;stroke-miterlimit:10;}
	.st6{fill:#EDA5BD;}
	.st7{fill:none;stroke:#B26E85;stroke-width:3;stroke-linejoin:round;stroke-miterlimit:10;}
	.st8{fill:#FFF4EC;}
	.st9{filter:url(#Adobe_OpacityMaskFilter);}
	.st10{fill:url(#SVGID_2_);}
	.st11{opacity:0.55;mask:url(#SVGID_1_);fill:#E77868;}
	.st12{fill:none;stroke:#DCD2C8;stroke-width:3;stroke-miterlimit:10;}
	.st13{filter:url(#Adobe_OpacityMaskFilter_1_);}
	.st14{fill:url(#SVGID_4_);}
	.st15{mask:url(#SVGID_3_);fill:none;stroke:#C65F53;stroke-width:3;stroke-miterlimit:10;}
	.st16{fill:#F2B9D5;}
	.st17{fill:none;stroke:#EDA5BD;stroke-width:3;stroke-linecap:round;stroke-linejoin:round;stroke-miterlimit:10;}
	.st18{fill:none;stroke:#DDD3C8;stroke-width:3;stroke-linecap:round;stroke-miterlimit:10;}
	.st19{fill:none;stroke:#11110E;stroke-width:2;stroke-linecap:round;stroke-miterlimit:10;}
	.st20{fill:#020202;}
	.st21{fill:none;stroke:#020202;stroke-width:3;stroke-linecap:round;stroke-miterlimit:10;}
	.st22{fill:#E77868;}
	.st23{fill:none;stroke:#CE9485;stroke-width:3;stroke-linecap:round;stroke-miterlimit:10;}
</style>
<g id="back_background_paw">
	<g>
		<g>
			<path class="st0" d="M282.5,399.9l-1.5-9c2-0.8,4-1.3,6-1.7c2-0.4,4.1-0.6,6.1-0.7c2.1-0.1,4.1,0,6.2,0.1c1,0,2.1,0.1,3.1,0.2
				c1,0.1,2.1,0.1,3.1,0.3c1,0.1,2.1,0.2,3.1,0.3c1,0.1,2,0.2,3,0.4c2,0.3,4.1,0.6,6.1,0.9c4,0.7,8.1,1.4,12.1,2.5
				c-10.4,0-25.8,0.6-38.9,3.8C287.6,397.9,284.7,398.9,282.5,399.9z"/>
			<path class="st1" d="M318.3,397.1c-2,0.6-4,1.1-6,1.6c-1,0.3-2,0.5-3,0.7l-2.9,0.7l-5.8,1.5c-1.9,0.5-3.8,1-5.8,1.4
				c-1.9,0.4-3.9,0.7-5.9,0.9c-2,0.2-4,0.3-5.9,0.1l-0.6-4c2.3-1,5.1-2,8.7-2.9c13.1-3.2,28.5-3.8,38.9-3.8c0,0,0.1,0,0.1,0
				C326.2,394.7,322.3,396,318.3,397.1z"/>
			<path class="st2" d="M282.6,399.6l-1.5-9c2-0.8,4-1.3,6-1.7c2-0.4,4.1-0.6,6.1-0.7c2.1-0.1,4.1,0,6.2,0.1c1,0,2.1,0.1,3.1,0.2
				c1,0.1,2.1,0.1,3.1,0.3c1,0.1,2.1,0.2,3.1,0.3c1,0.1,2,0.2,3,0.4c2,0.3,4.1,0.6,6.1,0.9c4,0.7,8.1,1.4,12.1,2.5c0,0,0.1,0,0.1,0
				c-3.9,1.5-7.9,2.7-11.9,3.8c-2,0.6-4,1.1-6,1.6c-1,0.3-2,0.5-3,0.7l-2.9,0.7l-5.8,1.5c-1.9,0.5-3.8,1-5.8,1.4
				c-1.9,0.4-3.9,0.7-5.9,0.9c-2,0.2-4,0.3-5.9,0.1L282.6,399.6z"/>
		</g>
		<g>
			<path class="st0" d="M281.9,398.4l-0.3-9.1c2.1-0.6,4.1-0.8,6.2-0.9c2-0.1,4.1,0,6.2,0.2c2.1,0.2,4.1,0.5,6.2,0.9
				c1,0.2,2.1,0.4,3.1,0.6c1,0.2,2.1,0.4,3.1,0.7c1,0.2,2.1,0.5,3.1,0.8c1,0.3,2,0.5,3,0.8c2,0.5,4,1.1,5.9,1.7
				c3.9,1.2,7.8,2.5,11.7,4.1c-10.3-1.4-25.7-2.8-39.1-1.4C287.2,397.1,284.2,397.7,281.9,398.4z"/>
			<path class="st1" d="M317.8,400.4c-2,0.3-4.1,0.5-6.1,0.8c-1,0.1-2,0.2-3.1,0.3l-2.9,0.3l-5.9,0.7c-2,0.2-3.9,0.5-5.9,0.6
				c-2,0.1-3.9,0.2-5.9,0.1c-2-0.1-4-0.2-5.9-0.7l-0.1-4.1c2.4-0.7,5.3-1.3,9-1.7c13.4-1.4,28.7,0,39.1,1.4c0,0,0.1,0,0.1,0
				C325.9,399.1,321.9,399.8,317.8,400.4z"/>
			<path class="st2" d="M282.1,398.1l-0.3-9.1c2.1-0.6,4.1-0.8,6.2-0.9c2-0.1,4.1,0,6.2,0.2c2.1,0.2,4.1,0.5,6.2,0.9
				c1,0.2,2.1,0.4,3.1,0.6c1,0.2,2.1,0.4,3.1,0.7c1,0.2,2.1,0.5,3.1,0.8c1,0.3,2,0.5,3,0.8c2,0.5,4,1.1,5.9,1.7
				c3.9,1.2,7.8,2.5,11.7,4.1c0,0,0.1,0,0.1,0c-4.1,1-8.2,1.6-12.3,2.2c-2,0.3-4.1,0.5-6.1,0.8c-1,0.1-2,0.2-3.1,0.3l-2.9,0.3
				l-5.9,0.7c-2,0.2-3.9,0.5-5.9,0.6c-2,0.1-3.9,0.2-5.9,0.1c-2-0.1-4-0.2-5.9-0.7L282.1,398.1z"/>
		</g>
		<g>
			<path class="st0" d="M281.2,403.8l-0.3-9.1c2.1-0.6,4.1-0.8,6.2-0.9c2-0.1,4.1,0,6.2,0.2c2.1,0.2,4.1,0.5,6.2,0.9
				c1,0.2,2.1,0.4,3.1,0.6c1,0.2,2.1,0.4,3.1,0.7c1,0.2,2.1,0.5,3.1,0.8c1,0.3,2,0.5,3,0.8c2,0.5,4,1.1,5.9,1.7
				c3.9,1.2,7.8,2.5,11.7,4.1c-10.3-1.4-25.7-2.8-39.1-1.4C286.5,402.4,283.6,403,281.2,403.8z"/>
			<path class="st1" d="M317.1,405.7c-2,0.3-4.1,0.5-6.1,0.8c-1,0.1-2,0.2-3.1,0.3l-2.9,0.3l-5.9,0.7c-2,0.2-3.9,0.5-5.9,0.6
				c-2,0.1-3.9,0.2-5.9,0.1c-2-0.1-4-0.2-5.9-0.7l-0.1-4.1c2.4-0.7,5.3-1.3,9-1.7c13.4-1.4,28.7,0,39.1,1.4c0,0,0.1,0,0.1,0
				C325.3,404.5,321.2,405.2,317.1,405.7z"/>
			<path class="st2" d="M281.4,403.5l-0.3-9.1c2.1-0.6,4.1-0.8,6.2-0.9c2-0.1,4.1,0,6.2,0.2c2.1,0.2,4.1,0.5,6.2,0.9
				c1,0.2,2.1,0.4,3.1,0.6c1,0.2,2.1,0.4,3.1,0.7c1,0.2,2.1,0.5,3.1,0.8c1,0.3,2,0.5,3,0.8c2,0.5,4,1.1,5.9,1.7
				c3.9,1.2,7.8,2.5,11.7,4.1c0,0,0.1,0,0.1,0c-4.1,1-8.2,1.6-12.3,2.2c-2,0.3-4.1,0.5-6.1,0.8c-1,0.1-2,0.2-3.1,0.3l-2.9,0.3
				l-5.9,0.7c-2,0.2-3.9,0.5-5.9,0.6c-2,0.1-3.9,0.2-5.9,0.1c-2-0.1-4-0.2-5.9-0.7L281.4,403.5z"/>
		</g>
		<g>
			<path class="st0" d="M273.2,412.4l-0.3-9.1c2.1-0.6,4.1-0.8,6.2-0.9c2.1-0.1,4.1,0,6.2,0.2c2.1,0.2,4.1,0.5,6.2,0.9
				c1,0.2,2.1,0.4,3.1,0.6c1,0.2,2.1,0.4,3.1,0.7c1,0.2,2.1,0.5,3.1,0.8c1,0.3,2,0.5,3,0.8c2,0.5,4,1.1,6,1.7
				c3.9,1.2,7.8,2.5,11.8,4c-10.4-1.4-25.7-2.8-39.2-1.3C278.5,411,275.6,411.6,273.2,412.4z"/>
			<path class="st1" d="M309.2,414.2c-2,0.3-4.1,0.5-6.1,0.8c-1,0.1-2,0.2-3.1,0.3l-3,0.3l-5.9,0.7c-2,0.2-4,0.5-5.9,0.6
				c-2,0.1-4,0.2-5.9,0.1c-2-0.1-4-0.2-5.9-0.7l-0.1-4c2.4-0.7,5.4-1.3,9-1.7c13.4-1.4,28.8,0,39.2,1.3c0,0,0.1,0,0.1,0
				C317.4,413,313.3,413.7,309.2,414.2z"/>
			<path class="st2" d="M273.4,412l-0.3-9.1c2.1-0.6,4.1-0.8,6.2-0.9c2.1-0.1,4.1,0,6.2,0.2c2.1,0.2,4.1,0.5,6.2,0.9
				c1,0.2,2.1,0.4,3.1,0.6c1,0.2,2.1,0.4,3.1,0.7c1,0.2,2.1,0.5,3.1,0.8c1,0.3,2,0.5,3,0.8c2,0.5,4,1.1,6,1.7
				c3.9,1.2,7.8,2.5,11.8,4c0,0,0.1,0,0.1,0c-4.1,1-8.2,1.6-12.3,2.2c-2,0.3-4.1,0.5-6.1,0.8c-1,0.1-2,0.2-3.1,0.3l-3,0.3l-5.9,0.7
				c-2,0.2-4,0.5-5.9,0.6c-2,0.1-4,0.2-5.9,0.1c-2-0.1-4-0.2-5.9-0.7L273.4,412z"/>
		</g>
		<path class="st3" d="M221.8,370.7c-3.3,3.8,1.4,26.2,28,38c25.6,11.4,41.1,7.3,41.1,7.3s-12.9-2.1-12.8-8.7
			c0.1-6.6,11.2-5.1,11.2-5.1s-9.4-2.1-7.8-6c1.6-3.9,9.6-2.9,9.6-2.9s-4.5-0.1-5-2.4c-0.4-2.3,7.6-3,7.6-3s-22.6-0.8-37.6-4.8
			C240,378.8,227.1,364.6,221.8,370.7z"/>
		<path class="st4" d="M221.8,370.7c-3.3,3.8,1.4,26.2,28,38c25.6,11.4,41.1,7.3,41.1,7.3s-12.9-2.1-12.8-8.7
			c0.1-6.6,11.2-5.1,11.2-5.1s-9.4-2.1-7.8-6c1.6-3.9,9.6-2.9,9.6-2.9s-4.5-0.1-5-2.4c-0.4-2.3,7.6-3,7.6-3s-22.6-0.8-37.6-4.8
			C240,378.8,227.1,364.6,221.8,370.7z"/>
		<path class="st5" d="M249.7,380.9c0,0-7.8,0.8-9,9.2c-1.1,8.4,3.7,15.9,3.7,15.9"/>
		<path class="st5" d="M240.3,375.8c0,0-7.5,0.8-8.6,8.8s3.5,15.2,3.5,15.2"/>
		<path class="st5" d="M232.1,371.2c0,0-6.3,0.6-7.2,7.4c-0.9,6.8,3,12.8,3,12.8"/>
	</g>
</g>
<g id="front_background_paw">
	<g>
		<g>
			<path class="st0" d="M432.8,361l1.8-16.1c3.2-0.4,6.2-0.1,9.2,0.3c3,0.4,6,1.2,8.9,2.1c3,0.9,5.9,2.1,8.8,3.4
				c1.5,0.6,2.9,1.3,4.4,1.9c1.4,0.7,2.9,1.3,4.3,2.1c1.4,0.7,2.9,1.5,4.3,2.2c1.4,0.8,2.8,1.5,4.1,2.3c2.8,1.5,5.5,3.1,8.2,4.8
				c5.4,3.2,10.8,6.7,16.1,10.6c-14.7-5.5-36.7-12.5-56.6-14C440.9,360.2,436.4,360.4,432.8,361z"/>
			<path class="st1" d="M484.7,375c-3-0.1-6.1-0.3-9.1-0.5c-1.5-0.1-3-0.2-4.5-0.3l-4.4-0.3l-8.8-0.5c-2.9-0.2-5.9-0.3-8.8-0.7
				c-2.9-0.4-5.8-0.8-8.7-1.6c-2.8-0.7-5.7-1.6-8.4-3l0.8-7.1c3.6-0.6,8.1-0.8,13.5-0.4c19.9,1.5,41.9,8.5,56.6,14
				c0.1,0,0.1,0.1,0.2,0.1C496.9,375.2,490.8,375.2,484.7,375z"/>
			<path class="st2" d="M433.2,360.5l1.8-16.1c3.2-0.4,6.2-0.1,9.2,0.3c3,0.4,6,1.2,8.9,2.1c3,0.9,5.9,2.1,8.8,3.4
				c1.5,0.6,2.9,1.3,4.4,1.9c1.4,0.7,2.9,1.3,4.3,2.1c1.4,0.7,2.9,1.5,4.3,2.2c1.4,0.8,2.8,1.5,4.1,2.3c2.8,1.5,5.5,3.1,8.2,4.8
				c5.4,3.2,10.8,6.7,16.1,10.6c0.1,0,0.1,0.1,0.2,0.1c-6.2,0.5-12.3,0.5-18.4,0.2c-3-0.1-6.1-0.3-9.1-0.5c-1.5-0.1-3-0.2-4.5-0.3
				l-4.4-0.3l-8.8-0.5c-2.9-0.2-5.9-0.3-8.8-0.7c-2.9-0.4-5.8-0.8-8.7-1.6c-2.8-0.7-5.7-1.6-8.4-3L433.2,360.5z"/>
			<path class="st3" d="M471.8,353.4c-12.8-6.3-26-11.3-39.5-15c-13.3-3.6-27.4-5.8-40.6-0.3c-5,2.1-11,6.4-10.7,13.9
				c0.2,6.9,5.9,11.8,10.4,14.5c11.7,7.2,27.2,6.2,40,6.6c8.7,0.3,17.4,0.3,26,0.2c0,0,0.1,0,0.2,0c0,0-2.8-4.1-0.9-10.4
				C458.7,356.8,471.8,353.4,471.8,353.4z"/>
			<path class="st4" d="M471.8,353.4c-12.8-6.3-26-11.3-39.5-15c-13.3-3.6-27.4-5.8-40.6-0.3c-5,2.1-11,6.4-10.7,13.9
				c0.2,6.9,5.9,11.8,10.4,14.5c11.7,7.2,27.2,6.2,40,6.6c8.7,0.3,17.4,0.3,26,0.2c0,0,0.1,0,0.2,0c0,0-2.8-4.1-0.9-10.4
				C458.7,356.8,471.8,353.4,471.8,353.4z"/>
			<path class="st5" d="M427.9,337c0,0-9.1,5.3-11.2,16.8c-2.1,11.5,2,19.2,2,19.2"/>
			<path class="st5" d="M412.8,335.3c0,0-7.2,4.4-8.7,15.2c-1.8,12.5,2.8,21.5,2.8,21.5"/>
			<path class="st5" d="M396.8,336.5c0,0-6.2,7.9-5.7,17.9c0.4,10,3.4,14,3.4,14"/>
		</g>
		<path class="st0" d="M433,361.2l2.6-15.9c3.2-0.1,6.2,0.4,9.2,1.1c3,0.7,5.9,1.7,8.8,2.8c2.9,1.2,5.7,2.6,8.6,4.1
			c1.4,0.7,2.8,1.5,4.2,2.3c1.4,0.8,2.8,1.6,4.2,2.4c1.4,0.8,2.8,1.7,4.2,2.6c1.3,0.9,2.7,1.7,4,2.6c2.7,1.8,5.3,3.6,8,5.4
			c5.2,3.7,10.4,7.6,15.5,11.9c-14.4-6.7-36-15.5-55.7-18.6C441.1,361.1,436.7,360.9,433,361.2z"/>
		<path class="st1" d="M484,379.4c-3-0.4-6.1-0.8-9.1-1.2c-1.5-0.2-3-0.5-4.5-0.7l-4.4-0.7l-8.7-1.3c-2.9-0.4-5.8-0.8-8.7-1.4
			c-2.9-0.6-5.7-1.3-8.6-2.3c-2.8-1-5.6-2.1-8.3-3.7l1.2-7c3.7-0.3,8.1-0.1,13.5,0.8c19.8,3.1,41.3,11.9,55.7,18.6
			c0.1,0,0.1,0.1,0.2,0.1C496.2,380.7,490.1,380.1,484,379.4z"/>
		<path class="st2" d="M433.4,360.7l2.6-15.9c3.2-0.1,6.2,0.4,9.2,1.1c3,0.7,5.9,1.7,8.8,2.8c2.9,1.2,5.7,2.6,8.6,4.1
			c1.4,0.7,2.8,1.5,4.2,2.3c1.4,0.8,2.8,1.6,4.2,2.4c1.4,0.8,2.8,1.7,4.2,2.6c1.3,0.9,2.7,1.7,4,2.6c2.7,1.8,5.3,3.6,8,5.4
			c5.2,3.7,10.4,7.6,15.5,11.9c0.1,0,0.1,0.1,0.2,0.1c-6.2,0-12.3-0.6-18.4-1.3c-3-0.4-6.1-0.8-9.1-1.2c-1.5-0.2-3-0.5-4.5-0.7
			l-4.4-0.7l-8.7-1.3c-2.9-0.4-5.8-0.8-8.7-1.4c-2.9-0.6-5.7-1.3-8.6-2.3c-2.8-1-5.6-2.1-8.3-3.7L433.4,360.7z"/>
		<path class="st3" d="M472.3,356.9c-12.5-7.3-25.3-13.5-38.6-18.2c-13-4.7-27.1-8.1-40.5-3.6c-5.1,1.7-11.3,5.5-11.5,13
			c-0.2,6.9,5.3,12.2,9.6,15.3c11.3,8.2,26.8,8.4,39.6,9.9c8.6,1,17.3,1.8,26,2.3c0,0,0.1,0,0.2,0c0,0-2.6-4.3-0.3-10.4
			C459,359.2,472.3,356.9,472.3,356.9z"/>
		<path class="st4" d="M472.3,356.9c-12.5-7.3-25.3-13.5-38.6-18.2c-13-4.7-27.1-8.1-40.5-3.6c-5.1,1.7-11.3,5.5-11.5,13
			c-0.2,6.9,5.3,12.2,9.6,15.3c11.3,8.2,26.8,8.4,39.6,9.9c8.6,1,17.3,1.8,26,2.3c0,0,0.1,0,0.2,0c0,0-2.6-4.3-0.3-10.4
			C459,359.2,472.3,356.9,472.3,356.9z"/>
		<path class="st5" d="M429.4,336.8c0,0-9.4,4.5-12.1,15.8c-2.7,11.3,1,19.4,1,19.4"/>
		<path class="st5" d="M414.4,333.9c0,0-7.4,3.8-9.5,14.4c-2.4,12.3,1.6,21.7,1.6,21.7"/>
		<path class="st5" d="M398.4,333.7c0,0-6.6,7.3-6.7,17.4c-0.1,10,2.6,14.2,2.6,14.2"/>
		<path class="st0" d="M428.3,364.2l2.7-16.3c3.3-0.1,6.3,0.4,9.4,1.1c3.1,0.7,6.1,1.7,9,2.9c3,1.2,5.9,2.7,8.8,4.2
			c1.5,0.8,2.9,1.5,4.4,2.4c1.4,0.8,2.9,1.6,4.3,2.5c1.4,0.9,2.9,1.8,4.3,2.7c1.4,0.9,2.8,1.8,4.1,2.7c2.7,1.8,5.5,3.7,8.2,5.6
			c5.4,3.8,10.7,7.8,15.9,12.2c-14.8-6.9-37-16-57.3-19.2C436.7,364.1,432.1,363.9,428.3,364.2z"/>
		<path class="st1" d="M480.8,383c-3.1-0.4-6.2-0.8-9.3-1.3c-1.6-0.2-3.1-0.5-4.6-0.7l-4.5-0.7l-9-1.3c-3-0.4-6-0.8-9-1.4
			c-3-0.6-5.9-1.4-8.8-2.3c-2.9-1-5.8-2.1-8.5-3.8l1.2-7.2c3.8-0.3,8.3-0.1,13.9,0.8c20.3,3.2,42.5,12.3,57.3,19.2
			c0.1,0,0.1,0.1,0.2,0.1C493.3,384.2,487,383.7,480.8,383z"/>
		<path class="st2" d="M428.8,363.8l2.7-16.3c3.3-0.1,6.3,0.4,9.4,1.1c3.1,0.7,6.1,1.7,9,2.9c3,1.2,5.9,2.7,8.8,4.2
			c1.5,0.8,2.9,1.5,4.4,2.4c1.4,0.8,2.9,1.6,4.3,2.5c1.4,0.9,2.9,1.8,4.3,2.7c1.4,0.9,2.8,1.8,4.1,2.7c2.7,1.8,5.5,3.7,8.2,5.6
			c5.4,3.8,10.7,7.8,15.9,12.2c0.1,0,0.1,0.1,0.2,0.1c-6.4-0.1-12.7-0.6-18.9-1.3c-3.1-0.4-6.2-0.8-9.3-1.3
			c-1.6-0.2-3.1-0.5-4.6-0.7l-4.5-0.7l-9-1.3c-3-0.4-6-0.8-9-1.4c-3-0.6-5.9-1.4-8.8-2.3c-2.9-1-5.8-2.1-8.5-3.8L428.8,363.8z"/>
		<path class="st3" d="M468.7,359.8c-12.8-7.5-26.1-13.8-39.7-18.7c-13.4-4.8-27.8-8.3-41.6-3.7c-5.2,1.7-11.6,5.6-11.8,13.4
			c-0.2,7.1,5.4,12.6,9.9,15.8c11.6,8.4,27.6,8.7,40.7,10.2c8.9,1,17.8,1.8,26.7,2.4c0,0,0.1,0,0.2,0c0,0-2.7-4.5-0.3-10.7
			C455.1,362.2,468.7,359.8,468.7,359.8z"/>
		<path class="st4" d="M468.7,359.8c-12.8-7.5-26.1-13.8-39.7-18.7c-13.4-4.8-27.8-8.3-41.6-3.7c-5.2,1.7-11.6,5.6-11.8,13.4
			c-0.2,7.1,5.4,12.6,9.9,15.8c11.6,8.4,27.6,8.7,40.7,10.2c8.9,1,17.8,1.8,26.7,2.4c0,0,0.1,0,0.2,0c0,0-2.7-4.5-0.3-10.7
			C455.1,362.2,468.7,359.8,468.7,359.8z"/>
		<path class="st5" d="M424.7,339.2c0,0-9.6,4.7-12.4,16.2c-2.8,11.6,1,19.9,1,19.9"/>
		<path class="st5" d="M409.3,336.2c0,0-7.6,3.9-9.7,14.8c-2.5,12.6,1.7,22.3,1.7,22.3"/>
		<path class="st5" d="M392.8,336c0,0-6.7,7.5-6.9,17.8c-0.1,10.3,2.7,14.6,2.7,14.6"/>
	</g>
</g>
<g id="Tail">
	<g>
		<g>
			<path class="st6" d="M4.3,342.7c13,7.2,27.1,11.4,41.2,12.9c3.5,0.4,7.1,0.6,10.6,0.7c3.5,0.1,7,0.1,10.5-0.1
				c7-0.3,13.9-1.3,20.7-2.6c13.5-2.7,26.5-7.2,38.2-13.2c5.9-3,11.3-6.4,15.8-10.1c4.5-3.7,8-7.6,10.4-11.5l34.4,32
				c-7.7,6.8-16.2,11.7-24.5,15.3c-8.3,3.6-16.6,5.9-24.6,7.6c-16.2,3.5-32.5,4.4-48.4,3.3c-7.9-0.6-15.8-1.7-23.5-3.4
				c-3.8-0.8-7.6-1.8-11.4-2.9c-3.7-1.2-7.4-2.4-11-3.8C28.1,361.3,14.9,353.1,4.3,342.7z"/>
			<path class="st7" d="M4.3,342.7c13,7.2,27.1,11.4,41.2,12.9c3.5,0.4,7.1,0.6,10.6,0.7c3.5,0.1,7,0.1,10.5-0.1
				c7-0.3,13.9-1.3,20.7-2.6c13.5-2.7,26.5-7.2,38.2-13.2c5.9-3,11.3-6.4,15.8-10.1c4.5-3.7,8-7.6,10.4-11.5l34.4,32
				c-7.7,6.8-16.2,11.7-24.5,15.3c-8.3,3.6-16.6,5.9-24.6,7.6c-16.2,3.5-32.5,4.4-48.4,3.3c-7.9-0.6-15.8-1.7-23.5-3.4
				c-3.8-0.8-7.6-1.8-11.4-2.9c-3.7-1.2-7.4-2.4-11-3.8C28.1,361.3,14.9,353.1,4.3,342.7z"/>
		</g>
		<path class="st7" d="M21.4,357.3c0.8-2.6,2-4.9,3.6-6.9"/>
		<path class="st7" d="M69.8,374.5c-1.2-3.4-1.5-7.1-0.9-11c0.5-2.7,1.3-5.2,2.6-7.4"/>
		<path class="st7" d="M41.4,366.5c-0.2-3.9,0.6-7.7,2.5-11.1"/>
		<path class="st7" d="M54.7,371.7c-0.4-1.8-0.7-3.6-0.6-5.5c0.1-3.5,1-6.7,2.5-9.5"/>
		<path class="st7" d="M31,361.8c0.4-2.8,1.4-5.5,3-8"/>
		<path class="st7" d="M87.6,377.6c-1.1-2.4-1.8-5-2.2-7.7c-0.8-5.7,0-11.3,2.1-16.2"/>
		<path class="st7" d="M107.6,378.3c-5.1-9-5.8-20-1.7-29.6"/>
		<path class="st7" d="M127.7,375.5c-7.1-9.4-9.4-21.7-6.2-33.1"/>
		<path class="st7" d="M151.4,370.5c-10-9.5-15.2-23.3-13.7-37.2"/>
	</g>
</g>
<g id="Body">
	<path class="st8" d="M562.5,349.5c0,17.8-28.7-4.5-80.6,5.1c-72.7,13.4-169,52.9-227.9,52.9c-89.2,0-122.5-42.5-122.5-95
		s62.3-117,151.5-117S562.5,297.1,562.5,349.5z"/>
	<defs>
		<filter id="Adobe_OpacityMaskFilter" filterUnits="userSpaceOnUse" x="99.1" y="141.4" width="463.4" height="266.1">
			<feColorMatrix  type="matrix" values="1 0 0 0 0  0 1 0 0 0  0 0 1 0 0  0 0 0 1 0"/>
		</filter>
	</defs>
	<mask maskUnits="userSpaceOnUse" x="99.1" y="141.4" width="463.4" height="266.1" id="SVGID_1_">
		<g class="st9">
			<radialGradient id="SVGID_2_" cx="582.7189" cy="352.4794" r="274.4922" gradientUnits="userSpaceOnUse">
				<stop  offset="0" style="stop-color:#FFFFFF"/>
				<stop  offset="0.1732" style="stop-color:#C5C5C5"/>
				<stop  offset="0.3988" style="stop-color:#808080"/>
				<stop  offset="0.6025" style="stop-color:#494949"/>
				<stop  offset="0.7769" style="stop-color:#212121"/>
				<stop  offset="0.9151" style="stop-color:#090909"/>
				<stop  offset="1" style="stop-color:#000000"/>
			</radialGradient>
			<path class="st10" d="M562.2,346.2c0.2-0.3,0.3-0.6,0.2-1c-3.2-14-8.1-25.7-13.8-39.2c-16-38.4-44.3-77.6-81.6-107.2
				c-35.1-27.9-77.8-47-122-54.5c-46.2-7.8-95.5-0.3-135.6,24.5c-19.5,12.1-35.3,29-57.1,37.4c-9.8,3.8-21.4,6.5-31.7,3.1
				c-1.7-0.5-3.5-1.2-4.9-2.3c0,0-21.3,37.3-15.7,86c5.7,48.7,45.7,83.3,45.7,83.3s1.3-2.5,4.1-6.7c18.4,22.9,51.5,37.7,104.1,37.7
				c58.9,0,155.2-39.5,227.9-52.9c51.9-9.6,80.6,12.8,80.6-5.1C562.5,348.5,562.4,347.4,562.2,346.2z"/>
		</g>
	</mask>
	<path class="st11" d="M562.2,346.2c0.2-0.3,0.3-0.6,0.2-1c-3.2-14-8.1-25.7-13.8-39.2c-16-38.4-44.3-77.6-81.6-107.2
		c-35.1-27.9-77.8-47-122-54.5c-46.2-7.8-95.5-0.3-135.6,24.5c-19.5,12.1-35.3,29-57.1,37.4c-9.8,3.8-21.4,6.5-31.7,3.1
		c-1.7-0.5-3.5-1.2-4.9-2.3c0,0-21.3,37.3-15.7,86c5.7,48.7,45.7,83.3,45.7,83.3s1.3-2.5,4.1-6.7c18.4,22.9,51.5,37.7,104.1,37.7
		c58.9,0,155.2-39.5,227.9-52.9c51.9-9.6,80.6,12.8,80.6-5.1C562.5,348.5,562.4,347.4,562.2,346.2z"/>
	<path class="st12" d="M562.5,349.5c0,17.8-28.7-4.5-80.6,5.1c-72.7,13.4-169,52.9-227.9,52.9c-89.2,0-122.5-42.5-122.5-95
		s62.3-117,151.5-117S562.5,297.1,562.5,349.5z"/>
	<defs>
		<filter id="Adobe_OpacityMaskFilter_1_" filterUnits="userSpaceOnUse" x="130" y="194" width="434" height="215">
			<feColorMatrix  type="matrix" values="1 0 0 0 0  0 1 0 0 0  0 0 1 0 0  0 0 0 1 0"/>
		</filter>
	</defs>
	<mask maskUnits="userSpaceOnUse" x="130" y="194" width="434" height="215" id="SVGID_3_">
		<g class="st13">
			
				<radialGradient id="SVGID_4_" cx="427.7791" cy="389.6333" r="245.8057" gradientTransform="matrix(1.1762 0 0 1 99.4883 0)" gradientUnits="userSpaceOnUse">
				<stop  offset="0" style="stop-color:#FFFFFF"/>
				<stop  offset="0.1732" style="stop-color:#C5C5C5"/>
				<stop  offset="0.3988" style="stop-color:#808080"/>
				<stop  offset="0.6025" style="stop-color:#494949"/>
				<stop  offset="0.7769" style="stop-color:#212121"/>
				<stop  offset="0.9151" style="stop-color:#090909"/>
				<stop  offset="1" style="stop-color:#000000"/>
			</radialGradient>
			<rect x="107.1" y="192.3" class="st14" width="467.4" height="225.8"/>
		</g>
	</mask>
	<path class="st15" d="M562.5,349.5c0,17.8-28.7-4.5-80.6,5.1c-72.7,13.4-169,52.9-227.9,52.9c-89.2,0-122.5-42.5-122.5-95
		s62.3-117,151.5-117S562.5,297.1,562.5,349.5z"/>
	<path class="st0" d="M467.1,198.8c-35.1-27.9-77.8-47-122-54.5c-46.2-7.8-95.5-0.3-135.6,24.5c-19.5,12.1-35.3,29-57.1,37.4
		c-9.8,3.8-21.4,6.5-31.7,3.1c-1.7-0.5-3.5-1.2-4.9-2.3c0,0-21.3,37.3-15.7,86c5.7,48.7,45.7,83.3,45.7,83.3s47.3-87,167-121
		c45.3-8.9,92.4-6.6,137,9c63.2,22.1,99.4,66.5,110.4,81.7c0.8,1.1,2.6,0.3,2.3-1c-3.2-14-8.1-25.7-13.8-39.2
		C532.6,267.6,504.3,228.4,467.1,198.8z"/>
	<g>
		<polygon class="st16" points="159.3,356.6 159.3,356.6 159.3,356.6 		"/>
		<path class="st16" d="M117.2,207.9c0,0.1-0.1,0.1-0.1,0.2c0.7,0.4,1.4,0.7,2.1,0.9L117.2,207.9z"/>
		<path class="st16" d="M518.4,251.5c-0.2,0.1-0.4,0.3-0.6,0.4c0.6,0.8,1.2,1.6,1.8,2.5L518.4,251.5z"/>
		<path class="st16" d="M539.6,285.7c-0.1,0.1-0.3,0.2-0.4,0.3c1.1,2,2.1,4,3.1,6L539.6,285.7z"/>
		<polygon class="st16" points="523.5,307.2 523.5,307.2 523.5,307.2 		"/>
		<polygon class="st16" points="441.1,261.7 441.1,261.7 441.1,261.7 		"/>
		<polygon class="st16" points="363.1,250.4 363.1,250.4 363.1,250.4 		"/>
		<path class="st16" d="M134.4,326.2c-6.6-11.4-11.6-23.8-14.9-36.5c-3.3-12.8-4.8-26-4-39.2c0.8-13.2,4.2-26.2,10.4-37.8l-6.8-3.7
			c-0.7-0.3-1.4-0.6-2.1-0.9c-6.3,13.4-9.1,27.9-9.1,42c-0.1,14.1,2.4,27.9,6.6,40.9c4.2,13,10.1,25.3,17.6,36.5
			c7.4,11.2,16.4,21.4,27.1,29.1c0,0,0,0,0,0C149.1,348.3,140.9,337.6,134.4,326.2z"/>
		<path class="st16" d="M546.9,327.2c2-2.2,4.5-4,7.4-5l-2.4-6.6C548.7,319.3,547.3,323.5,546.9,327.2z"/>
		<path class="st16" d="M502.6,266.2c-4.2,5.6-7.3,11.8-9.3,18c3.1-5.6,7.2-10.8,12-15.1c4.8-4.3,10.3-7.8,16.2-10.4l-1.9-4.5
			c-0.6-0.8-1.2-1.6-1.8-2.5C511.9,255.9,506.7,260.8,502.6,266.2z"/>
		<path class="st16" d="M545.4,301.3c-2.3,2.4-4.3,5.1-6.1,7.8c-1.8,2.7-3.2,5.5-4.3,8.3c2-2,4.1-3.8,6.4-5.5
			c2.3-1.6,4.7-3.1,7.2-4.4L545.4,301.3z"/>
		<path class="st16" d="M516.1,280.7c-3.3,4.7-5.7,9.8-7,14.9c2.5-4.5,5.7-8.5,9.6-11.9c3.9-3.4,8.3-6,13.1-7.9l-2.9-7.5
			C523.8,271.8,519.4,276,516.1,280.7z"/>
		<path class="st16" d="M542.3,292.1l0-0.1c-1-2-2-4-3.1-6c-7.6,5.8-12.9,13.4-15.6,21.2c0,0,0,0,0,0
			C528.2,300.6,534.8,295.3,542.3,292.1z"/>
		<path class="st16" d="M479.9,210.2l-0.8-1.1c-1.9-1.7-3.8-3.3-5.7-5c-8.4,7.6-15.4,16.5-20.8,26c-5.7,10-9.5,20.8-11.5,31.7
			c0,0,0,0,0,0c3.4-10.4,8.5-20.2,15.1-29C462.8,223.9,470.8,216.3,479.9,210.2z"/>
		<path class="st16" d="M481.6,247.4c-4.9,7.6-8.3,15.7-10.3,24c3.4-7.7,8-14.8,13.6-21c5.6-6.2,12.3-11.4,19.7-15.4
			c-1.9-2.2-3.9-4.5-5.9-6.6C491.9,234,486.1,240.4,481.6,247.4z"/>
		<path class="st16" d="M406.8,252.7c1.9-13.3,6-26.3,12.1-38.3c6.1-12,14.2-23,23.9-32.3l-1-1c-2.4-1.5-4.9-3-7.4-4.4
			c-8.6,10.9-15.4,22.9-20,35.5C409.6,225.4,407,239.2,406.8,252.7z"/>
		<path class="st16" d="M370.2,201.7c5-15.7,12.6-30.6,22.5-43.8l-2.1-1.6c-2.4-0.8-4.7-1.7-7.1-2.4c-8.6,14.6-14.6,30.3-18,46.3
			c-3.6,16.7-4.3,33.8-2.3,50.2c0,0,0,0,0,0C362.8,233.9,365.2,217.4,370.2,201.7z"/>
		<path class="st16" d="M312.1,195.7c-0.8,9.9-0.7,19.8,0.2,29.5c0.9,9.7,2.5,19.3,4.6,28.7c-1.3-9.5-2.1-19.1-2.1-28.7
			c0-9.6,0.6-19.2,2.2-28.6c1.6-9.5,4.1-18.8,7.7-27.6c3.6-8.9,8.4-17.3,14.4-24.8l-0.9-0.7c-3.2-0.4-6.5-0.8-9.7-1.1
			c-4.5,7.6-8.1,15.6-10.7,23.8C314.8,175.8,313,185.8,312.1,195.7z"/>
		<path class="st16" d="M260.8,157.6l-1.6,4.3l-0.8,2.1c-0.3,0.7-0.4,1.4-0.7,2.2l-1.2,4.3c-0.5,1.4-0.7,2.9-1,4.4l-0.9,4.4
			l-0.6,4.4c-0.2,1.5-0.4,2.9-0.5,4.4c-0.2,2.9-0.5,5.9-0.5,8.8l0,4.4c0,1.5,0.1,2.9,0.2,4.3c0.5,11.6,2.4,22.9,5.2,33.8
			c2.7,11,6.3,21.6,10.2,32.1c-3.1-10.7-5.8-21.5-7.7-32.5c-1.9-11-2.9-22.1-2.7-33.2c0-1.4,0.1-2.8,0.1-4.2l0.3-4.2
			c0.2-2.8,0.7-5.5,1-8.3c0.2-1.4,0.5-2.7,0.8-4.1l0.9-4.1l1.1-4c0.4-1.3,0.7-2.7,1.2-4l1.4-3.9c0.2-0.6,0.4-1.3,0.7-2l0.9-1.9
			l1.7-3.8c0.6-1.3,1.3-2.5,2-3.7c2.8-4.8,6.4-9.1,10.6-12.9l-1.1-1.2c-4.3,0.6-8.5,1.4-12.7,2.3c-1.6,2.3-3.1,4.8-4.4,7.3
			C262.1,154.7,261.4,156.2,260.8,157.6z"/>
		<path class="st16" d="M202.5,175.3c-0.3,0.8-0.5,1.6-0.7,2.4l-1.2,4.6l-0.6,2.3l-0.4,2.3l-0.8,4.7c-0.3,1.5-0.4,3.1-0.5,4.7
			c-0.1,1.6-0.4,3.1-0.4,4.7l-0.1,4.6l-0.1,2.3c0,0.8,0.1,1.5,0.1,2.3l0.2,4.6c0,1.5,0.3,3,0.4,4.6c0.2,1.5,0.3,3,0.5,4.5l0.7,4.5
			c0.4,3,1.1,5.9,1.7,8.9c0.6,2.9,1.5,5.8,2.2,8.7c0.9,2.8,1.7,5.7,2.6,8.5c1,2.8,1.9,5.6,3,8.3c4.2,11,9.1,21.7,14.4,32
			c-4.6-10.7-8.7-21.6-12-32.7c-0.9-2.8-1.6-5.6-2.3-8.4c-0.7-2.8-1.3-5.7-2-8.5c-0.5-2.9-1.1-5.7-1.5-8.6c-0.4-2.9-0.9-5.8-1.1-8.7
			c-1.1-11.6-0.8-23.3,1.7-34.7l1-4.2l0.5-2.1l0.7-2.1c0.9-2.8,1.7-5.6,3-8.2c2.4-5.2,5.7-10,9.6-14.2c-3.9,2-7.8,4.2-11.6,6.6
			c-2,1.3-4,2.6-6,3.9c0,0,0,0,0,0C203.1,173.6,202.8,174.5,202.5,175.3z"/>
		<path class="st16" d="M147.6,214.1l-0.2,2.2l-0.4,4.4l-0.1,1.1l0,1.1l0,2.2l0,4.4l0.3,4.3c0.8,11.6,3.4,22.7,7.3,33.2
			c3.8,10.5,8.7,20.3,14.2,29.7c5.5,9.4,11.6,18.3,18,27c-5.7-9.1-11.1-18.4-15.8-28.1c-4.7-9.7-8.7-19.7-11.7-30
			c-2.9-10.3-4.6-21.1-4.6-31.8l0-4l0.3-4l0.2-2l0.1-1l0.2-1l0.6-4c0.7-5.3,2.5-10.5,4.9-15.3l0,0c-2.8,1.4-5.6,2.7-8.5,3.9
			c-1.2,0.4-2.3,0.9-3.6,1.3c-0.3,1.4-0.6,2.7-0.9,4.1C147.8,212.5,147.7,213.3,147.6,214.1z"/>
	</g>
	<path class="st17" d="M467.1,198.8c-35.1-27.9-77.8-47-122-54.5c-46.2-7.8-95.5-0.3-135.6,24.5c-19.5,12.1-35.3,29-57.1,37.4
		c-9.8,3.8-21.4,6.5-31.7,3.1c-1.7-0.5-3.5-1.2-4.9-2.3c0,0-21.3,37.3-15.7,86c5.7,48.7,45.7,83.3,45.7,83.3s47.3-87,167-121
		c45.3-8.9,92.4-6.6,137,9c63.2,22.1,99.4,66.5,110.4,81.7c0.8,1.1,2.6,0.3,2.3-1c-3.2-14-8.1-25.7-13.8-39.2
		C532.6,267.6,504.3,228.4,467.1,198.8z"/>
	<path class="st17" d="M126,212.6c-21.6,39.6-8.1,94.7,18.5,128.7c4.4,5.6,9.3,10.8,14.8,15.3"/>
	<path class="st17" d="M546.9,327.2c2.1-2.3,4.6-4,7.4-5"/>
	<path class="st17" d="M493.3,284.3c6.2-11.2,16.1-20.3,28.2-25.4"/>
	<path class="st17" d="M535,317.3c4.3-4.3,8.6-7.3,13.6-9.8"/>
	<path class="st17" d="M509.1,295.5c4.9-8.9,12.8-16,22.7-19.7"/>
	<path class="st17" d="M523.5,307.2c4.7-6.6,11.1-11.9,18.8-15.1"/>
	<path class="st17" d="M441.1,261.7c6.7-20.7,20.2-39,38.8-51.5"/>
	<path class="st17" d="M471.3,271.4c6.7-15.2,18.2-28.2,33.3-36.4"/>
	<path class="st17" d="M406.8,252.7c3.8-26.4,16.1-51.5,36-70.6"/>
	<path class="st17" d="M363.1,250.4c-0.7-32.7,9.3-65.4,29.5-92.5"/>
	<path class="st17" d="M316.9,253.8c-5.2-37.1-1.8-79.3,22.2-109.8"/>
	<path class="st17" d="M268.6,271.5c-10.4-35.2-17.2-75.9,0-110.6c3-6.1,7.3-11.5,12.3-16.1"/>
	<path class="st17" d="M223.4,294.7c-15.4-35.9-27.5-77.8-13.4-115c2.5-6.5,6.3-12.5,11.2-17.6"/>
	<path class="st17" d="M186.7,323.7c-20.3-32.2-37.8-70.2-30.4-108.1c0.9-4.6,2.4-9,4.5-13.1"/>
	<path class="st18" d="M235,349c-1.7,2.7-5.4,4.7-9.8,5c-4.6,0.3-8.8-1.4-10.6-4.2"/>
	<path class="st18" d="M230.6,345.6c-1.8,1.9-4,3.1-6.3,3.1c-2.1,0-4.1-0.9-5.8-2.6"/>
	<g>
		<path class="st18" d="M408.5,302c-1.2-3.1-1.5-6.6-0.6-10.1c0.8-3.2,2.4-5.9,4.7-8"/>
		<path class="st18" d="M402.4,295.7c-0.4-1.5-0.4-3.2,0-5c0.4-1.6,1.1-3,2.1-4.1"/>
		<path class="st18" d="M414.5,307.7c-1.2-4.4-1.2-9.3,0-14.3c1.1-4.5,3.2-8.5,5.9-11.7"/>
	</g>
	<path class="st18" d="M320.7,396.8c2.3-8.1,6.4-14,12.6-19.6"/>
	<path class="st18" d="M313.5,398.7c0.4-4.2,1.8-7.5,4.3-10.8"/>
</g>
<g id="move_lines_back">
	<path class="st19" d="M148.2,194.5c-2.8,1.4-6.9,2.3-11.6,2.4c-4,0.1-7.7-0.5-10.4-1.5"/>
	<path class="st19" d="M140.2,187c-1.4,0.7-3.5,1.2-5.8,1.2c-2,0-3.9-0.3-5.2-0.8"/>
</g>
<g id="move_lines_head">
	<path class="st19" d="M521,222.4c2.6,1.7,5.5,4.8,7.9,8.8c2.1,3.5,3.4,6.9,3.9,9.8"/>
	<path class="st19" d="M519.5,232c1.3,0.8,2.7,2.4,3.9,4.4c1,1.7,1.7,3.5,2,4.9"/>
</g>
<g id="eye">
	<g>
		<circle class="st20" cx="497.1" cy="309.4" r="5.4"/>
		<line class="st21" x1="492.1" y1="298.3" x2="507.3" y2="313.8"/>
	</g>
</g>
<g id="pink_cheek">
	<circle class="st22" cx="463.9" cy="312.5" r="8.4"/>
</g>
<g id="mouth">
	<path class="st23" d="M476.3,343.8c7-0.1,15.8,0.6,18.7,8.3"/>
</g>
<g id="front_foreground_paw">
	<g>
		<g>
			<path class="st0" d="M424.8,393.6l-0.6-12.9c3-0.9,5.9-1.2,8.9-1.4c3-0.2,5.9-0.1,8.9,0.1c3,0.2,6,0.6,8.9,1.1
				c1.5,0.2,3,0.5,4.5,0.8c1.5,0.3,3,0.5,4.5,0.9c1.5,0.3,3,0.6,4.5,1c1.4,0.4,2.9,0.7,4.3,1.1c2.9,0.7,5.8,1.5,8.6,2.3
				c5.7,1.6,11.4,3.3,17.1,5.5c-15-1.7-37.2-3.3-56.6-1C432.5,391.6,428.2,392.5,424.8,393.6z"/>
			<path class="st1" d="M476.9,395.4c-3,0.5-5.9,0.9-8.8,1.2c-1.5,0.2-2.9,0.4-4.4,0.5l-4.3,0.5l-8.5,1.1c-2.9,0.4-5.7,0.8-8.6,1
				c-2.9,0.2-5.7,0.4-8.6,0.3c-2.9-0.1-5.8-0.2-8.6-0.9l-0.3-5.7c3.4-1.1,7.7-2,13-2.7c19.4-2.4,41.6-0.8,56.6,1
				c0.1,0,0.1,0,0.2,0.1C488.7,393.4,482.8,394.5,476.9,395.4z"/>
			<path class="st2" d="M425.1,393.1l-0.6-12.9c3-0.9,5.9-1.2,8.9-1.4c3-0.2,5.9-0.1,8.9,0.1c3,0.2,6,0.6,8.9,1.1
				c1.5,0.2,3,0.5,4.5,0.8c1.5,0.3,3,0.5,4.5,0.9c1.5,0.3,3,0.6,4.5,1c1.4,0.4,2.9,0.7,4.3,1.1c2.9,0.7,5.8,1.5,8.6,2.3
				c5.7,1.6,11.4,3.3,17.1,5.5c0.1,0,0.1,0,0.2,0.1c-5.9,1.5-11.8,2.5-17.7,3.4c-3,0.5-5.9,0.9-8.8,1.2c-1.5,0.2-2.9,0.4-4.4,0.5
				l-4.3,0.5l-8.5,1.1c-2.9,0.4-5.7,0.8-8.6,1c-2.9,0.2-5.7,0.4-8.6,0.3c-2.9-0.1-5.8-0.2-8.6-0.9L425.1,393.1z"/>
		</g>
		<g>
			<path class="st0" d="M424.2,391.4l1.1-12.9c3.1-0.5,6-0.4,9-0.2c3,0.2,5.9,0.6,8.8,1.2c2.9,0.6,5.8,1.4,8.7,2.3
				c1.5,0.4,2.9,0.9,4.3,1.3c1.4,0.5,2.9,0.9,4.3,1.4c1.4,0.5,2.9,1,4.3,1.6c1.4,0.5,2.8,1,4.1,1.6c2.8,1.1,5.5,2.2,8.3,3.4
				c5.4,2.3,10.9,4.8,16.2,7.6c-14.7-3.7-36.5-8.1-56-8.3C432.1,390.4,427.7,390.8,424.2,391.4z"/>
			<path class="st1" d="M475.6,400c-3,0.1-6,0.1-8.9,0.1c-1.5,0-3,0-4.5,0l-4.3,0l-8.6,0c-2.9,0-5.8,0-8.6-0.1
				c-2.9-0.1-5.7-0.4-8.5-0.8c-2.8-0.4-5.7-1-8.4-2l0.5-5.7c3.6-0.6,7.9-1,13.2-1c19.5,0.2,41.4,4.7,56,8.3c0.1,0,0.1,0.1,0.2,0.1
				C487.5,399.6,481.5,399.8,475.6,400z"/>
			<path class="st2" d="M424.5,391l1.1-12.9c3.1-0.5,6-0.4,9-0.2c3,0.2,5.9,0.6,8.8,1.2c2.9,0.6,5.8,1.4,8.7,2.3
				c1.5,0.4,2.9,0.9,4.3,1.3c1.4,0.5,2.9,0.9,4.3,1.4c1.4,0.5,2.9,1,4.3,1.6c1.4,0.5,2.8,1,4.1,1.6c2.8,1.1,5.5,2.2,8.3,3.4
				c5.4,2.3,10.9,4.8,16.2,7.6c0.1,0,0.1,0.1,0.2,0.1c-6.1,0.7-12,1-18,1.1c-3,0.1-6,0.1-8.9,0.1c-1.5,0-3,0-4.5,0l-4.3,0l-8.6,0
				c-2.9,0-5.8,0-8.6-0.1c-2.9-0.1-5.7-0.4-8.5-0.8c-2.8-0.4-5.7-1-8.4-2L424.5,391z"/>
		</g>
		<g>
			<path class="st0" d="M422.3,398.8l1.1-12.9c3.1-0.5,6-0.4,9-0.2c3,0.2,5.9,0.6,8.8,1.2c2.9,0.6,5.8,1.4,8.7,2.3
				c1.5,0.4,2.9,0.9,4.3,1.3c1.4,0.5,2.9,0.9,4.3,1.4c1.4,0.5,2.9,1,4.3,1.6c1.4,0.5,2.8,1,4.1,1.6c2.8,1.1,5.5,2.2,8.3,3.4
				c5.4,2.3,10.9,4.8,16.2,7.6c-14.7-3.7-36.5-8.1-56-8.3C430.2,397.8,425.8,398.2,422.3,398.8z"/>
			<path class="st1" d="M473.7,407.4c-3,0.1-6,0.1-8.9,0.1c-1.5,0-3,0-4.5,0l-4.3,0l-8.6,0c-2.9,0-5.8,0-8.6-0.1
				c-2.9-0.1-5.7-0.4-8.5-0.8c-2.8-0.4-5.7-1-8.4-2l0.5-5.7c3.6-0.6,7.9-1,13.2-1c19.5,0.2,41.4,4.7,56,8.3c0.1,0,0.1,0.1,0.2,0.1
				C485.6,406.9,479.7,407.2,473.7,407.4z"/>
			<path class="st2" d="M422.6,398.4l1.1-12.9c3.1-0.5,6-0.4,9-0.2c3,0.2,5.9,0.6,8.8,1.2c2.9,0.6,5.8,1.4,8.7,2.3
				c1.5,0.4,2.9,0.9,4.3,1.3c1.4,0.5,2.9,0.9,4.3,1.4c1.4,0.5,2.9,1,4.3,1.6c1.4,0.5,2.8,1,4.1,1.6c2.8,1.1,5.5,2.2,8.3,3.4
				c5.4,2.3,10.9,4.8,16.2,7.6c0.1,0,0.1,0.1,0.2,0.1c-6.1,0.7-12,1-18,1.1c-3,0.1-6,0.1-8.9,0.1c-1.5,0-3,0-4.5,0l-4.3,0l-8.6,0
				c-2.9,0-5.8,0-8.6-0.1c-2.9-0.1-5.7-0.4-8.5-0.8c-2.8-0.4-5.7-1-8.4-2L422.6,398.4z"/>
		</g>
		<g>
			<path class="st0" d="M409.3,409.6l1.1-12.8c3.1-0.5,6.1-0.4,9.1-0.2c3,0.2,5.9,0.6,8.9,1.2c2.9,0.6,5.8,1.4,8.8,2.2
				c1.5,0.4,2.9,0.9,4.4,1.3c1.4,0.5,2.9,0.9,4.3,1.4c1.4,0.5,2.9,1,4.3,1.6c1.4,0.5,2.8,1,4.2,1.6c2.8,1.1,5.5,2.2,8.3,3.4
				c5.5,2.3,10.9,4.8,16.3,7.6c-14.7-3.6-36.6-8.1-56.2-8.2C417.3,408.6,412.9,408.9,409.3,409.6z"/>
			<path class="st1" d="M460.9,418c-3,0.1-6,0.1-9,0.1c-1.5,0-3,0-4.5,0l-4.3,0l-8.7,0c-2.9,0-5.8,0-8.7-0.1
				c-2.9-0.1-5.7-0.4-8.6-0.8c-2.8-0.4-5.7-1-8.4-2l0.5-5.7c3.6-0.6,7.9-1,13.3-1c19.6,0.2,41.5,4.6,56.2,8.2c0.1,0,0.1,0.1,0.2,0.1
				C472.9,417.6,466.9,417.9,460.9,418z"/>
			<path class="st2" d="M409.7,409.2l1.1-12.8c3.1-0.5,6.1-0.4,9.1-0.2c3,0.2,5.9,0.6,8.9,1.2c2.9,0.6,5.8,1.4,8.8,2.2
				c1.5,0.4,2.9,0.9,4.4,1.3c1.4,0.5,2.9,0.9,4.3,1.4c1.4,0.5,2.9,1,4.3,1.6c1.4,0.5,2.8,1,4.2,1.6c2.8,1.1,5.5,2.2,8.3,3.4
				c5.5,2.3,10.9,4.8,16.3,7.6c0.1,0,0.1,0.1,0.2,0.1c-6.1,0.7-12.1,1-18.1,1.1c-3,0.1-6,0.1-9,0.1c-1.5,0-3,0-4.5,0l-4.3,0l-8.7,0
				c-2.9,0-5.8,0-8.7-0.1c-2.9-0.1-5.7-0.4-8.6-0.8c-2.8-0.4-5.7-1-8.4-2L409.7,409.2z"/>
		</g>
		<path class="st3" d="M342.3,342.6c-5.4,4.8-2.3,37.1,34,58c35,20.1,58,17,58,17s-18.3-5-17-14.3s17-5.4,17-5.4s-13.3-4.5-10.3-9.8
			s14.3-2.5,14.3-2.5s-6.5-0.9-6.8-4.1s11.5-3,11.5-3s-32.4-4.7-53.4-12.9C367.1,357,350.9,335,342.3,342.6z"/>
		<path class="st4" d="M342.3,342.6c-5.4,4.8-2.3,37.1,34,58c35,20.1,58,17,58,17s-18.3-5-17-14.3s17-5.4,17-5.4s-13.3-4.5-10.3-9.8
			s14.3-2.5,14.3-2.5s-6.5-0.9-6.8-4.1s11.5-3,11.5-3s-32.4-4.7-53.4-12.9C367.1,357,350.9,335,342.3,342.6z"/>
		<path class="st5" d="M380.8,361.5c0,0-11.4-0.2-14.4,11.5c-3,11.7,2.7,23,2.7,23"/>
		<path class="st5" d="M368.1,352.8c0,0-10.9-0.1-13.8,11c-2.9,11.1,2.6,22,2.6,22"/>
		<path class="st5" d="M357,345.1c0,0-9.2-0.1-11.6,9.2c-2.4,9.4,2.2,18.5,2.2,18.5"/>
	</g>
</g>
<g id="Back_foreground_paw">
	<g>
		<g>
			<path class="st0" d="M248,412.3l-0.4-9.1c2.1-0.6,4.1-0.8,6.2-1c2-0.1,4.1-0.1,6.2,0.1c2.1,0.1,4.1,0.5,6.2,0.8
				c1,0.2,2.1,0.3,3.1,0.5c1,0.2,2.1,0.4,3.1,0.6c1,0.2,2.1,0.5,3.1,0.7c1,0.2,2,0.5,3,0.7c2,0.5,4,1,6,1.6
				c3.9,1.1,7.9,2.4,11.8,3.9c-10.4-1.2-25.7-2.4-39.1-0.7C253.3,410.8,250.4,411.5,248,412.3z"/>
			<path class="st1" d="M283.9,413.6c-2,0.3-4.1,0.6-6.1,0.9c-1,0.1-2,0.2-3.1,0.4l-2.9,0.4l-5.9,0.8c-2,0.3-3.9,0.6-5.9,0.7
				c-2,0.2-3.9,0.3-5.9,0.2c-2-0.1-4-0.2-5.9-0.6l-0.2-4.1c2.4-0.8,5.3-1.4,9-1.9c13.4-1.7,28.7-0.5,39.1,0.7c0,0,0.1,0,0.1,0
				C292,412.2,288,412.9,283.9,413.6z"/>
			<path class="st2" d="M248.2,412l-0.4-9.1c2.1-0.6,4.1-0.8,6.2-1c2-0.1,4.1-0.1,6.2,0.1c2.1,0.1,4.1,0.5,6.2,0.8
				c1,0.2,2.1,0.3,3.1,0.5c1,0.2,2.1,0.4,3.1,0.6c1,0.2,2.1,0.5,3.1,0.7c1,0.2,2,0.5,3,0.7c2,0.5,4,1,6,1.6
				c3.9,1.1,7.9,2.4,11.8,3.9c0,0,0.1,0,0.1,0c-4.1,1-8.2,1.8-12.2,2.4c-2,0.3-4.1,0.6-6.1,0.9c-1,0.1-2,0.2-3.1,0.4l-2.9,0.4
				l-5.9,0.8c-2,0.3-3.9,0.6-5.9,0.7c-2,0.2-3.9,0.3-5.9,0.2c-2-0.1-4-0.2-5.9-0.6L248.2,412z"/>
		</g>
		<g>
			<path class="st0" d="M247.5,410.8l0.7-9.1c2.1-0.3,4.2-0.3,6.2-0.2c2,0.1,4.1,0.5,6.1,0.9c2,0.4,4,1,6,1.6c1,0.3,2,0.6,3,0.9
				c1,0.3,2,0.7,3,1c1,0.4,2,0.7,3,1.1c1,0.4,1.9,0.7,2.9,1.1c1.9,0.8,3.8,1.6,5.7,2.4c3.8,1.6,7.5,3.4,11.2,5.4
				c-10.1-2.6-25.2-5.8-38.6-5.9C253,410,250,410.3,247.5,410.8z"/>
			<path class="st1" d="M283,416.8c-2.1,0.1-4.1,0.1-6.2,0.1c-1,0-2,0-3.1,0l-3,0l-5.9,0c-2,0-4,0-5.9-0.1c-2-0.1-3.9-0.3-5.9-0.6
				c-1.9-0.3-3.9-0.7-5.8-1.4l0.3-4c2.4-0.5,5.4-0.7,9.1-0.7c13.5,0.1,28.5,3.3,38.6,5.9c0,0,0.1,0,0.1,0.1
				C291.2,416.5,287.1,416.7,283,416.8z"/>
			<path class="st2" d="M247.8,410.5l0.7-9.1c2.1-0.3,4.2-0.3,6.2-0.2c2,0.1,4.1,0.5,6.1,0.9c2,0.4,4,1,6,1.6c1,0.3,2,0.6,3,0.9
				c1,0.3,2,0.7,3,1c1,0.4,2,0.7,3,1.1c1,0.4,1.9,0.7,2.9,1.1c1.9,0.8,3.8,1.6,5.7,2.4c3.8,1.6,7.5,3.4,11.2,5.4c0,0,0.1,0,0.1,0.1
				c-4.2,0.5-8.3,0.7-12.4,0.8c-2.1,0.1-4.1,0.1-6.2,0.1c-1,0-2,0-3.1,0l-3,0l-5.9,0c-2,0-4,0-5.9-0.1c-2-0.1-3.9-0.3-5.9-0.6
				c-1.9-0.3-3.9-0.7-5.8-1.4L247.8,410.5z"/>
		</g>
		<g>
			<path class="st0" d="M246.3,416l0.7-9.1c2.1-0.3,4.2-0.3,6.2-0.2c2,0.1,4.1,0.5,6.1,0.9c2,0.4,4,1,6,1.6c1,0.3,2,0.6,3,0.9
				c1,0.3,2,0.7,3,1c1,0.4,2,0.7,3,1.1c1,0.4,1.9,0.7,2.9,1.1c1.9,0.8,3.8,1.6,5.7,2.4c3.8,1.6,7.5,3.4,11.2,5.4
				c-10.1-2.6-25.2-5.8-38.6-5.9C251.7,415.3,248.7,415.5,246.3,416z"/>
			<path class="st1" d="M281.7,422c-2.1,0.1-4.1,0.1-6.2,0.1c-1,0-2,0-3.1,0l-3,0l-5.9,0c-2,0-4,0-5.9-0.1c-2-0.1-3.9-0.3-5.9-0.6
				c-1.9-0.3-3.9-0.7-5.8-1.4l0.3-4c2.4-0.5,5.4-0.7,9.1-0.7c13.5,0.1,28.5,3.3,38.6,5.9c0,0,0.1,0,0.1,0.1
				C290,421.7,285.8,421.9,281.7,422z"/>
			<path class="st2" d="M246.5,415.7l0.7-9.1c2.1-0.3,4.2-0.3,6.2-0.2c2,0.1,4.1,0.5,6.1,0.9c2,0.4,4,1,6,1.6c1,0.3,2,0.6,3,0.9
				c1,0.3,2,0.7,3,1c1,0.4,2,0.7,3,1.1c1,0.4,1.9,0.7,2.9,1.1c1.9,0.8,3.8,1.6,5.7,2.4c3.8,1.6,7.5,3.4,11.2,5.4c0,0,0.1,0,0.1,0.1
				c-4.2,0.5-8.3,0.7-12.4,0.8c-2.1,0.1-4.1,0.1-6.2,0.1c-1,0-2,0-3.1,0l-3,0l-5.9,0c-2,0-4,0-5.9-0.1c-2-0.1-3.9-0.3-5.9-0.6
				c-1.9-0.3-3.9-0.7-5.8-1.4L246.5,415.7z"/>
		</g>
		<g>
			<path class="st0" d="M237.3,423.6l0.8-9.1c2.2-0.3,4.2-0.3,6.2-0.2c2.1,0.1,4.1,0.4,6.1,0.9c2,0.4,4,1,6,1.6c1,0.3,2,0.6,3,0.9
				c1,0.3,2,0.7,3,1c1,0.3,2,0.7,3,1.1c1,0.4,1.9,0.7,2.9,1.1c1.9,0.8,3.8,1.5,5.7,2.4c3.8,1.6,7.5,3.4,11.2,5.4
				c-10.1-2.6-25.3-5.7-38.8-5.8C242.8,422.9,239.8,423.1,237.3,423.6z"/>
			<path class="st1" d="M272.9,429.6c-2.1,0.1-4.1,0.1-6.2,0.1c-1,0-2.1,0-3.1,0l-3,0l-6,0c-2,0-4,0-6-0.1c-2-0.1-4-0.3-5.9-0.6
				c-2-0.3-3.9-0.7-5.8-1.4l0.3-4c2.5-0.5,5.5-0.7,9.2-0.7c13.5,0.1,28.6,3.3,38.8,5.8c0,0,0.1,0,0.1,0.1
				C281.2,429.2,277,429.5,272.9,429.6z"/>
			<path class="st2" d="M237.6,423.3l0.8-9.1c2.2-0.3,4.2-0.3,6.2-0.2c2.1,0.1,4.1,0.4,6.1,0.9c2,0.4,4,1,6,1.6c1,0.3,2,0.6,3,0.9
				c1,0.3,2,0.7,3,1c1,0.3,2,0.7,3,1.1c1,0.4,1.9,0.7,2.9,1.1c1.9,0.8,3.8,1.5,5.7,2.4c3.8,1.6,7.5,3.4,11.2,5.4c0,0,0.1,0,0.1,0.1
				c-4.2,0.5-8.3,0.7-12.5,0.8c-2.1,0.1-4.1,0.1-6.2,0.1c-1,0-2.1,0-3.1,0l-3,0l-6,0c-2,0-4,0-6-0.1c-2-0.1-4-0.3-5.9-0.6
				c-2-0.3-3.9-0.7-5.8-1.4L237.6,423.3z"/>
		</g>
		<path class="st3" d="M191,376.3c-3.7,3.4-1.6,26.2,23.5,41c24.1,14.2,40,12,40,12s-12.6-3.5-11.7-10.1c0.9-6.5,11.7-3.8,11.7-3.8
			s-9.1-3.2-7.1-6.9c2.1-3.7,9.8-1.8,9.8-1.8s-4.5-0.6-4.7-2.9c-0.2-2.3,7.9-2.1,7.9-2.1s-22.4-3.3-36.8-9.1
			C208.2,386.4,197,370.9,191,376.3z"/>
		<path class="st4" d="M191,376.3c-3.7,3.4-1.6,26.2,23.5,41c24.1,14.2,40,12,40,12s-12.6-3.5-11.7-10.1c0.9-6.5,11.7-3.8,11.7-3.8
			s-9.1-3.2-7.1-6.9c2.1-3.7,9.8-1.8,9.8-1.8s-4.5-0.6-4.7-2.9c-0.2-2.3,7.9-2.1,7.9-2.1s-22.4-3.3-36.8-9.1
			C208.2,386.4,197,370.9,191,376.3z"/>
		<path class="st5" d="M217.6,389.6c0,0-7.9-0.1-10,8.1s1.9,16.2,1.9,16.2"/>
		<path class="st5" d="M208.9,383.5c0,0-7.5-0.1-9.5,7.8c-2,7.9,1.8,15.5,1.8,15.5"/>
		<path class="st5" d="M201.2,378c0,0-6.3-0.1-8,6.5c-1.7,6.6,1.5,13,1.5,13"/>
	</g>
</g>
</svg>
