<?xml version="1.0" encoding="utf-8"?>
<!-- Generator: Adobe Illustrator 22.1.0, SVG Export Plug-In . SVG Version: 6.00 Build 0)  -->
<svg version="1.1" xmlns="http://www.w3.org/2000/svg" xmlns:xlink="http://www.w3.org/1999/xlink" x="0px" y="0px"
	 viewBox="0 0 566.9 566.9" style="enable-background:new 0 0 566.9 566.9;" xml:space="preserve">
<style type="text/css">
	.st0{fill:#EDA5BD;}
	.st1{fill:none;stroke:#B26E85;stroke-width:3;stroke-linejoin:round;stroke-miterlimit:10;}
	.st2{fill:#FFF6EE;}
	.st3{fill:none;stroke:#D8D0BE;stroke-width:3;stroke-miterlimit:10;}
	.st4{fill:#FACEE1;}
	.st5{fill:#F2B9D5;}
	.st6{fill:none;stroke:#EDA5BD;stroke-width:3;stroke-linecap:round;stroke-linejoin:round;stroke-miterlimit:10;}
	.st7{fill:none;stroke:#EDA5BD;stroke-width:2;stroke-linecap:round;stroke-linejoin:round;stroke-miterlimit:10;}
	.st8{fill:none;stroke:#D9D0BF;stroke-width:2;stroke-linecap:round;stroke-miterlimit:10;}
	.st9{fill:#E2B7CC;}
	.st10{fill-rule:evenodd;clip-rule:evenodd;fill:#EDA5BD;}
	.st11{fill:none;stroke:#EBA5BD;stroke-width:2;stroke-miterlimit:10;}
	.st12{fill:none;stroke:#B66E87;stroke-width:3;stroke-linecap:round;stroke-linejoin:round;stroke-miterlimit:10;}
	.st13{fill:none;stroke:#B66E87;stroke-width:2;stroke-linecap:round;stroke-linejoin:round;stroke-miterlimit:10;}
	.st14{fill:#EBA5BD;}
	.st15{fill:none;stroke:#D8D0BE;stroke-width:3;stroke-linecap:round;stroke-miterlimit:10;}
	.st16{fill:#B0C7E8;}
	.st17{fill:none;stroke:#212121;stroke-width:3;stroke-linecap:round;stroke-miterlimit:10;}
</style>
<g id="Tail">
	<g>
		<g>
			<path class="st0" d="M96.8,411.5c7.6,10.3,17,17.9,27.1,23.1c2.5,1.3,5.1,2.4,7.7,3.5c2.6,1,5.3,1.9,8,2.6
				c5.4,1.5,10.8,2.5,16.3,3c11,1,22.1,0.1,32.7-2.6c5.3-1.3,10.4-3.1,14.9-5.4c4.5-2.3,8.3-5.1,11.3-8.3l16.2,39.6
				c-7.9,4.5-15.7,6.9-23,8.2c-7.4,1.2-14.2,1.3-20.8,0.8c-13.3-0.9-25.8-4.3-37.4-9.5c-5.8-2.6-11.4-5.7-16.7-9.4
				c-2.7-1.8-5.2-3.8-7.7-5.8c-2.5-2.1-4.9-4.2-7.1-6.6C109.2,435.6,101.7,424.2,96.8,411.5z"/>
			<path class="st1" d="M96.8,411.5c7.6,10.3,17,17.9,27.1,23.1c2.5,1.3,5.1,2.4,7.7,3.5c2.6,1,5.3,1.9,8,2.6
				c5.4,1.5,10.8,2.5,16.3,3c11,1,22.1,0.1,32.7-2.6c5.3-1.3,10.4-3.1,14.9-5.4c4.5-2.3,8.3-5.1,11.3-8.3l16.2,39.6
				c-7.9,4.5-15.7,6.9-23,8.2c-7.4,1.2-14.2,1.3-20.8,0.8c-13.3-0.9-25.8-4.3-37.4-9.5c-5.8-2.6-11.4-5.7-16.7-9.4
				c-2.7-1.8-5.2-3.8-7.7-5.8c-2.5-2.1-4.9-4.2-7.1-6.6C109.2,435.6,101.7,424.2,96.8,411.5z"/>
		</g>
		<path class="st1" d="M105.3,429.9c1.3-2.3,3-4.1,4.8-5.6"/>
		<path class="st1" d="M136.6,459c0.1-3.5,1-7.2,2.7-10.7c1.1-2.4,2.6-4.6,4.2-6.4"/>
		<path class="st1" d="M117.6,444c1-3.7,2.8-7.2,5.2-10"/>
		<path class="st1" d="M126,452.4c0.2-1.8,0.6-3.6,1.2-5.4c1.1-3.3,2.7-6.1,4.7-8.4"/>
		<path class="st1" d="M111.2,436.7c1.2-2.6,2.7-4.9,4.6-6.8"/>
		<path class="st1" d="M149,466.6c-0.1-2.6,0.1-5.2,0.7-7.9c1.1-5.7,3.4-10.7,6.5-14.9"/>
		<path class="st1" d="M163.8,472.6c-1.1-9.9,1.6-20.5,7.6-28.6"/>
		<path class="st1" d="M179.8,475.2c-2.5-10.8-0.6-23.1,5.3-33.2"/>
		<path class="st1" d="M199.1,476.6c-4.7-11.7-4.4-26.2,0.9-39"/>
	</g>
</g>
<g id="Body">
	<path class="st2" d="M241,470.5c0,0,52.7,12,102-6.7c49.3-18.7,59.3-72.7,62.7-128s-22.7-123.3-20-146.7s37.3-34.7,54-39.3
		s25.3-11.3,18-24s-73.3-20-116.7-19.3c-43.3,0.7-93.3,22.7-123.3,70S193,405.8,193,405.8L241,470.5z"/>
	<path class="st3" d="M241,470.5c0,0,52.7,12,102-6.7c49.3-18.7,59.3-72.7,62.7-128s-22.7-123.3-20-146.7s37.3-34.7,54-39.3
		s25.3-10.3,18-23s-73.3-21-116.7-20.3c-43.3,0.7-93.3,22.7-123.3,70S193,405.8,193,405.8L241,470.5z"/>
	<g>
		<path class="st4" d="M457.7,125.8c0,0-107.1-27.8-168,23.7c-62,52.3-73.3,163.7-71.3,227s22.7,94,22.7,94s-27.7-1.7-59.7-13.7
			S139,434.2,139,434.2s19.3-3,18.7-40.3s-20-101.3,18.7-191.3s102.7-124.7,164-128C401.7,71.2,457.7,125.8,457.7,125.8z"/>
		<path class="st4" d="M340.2,464.8c0,0,57.6-8,74.1-82s-28.7-185.1-28.7-185.1s20.7,123.6,8.7,178.1c-4.7,21.4-14.1,41.7-23.7,56
			C355.8,454.1,340.2,464.8,340.2,464.8z"/>
	</g>
	<path class="st5" d="M203.9,296c-6.1-0.6-12.1-1.9-17.9-3.8c-5.8-1.9-11.4-4.5-16.6-7.7c-5.1-3.1-9.7-6.9-13.7-11.3l-1.2,9.2
		c3.7,2.9,7.7,5.3,11.8,7.2c6,2.9,12.2,5,18.5,6.4c6.3,1.4,12.7,2,19,2c6.3,0,12.5-0.8,18.5-2.3C216.1,296.6,210,296.6,203.9,296z"
		/>
	<g>
		<path class="st5" d="M414.7,306.6c-1.7-0.2-3.3-0.4-4.9-0.6c-1.6-0.2-3.2-0.5-4.7-0.9c-3.1-0.7-6.1-1.7-8.9-2.9
			c2.8,0,5.6-0.2,8.4-0.6c1.4-0.2,2.8-0.4,4.1-0.8l4.1-1L414.7,306.6z"/>
	</g>
	<g>
		<path class="st5" d="M417.3,347.3c-1.9-0.4-3.8-0.7-5.6-1.1c-1.8-0.3-3.6-0.9-5.4-1.4c-3.5-1.1-6.9-2.4-10-4
			c3.3,0.4,6.6,0.6,9.9,0.5c1.7-0.1,3.3-0.1,5-0.3l4.9-0.6L417.3,347.3z"/>
	</g>
	<g>
		<path class="st5" d="M414.4,385c-7.9-1.5-15.2-3.8-22.1-6.9c7.1,0.7,14.2,0.7,21.3-0.1L414.4,385z"/>
	</g>
	<g>
		<path class="st5" d="M398.4,425.6c-6.6-2.7-12.5-6.2-17.7-10.2c5.9,1.8,11.9,2.8,18,3.2L398.4,425.6z"/>
	</g>
	<g>
		<path class="st5" d="M406.2,265c-1.3-0.3-2.6-0.5-3.9-0.8c-1.2-0.3-2.5-0.7-3.6-1.1c-2.4-0.8-4.6-1.9-6.5-3.1c2,0.1,4-0.1,6.1-0.3
			c1-0.1,2-0.3,3-0.6l2.9-0.7L406.2,265z"/>
	</g>
	<g>
		<path class="st5" d="M275.9,161.7c-5-1.8-9.8-4.2-14.3-7.1c-4.6-2.9-8.8-6.2-12.8-10c-2-1.9-3.9-3.9-5.7-6
			c-1.8-2.1-3.5-4.4-5.1-6.7c-2.6-4-4.2-8.4-5.5-12.9l4.9-4.3c1,5.2,2.9,10.1,5.3,14.7c1.2,2.3,2.6,4.6,4,6.7
			c1.5,2.2,3.1,4.2,4.8,6.2C258.2,150.3,266.5,157,275.9,161.7z"/>
		<path class="st5" d="M255.8,190.1c-5.6,0-11.2-1-16.7-2.6c-5.5-1.6-10.9-3.8-16-6.9c-5-3-9.8-6.5-14.2-10.4
			c-4.4-3.9-6.5-6-10.4-10.2l4.5-6.7c6.5,8.9,13.7,17.5,22.5,24.1c4.4,3.3,9.2,6.1,14.3,8.2C245,187.8,250.3,189.4,255.8,190.1z"/>
		<path class="st5" d="M332.1,126.2c-3.4-2.9-6.5-6.4-9-10.3c-2.6-3.9-4.6-8.1-6.2-12.6c-1.6-4.5-2.5-9.3-2.7-14.3
			c-0.2-5,0.5-7.1,2-12.1l5.5-0.7c-1.7,4.1-2.8,8.5-3,13c-0.2,4.5,0.1,9,1.2,13.3c1,4.4,2.5,8.6,4.6,12.6
			C326.4,119.3,329,122.9,332.1,126.2z"/>
		<path class="st5" d="M300.4,141.7c-4.2-2.8-8.1-6.2-11.5-10.2c-1.7-2-3.2-4.1-4.7-6.3c-1.4-2.2-2.8-4.5-3.9-6.9
			c-2.4-4.8-4.1-10-5-15.6c-0.9-5.6-0.9-7.4,0.2-13.1l6.7-2.1c-1.4,4.8-1.9,9.9-1.7,14.9c0.3,5,1.3,10,3.1,14.7
			c0.8,2.4,1.9,4.7,3,6.9c1.2,2.2,2.4,4.4,3.8,6.5C293.1,134.7,296.5,138.5,300.4,141.7z"/>
		<path class="st5" d="M181.6,189c3.6,4.7,7.5,9,11.9,12.9c4.3,4,9,7.5,14,10.6c5,3,10.4,5.5,16,7.1c5.6,1.6,11.6,2.1,17.4,1.3
			c-5.7,1.5-11.9,1.6-17.9,0.6c-6-1-12-3-17.6-5.6c-5.6-2.6-10.9-5.9-16-9.6c-5-3.7-6.8-5.9-11.2-10.5L181.6,189z"/>
		<path class="st5" d="M166.9,228c4,4.5,8.3,8.8,12.9,12.6c4.6,3.9,9.6,7.3,14.9,10.2c5.3,2.9,11,5.1,16.9,6.4
			c5.9,1.3,12,1.4,18,0.4c-5.8,1.7-12.1,2.3-18.4,1.6c-6.3-0.6-12.5-2.4-18.4-4.8c-5.9-2.4-11.5-5.6-16.8-9.1
			c-5.3-3.6-7.3-5.6-12.1-9.9L166.9,228z"/>
		<path class="st5" d="M151.7,322.6c4.2,4,9.1,7,14.4,9.3c5.3,2.3,10.8,3.9,16.4,5c5.6,1.1,11.4,1.6,17.1,1.7
			c5.7,0,11.5-0.4,17.1-1.5c-5.5,1.9-11.2,3.1-17.1,3.8c-5.9,0.7-11.9,0.9-17.9,0.5c-6-0.4-12.2-1.4-18.3-3.2
			c-6.1-1.9-6.2-2.6-11.9-7L151.7,322.6z"/>
		<path class="st5" d="M154.9,369.5c9,5.9,19.2,9.9,29.7,11.9c10.6,2,21.5,1.9,32-0.4c-10.2,3.8-21.4,5.5-32.9,4.9
			c-11.4-0.6-18-2.5-28.8-7.8L154.9,369.5z"/>
		<path class="st5" d="M155.5,411.4c4.4,4.1,9.6,7.1,15,9.5c5.5,2.3,11.2,4,17.1,5.2c5.8,1.2,11.8,1.8,17.7,2.1
			c6,0.2,11.9,0,17.8-0.7c-5.8,1.4-11.8,2.4-17.9,2.9c-6.1,0.5-12.3,0.6-18.5,0.1c-6.2-0.5-12.6-1.5-18.9-3.4
			c-6.3-1.9-8.7-3.7-14.6-8.2L155.5,411.4z"/>
		<path class="st5" d="M358.1,75.8c-2.4,3-4.2,6.5-5.4,10.2c-1.2,3.7-1.7,7.5-1.7,11.4c0,7.7,1.9,15.3,4.8,22.4
			c-3.7-6.8-6.5-14.3-7.3-22.5c-0.4-4.1-0.3-8.3,0.6-12.5c0.9-4.2,2.6-7.4,5-11.1L358.1,75.8z"/>
		<path class="st5" d="M381.6,81.8c-2.1,2.4-3.7,5.3-4.9,8.2c-1.1,3-1.8,6.2-2,9.4c-0.2,3.2-0.1,6.4,0.3,9.6c0.4,3.2,1,6.4,2,9.4
			c-1.4-2.9-2.4-6.1-3.2-9.3c-0.8-3.2-1.3-6.5-1.5-9.9c-0.2-3.5,0.1-7.1,0.9-10.6c0.4-1.8,1-3.5,1.8-5.2c0.4-0.9,0.8-1.7,1.3-2.5
			c0.2-0.4,0.5-0.8,0.8-1.3c0.1-0.2,0.3-0.4,0.4-0.6l0.2-0.3c0.1-0.1,0.2-0.2,0.3-0.4L381.6,81.8z"/>
		<path class="st5" d="M403.8,90.5c-2.2,1.3-4,3.3-5.4,5.4c-1.4,2.2-2.3,4.6-2.8,7.2c-0.5,2.5-0.7,5.1-0.8,7.7
			c0,2.6,0.2,5.2,0.8,7.7c-0.9-2.4-1.4-5-1.8-7.7c-0.3-2.6-0.4-5.3-0.2-8.1c0.2-2.8,0.9-5.7,2.2-8.4c0.7-1.4,1.5-2.6,2.5-3.9
			c0.5-0.6,1-1.2,1.6-1.8c0.3-0.3,0.6-0.6,0.9-0.8c0.2-0.1,0.3-0.3,0.5-0.4l0.3-0.2c0.1-0.1,0.2-0.1,0.4-0.3L403.8,90.5z"/>
		<path class="st5" d="M419.9,99.5c-1.5,0.9-2.6,2.3-3.5,3.8c-0.9,1.5-1.4,3.2-1.6,4.9c-0.2,1.7-0.2,3.5,0,5.2
			c0.2,1.7,0.6,3.4,1.1,5.1c-0.9-1.5-1.6-3.2-2.1-5c-0.5-1.8-0.9-3.6-1-5.6c-0.1-2,0.2-4.1,1-6.1c0.4-1,0.9-2,1.5-3
			c0.3-0.5,0.7-0.9,1.1-1.4c0.2-0.2,0.4-0.4,0.6-0.7c0.1-0.1,0.2-0.2,0.4-0.3c0.1-0.1,0.1-0.1,0.2-0.2c0.1-0.1,0.1-0.1,0.3-0.2
			L419.9,99.5z"/>
		<path class="st5" d="M434.9,109c-1.1,0.3-2,1-2.8,1.7c-0.8,0.8-1.5,1.6-1.9,2.6c-0.5,1-0.7,2.1-0.8,3.2c-0.1,1.1,0,2.2,0.2,3.3
			c-0.5-1-1-2.1-1.2-3.3c-0.3-1.2-0.3-2.5,0-4c0.1-0.4,0.2-0.7,0.3-1.1c0.1-0.4,0.2-0.6,0.4-1c0.3-0.6,0.6-1.3,1-1.9
			c0.4-0.6,0.9-1.2,1.5-1.8c0.3-0.3,0.6-0.6,1-0.8c0.2-0.1,0.4-0.3,0.6-0.4l0.4-0.2c0.2-0.1,0.2-0.1,0.6-0.2L434.9,109z"/>
	</g>
	<g>
		<path class="st6" d="M457.7,125.8c0,0-107.1-27.8-168,23.7c-62,52.3-73.3,163.7-71.3,227s22.7,94,22.7,94s-27.7-1.7-59.7-13.7
			S139,434.2,139,434.2s19.3-3,18.7-40.3s-20-101.3,18.7-191.3s102.7-124.7,164-128C401.7,71.2,457.7,125.8,457.7,125.8z"/>
		<path class="st6" d="M340.2,464.8c0,0,57.6-8,74.1-82s-28.7-185.1-28.7-185.1s20.7,123.6,8.7,178.1c-4.7,21.4-14.1,41.7-23.7,56
			C355.8,454.1,340.2,464.8,340.2,464.8z"/>
	</g>
	<path class="st7" d="M276.8,161.3c-6.4-3.1-12.8-7.6-18.8-13.3c-10.9-10.4-17.8-22.8-19.8-33.7"/>
	<path class="st7" d="M256.7,189.7c-9.4-1.1-20.8-5.6-29.7-12.2c-9.1-6.7-16.4-15.5-23-24.6"/>
	<path class="st7" d="M333,125.8c-8.9-9.3-14.3-23.8-13.4-36.9c0.3-4.6,1.4-9,3-13"/>
	<path class="st7" d="M301.3,141.3c-11.2-9.1-19.1-24.6-19.9-39.3c-0.3-5.2,0.3-10.2,1.7-14.9"/>
	<path class="st7" d="M182.6,188.7c13.1,17.2,36.4,35.1,59.3,31.9"/>
	<path class="st7" d="M167.8,227.6c15.1,17.2,38.4,34,62.7,29.6"/>
	<path class="st7" d="M156.2,272.4c15.6,17.9,43.8,26.1,66.9,22.9"/>
	<path class="st7" d="M152.6,322.2c15.2,14.7,45,18.5,65,14.4"/>
	<path class="st7" d="M155.8,369.1c17.9,11.7,40.7,16.3,61.8,11.5"/>
	<path class="st7" d="M156.4,411.1c15.5,14.7,45.9,18.7,67.7,16"/>
	<path class="st7" d="M359,75.4c-10,12.7-8.1,29.9-2.3,44"/>
	<path class="st7" d="M382.5,81.5c0,0-6.3,6.3-6.8,17.7s2.3,18.9,2.3,18.9"/>
	<path class="st7" d="M404.7,90.1c0,0-6.4,3.4-8.2,12.4c-1.8,9.1,0,15.5,0,15.5"/>
	<path class="st7" d="M400.1,418.2c-3.5-0.2-7.1-0.6-10.7-1.4c-2.5-0.5-5-1.1-7.3-1.8"/>
	<path class="st7" d="M420.8,99.1c0,0-4,2.3-5,8s1,11,1,11"/>
	<path class="st7" d="M435.8,108.6c0,0-2.3,0.5-4.3,3.5s-1,7.3-1,7.3"/>
	<g>
		<path class="st8" d="M278,222c-0.7-0.6-1.4-1.2-2.2-1.9c-2.3-2.2-3.3-3.7-4.8-6.4"/>
		<path class="st8" d="M274.2,231.7c-2.1-1.5-4.2-3.3-6.2-5.5c-0.7-0.7-1.4-1.5-2.1-2.3c-1.6-1.8-3.2-4.1-4.8-7"/>
		<path class="st8" d="M276.4,227.5c-1.7-1.3-3.4-2.8-5.1-4.6c-0.6-0.6-1.1-1.2-1.7-1.9c-1.3-1.5-2.7-3.3-4-5.7"/>
	</g>
	<path class="st8" d="M288.5,473.5c4.8-3.7,9.4-8.4,13.5-13.8c0.9-1.2,1.8-2.5,2.6-3.7"/>
	<path class="st8" d="M295.9,474.3c3.2-2.4,6.2-5.5,8.8-9c0.6-0.8,1.2-1.6,1.7-2.4"/>
	<path class="st7" d="M414,299.5c-1.7,0.5-3.5,1-5.4,1.3c-3.9,0.8-7.7,1.1-11.1,1.1"/>
	<path class="st7" d="M417.5,340c-2,0.3-4.1,0.6-6.3,0.7c-4.8,0.3-9.4,0.2-13.5-0.3"/>
	<path class="st7" d="M415,377.7c-3.4,0.4-7.1,0.6-10.9,0.6c-3.6,0-7.1-0.2-10.4-0.5"/>
	<path class="st7" d="M405.5,257.9c-1.2,0.4-2.5,0.7-3.9,1c-2.8,0.6-5.6,0.8-8.1,0.7"/>
</g>
<g id="Left_Back_Paw">
	<g>
		<g>
			<path class="st4" d="M280.5,407.8c-0.3-1.1-0.6-2-0.9-3c-0.3-1-0.7-1.9-1-2.9c-0.7-1.9-1.4-3.8-2.2-5.7c-0.8-1.9-1.6-3.7-2.5-5.5
				l-2.5-5.3c-0.3-0.7-1.1-0.9-1.7-0.6c-0.5,0.2-0.8,0.8-0.8,1.3l0.4,5.9c0.2,2,0.3,3.9,0.4,5.8c0.1,1.9,0.1,3.8,0.1,5.7
				c0,0.9,0,1.9-0.1,2.8c0,0.9-0.1,1.9-0.2,2.7c-0.3,3.1,1.9,5.9,5,6.2c3.1,0.3,5.9-1.9,6.2-5c0.1-0.7,0-1.4-0.1-2.1L280.5,407.8z"
				/>
			<path class="st4" d="M243.8,412.5c-0.3-0.7-0.6-1.7-0.9-2.6c-0.3-0.9-0.6-1.8-0.8-2.7c-0.5-1.8-1-3.7-1.5-5.5
				c-0.4-1.8-0.8-3.7-1.2-5.7l-1.1-5.8c-0.1-0.7-0.8-1.2-1.5-1c-0.5,0.1-0.9,0.5-1,1.1l-1,5.8c-0.3,1.9-0.7,3.9-0.9,5.9
				c-0.3,2-0.5,4-0.6,6.1c-0.1,1-0.1,2-0.2,3.1c0,1-0.1,2-0.1,3.2l0,0.3c0,3.1,2.6,5.6,5.7,5.6c3.1,0,5.6-2.6,5.6-5.7
				C244.3,413.8,244.1,413.1,243.8,412.5z"/>
			<path class="st4" d="M257.8,384.5l-0.8,25.4c-0.1,3.1,2.3,5.7,5.4,5.7c3.1,0.1,5.7-2.3,5.7-5.4c0-0.6-0.1-1.3-0.3-1.8l-7.6-24.2
				c-0.2-0.7-0.9-1.1-1.6-0.9C258.1,383.5,257.8,384,257.8,384.5z"/>
			<path class="st4" d="M246.1,386.1l-0.8,25.4c-0.1,3.1,2.3,5.7,5.4,5.7c3.1,0.1,5.7-2.3,5.7-5.4c0-0.6-0.1-1.3-0.3-1.8l-7.6-24.2
				c-0.2-0.7-0.9-1.1-1.6-0.9C246.5,385.1,246.1,385.6,246.1,386.1z"/>
		</g>
		<g>
			<g>
				<path class="st9" d="M279.1,403.8c0.3,1,0.7,1.9,1,2.9c0.3,1,0.6,1.9,0.9,3l0.1,0.3c0.2,0.7,0.2,1.3,0.1,2.1
					c-0.3,3.1-3.1,5.3-6.2,5c-3.1-0.3-5.3-3.1-5-6.2c0.1-0.8,0.1-1.8,0.2-2.7c0-0.9,0.1-1.9,0.1-2.8c0-1.9,0-3.8-0.1-5.7
					c0-0.8-0.1-1.6-0.1-2.4c0.8-0.6,1.8-1.1,2.9-1.2c1-0.2,2.1,0,3,0.3c0.3,0.6,0.5,1.2,0.8,1.8C277.7,400,278.4,401.9,279.1,403.8z
					"/>
				<path class="st9" d="M242.7,409.2c0.3,0.9,0.5,1.8,0.8,2.7c0.3,0.9,0.6,1.8,0.9,2.6c0.3,0.6,0.4,1.3,0.4,2
					c0,3.1-2.5,5.7-5.6,5.7c-3.1,0-5.7-2.5-5.7-5.6l0-0.3c0-1.2,0-2.1,0.1-3.2c0-1,0.1-2,0.2-3.1c0.2-2,0.4-4,0.6-6.1
					c0.1-0.6,0.2-1.2,0.3-1.8c0.6-0.3,1.3-0.6,2.1-0.7c1.5-0.2,2.9,0.1,4.1,0.8c0.1,0.5,0.2,1,0.3,1.4
					C241.7,405.5,242.2,407.3,242.7,409.2z"/>
				<path class="st9" d="M268.7,412.2c-0.1,3.1-2.7,5.5-5.7,5.4c-3.1-0.1-5.5-2.7-5.4-5.7l0.4-12.6c0.9-0.7,1.9-1.2,3.1-1.4
					c1.3-0.2,2.6,0,3.7,0.5l3.7,11.9C268.6,410.9,268.7,411.5,268.7,412.2z"/>
				<path class="st9" d="M257,413.7c-0.1,3.1-2.7,5.5-5.7,5.4c-3.1-0.1-5.5-2.7-5.4-5.7l0.4-12.7c0.8-0.5,1.6-0.9,2.6-1
					c1.5-0.2,3.1,0.1,4.4,0.9l3.5,11.4C257,412.5,257.1,413.1,257,413.7z"/>
			</g>
		</g>
		<path class="st10" d="M232.2,423.9c-0.3-2.3-0.6-4.7-0.6-7c0-1.9,0.1-3.9,0.9-5.6c1-2.1,2.9-3.7,5.2-4.1c2.6-0.4,5.1,0.8,6.6,2.9
			c0.9-2.5,2.9-4.4,5.5-4.8c2.6-0.4,5.1,0.8,6.6,2.9c0.9-2.5,2.9-4.4,5.5-4.8c2.6-0.4,5.1,0.8,6.6,2.9c0.9-2.5,2.9-4.4,5.5-4.8
			c3-0.5,5.9,1.3,7.3,4.1l0,0c0,0.1,0,0.1,0.1,0.2c0.2,0.5,0.4,1,0.5,1.5c1.1,3.4,2,7.4,2.5,11.9c3.2,29.1-10.3,70.2-18.8,71.2
			c-1.4,0.2-2.8-0.7-3.9-1.5c-1.8-1.4-3.4-3.1-4.8-4.8c-4.2-5.2-7.6-11.2-10.7-17.1c-3.7-7.3-6.9-15-9.4-22.8
			c-1.5-4.7-2.7-9.5-3.6-14.4C232.8,428,232.4,426,232.2,423.9z"/>
		<g>
			<g>
				<path class="st11" d="M280.5,407.8c-0.3-1.1-0.6-2-0.9-3c-0.3-1-0.7-1.9-1-2.9c-0.7-1.9-1.4-3.8-2.2-5.7
					c-0.8-1.9-1.6-3.7-2.5-5.5l-2.5-5.3c-0.3-0.7-1.1-0.9-1.7-0.6c-0.5,0.2-0.8,0.8-0.8,1.3l0.4,5.9c0.2,2,0.3,3.9,0.4,5.8
					c0.1,1.9,0.1,3.8,0.1,5.7c0,0.9,0,1.9-0.1,2.8c0,0.9-0.1,1.9-0.2,2.7c-0.3,3.1,1.9,5.9,5,6.2c3.1,0.3,5.9-1.9,6.2-5
					c0.1-0.7,0-1.4-0.1-2.1L280.5,407.8z"/>
				<path class="st11" d="M243.8,412.5c-0.3-0.7-0.6-1.7-0.9-2.6c-0.3-0.9-0.6-1.8-0.8-2.7c-0.5-1.8-1-3.7-1.5-5.5
					c-0.4-1.8-0.8-3.7-1.2-5.7l-1.1-5.8c-0.1-0.7-0.8-1.2-1.5-1c-0.5,0.1-0.9,0.5-1,1.1l-1,5.8c-0.3,1.9-0.7,3.9-0.9,5.9
					c-0.3,2-0.5,4-0.6,6.1c-0.1,1-0.1,2-0.2,3.1c0,1-0.1,2-0.1,3.2l0,0.3c0,3.1,2.6,5.6,5.7,5.6c3.1,0,5.6-2.6,5.6-5.7
					C244.3,413.8,244.1,413.1,243.8,412.5z"/>
				<path class="st11" d="M257.8,384.5l-0.8,25.4c-0.1,3.1,2.3,5.7,5.4,5.7c3.1,0.1,5.7-2.3,5.7-5.4c0-0.6-0.1-1.3-0.3-1.8
					l-7.6-24.2c-0.2-0.7-0.9-1.1-1.6-0.9C258.1,383.5,257.8,384,257.8,384.5z"/>
				<path class="st11" d="M246.1,386.1l-0.8,25.4c-0.1,3.1,2.3,5.7,5.4,5.7c3.1,0.1,5.7-2.3,5.7-5.4c0-0.6-0.1-1.3-0.3-1.8
					l-7.6-24.2c-0.2-0.7-0.9-1.1-1.6-0.9C246.5,385.1,246.1,385.6,246.1,386.1z"/>
			</g>
		</g>
		<path class="st12" d="M232,422.9c-0.3-2.3-0.6-4.7-0.6-7c0-1.9,0.1-3.9,0.9-5.6c1-2.1,2.9-3.7,5.2-4.1c2.6-0.4,5.1,0.8,6.6,2.9
			c0.9-2.5,2.9-4.4,5.5-4.8c2.6-0.4,5.1,0.8,6.6,2.9c0.9-2.5,2.9-4.4,5.5-4.8c2.6-0.4,5.1,0.8,6.6,2.9c0.9-2.5,2.9-4.4,5.5-4.8
			c3-0.5,5.9,1.3,7.3,4.1l0,0c0,0.1,0,0.1,0.1,0.2c0.2,0.5,0.4,1,0.5,1.5c1.1,3.4,2,7.4,2.5,11.9c3.2,29.1-10.3,70.2-18.8,71.2
			c-1.4,0.2-2.8-0.7-3.9-1.5c-1.8-1.4-3.4-3.1-4.8-4.8c-4.2-5.2-7.6-11.2-10.7-17.1c-3.7-7.3-6.9-15-9.4-22.8
			c-1.5-4.7-2.7-9.5-3.6-14.4C232.7,427,232.3,425,232,422.9z"/>
		<path class="st13" d="M251,475.2c4.1,1.7,8.7,2.3,13.4,1.7c4.7-0.6,8.9-2.5,12.5-5.2"/>
		<path class="st13" d="M244.8,463.2c5.6,3.6,12.3,5.3,19.3,4.3c6.4-0.9,12-3.9,16.3-8.2"/>
		<path class="st13" d="M239.2,449.9c6.6,5.2,15,7.8,23.8,6.6c8.3-1.1,15.4-5.5,20.3-11.6"/>
	</g>
</g>
<g id="Right_Back_Paw">
	<g>
		<g>
			<path class="st4" d="M372.4,420.8c0.2-1.2,0.3-2.1,0.4-3.2c0.1-1,0.2-2,0.2-3.1c0.1-2,0.2-4.1,0.3-6.1c0-2,0-4,0-6l-0.1-5.9
				c0-0.7-0.6-1.3-1.3-1.3c-0.6,0-1,0.4-1.2,0.9l-2,5.6c-0.7,1.9-1.3,3.7-2,5.4c-0.7,1.8-1.4,3.5-2.2,5.2c-0.4,0.9-0.8,1.7-1.2,2.6
				c-0.4,0.8-0.8,1.7-1.2,2.4c-1.6,2.7-0.7,6.1,2,7.7c2.7,1.6,6.1,0.7,7.7-2c0.4-0.6,0.6-1.3,0.7-1.9L372.4,420.8z"/>
			<path class="st4" d="M337,410.2c0-0.8,0.1-1.8,0.2-2.7c0.1-0.9,0.2-1.9,0.3-2.8c0.2-1.9,0.5-3.8,0.9-5.6c0.3-1.9,0.8-3.7,1.2-5.7
				l1.3-5.7c0.2-0.7-0.3-1.4-1-1.6c-0.5-0.1-1.1,0.1-1.4,0.6l-3.2,4.9c-1.1,1.6-2.2,3.3-3.2,5c-1,1.7-2,3.5-3,5.3
				c-0.5,0.9-1,1.8-1.4,2.7c-0.5,0.9-0.9,1.8-1.4,2.9l-0.1,0.3c-1.2,2.9,0.1,6.2,3,7.4c2.9,1.2,6.2-0.1,7.4-3
				C336.8,411.6,337,410.9,337,410.2z"/>
			<path class="st4" d="M361,390.2L350,413.1c-1.3,2.8-0.2,6.1,2.6,7.4c2.8,1.3,6.1,0.2,7.4-2.6c0.3-0.6,0.4-1.2,0.5-1.8l2.8-25.2
				c0.1-0.7-0.4-1.4-1.1-1.4C361.7,389.4,361.2,389.8,361,390.2z"/>
			<path class="st4" d="M349.7,387l-10.9,22.9c-1.3,2.8-0.2,6.1,2.6,7.4c2.8,1.3,6.1,0.2,7.4-2.6c0.3-0.6,0.4-1.2,0.5-1.8l2.8-25.2
				c0.1-0.7-0.4-1.4-1.1-1.4C350.5,386.2,349.9,386.5,349.7,387z"/>
		</g>
		<g>
			<g>
				<path class="st9" d="M372.8,416.6c-0.1,1-0.2,2-0.2,3.1c-0.1,1-0.2,2-0.4,3.2l-0.1,0.3c-0.1,0.7-0.3,1.3-0.7,1.9
					c-1.6,2.7-5,3.6-7.7,2c-2.7-1.6-3.6-5-2-7.7c0.4-0.7,0.8-1.6,1.2-2.4c0.4-0.8,0.8-1.7,1.2-2.6c0.8-1.7,1.5-3.5,2.2-5.2
					c0.3-0.7,0.6-1.5,0.9-2.2c1-0.2,2.1-0.2,3.2,0c1,0.3,1.9,0.8,2.6,1.5c0,0.7,0,1.3,0,2C373,412.5,372.9,414.5,372.8,416.6z"/>
				<path class="st9" d="M337.3,406.7c-0.1,0.9-0.2,1.9-0.3,2.8c-0.1,0.9-0.2,1.9-0.2,2.7c0,0.7-0.2,1.4-0.5,2
					c-1.2,2.9-4.5,4.2-7.4,3c-2.9-1.2-4.2-4.5-3-7.4l0.1-0.3c0.5-1.1,0.9-1.9,1.4-2.9c0.5-0.9,0.9-1.8,1.4-2.7c1-1.8,2-3.6,3-5.3
					c0.3-0.5,0.6-1,1-1.5c0.7-0.1,1.5,0,2.2,0.2c1.4,0.4,2.6,1.2,3.5,2.4c-0.1,0.5-0.2,1-0.3,1.4C337.8,403,337.5,404.9,337.3,406.7
					z"/>
				<path class="st9" d="M359.8,419.9c-1.3,2.8-4.7,4-7.4,2.6c-2.8-1.3-4-4.7-2.6-7.4l5.4-11.4c1.1-0.3,2.2-0.3,3.4,0
					c1.3,0.3,2.3,1,3.2,2l-1.4,12.4C360.3,418.8,360.1,419.4,359.8,419.9z"/>
				<path class="st9" d="M348.5,416.7c-1.3,2.8-4.7,4-7.4,2.6c-2.8-1.3-4-4.7-2.6-7.4l5.5-11.5c0.9-0.2,1.9-0.1,2.8,0.1
					c1.5,0.4,2.7,1.3,3.6,2.6l-1.3,11.8C349,415.5,348.8,416.1,348.5,416.7z"/>
			</g>
		</g>
		<path class="st10" d="M321.7,416c0.6-2.3,1.4-4.5,2.3-6.7c0.7-1.8,1.7-3.5,3.1-4.8c1.7-1.5,4.1-2.2,6.4-1.6
			c2.5,0.7,4.3,2.8,4.9,5.4c1.8-1.9,4.4-2.8,6.9-2.1c2.5,0.7,4.3,2.8,4.9,5.4c1.8-1.9,4.4-2.8,6.9-2.1c2.5,0.7,4.3,2.8,4.9,5.4
			c1.8-1.9,4.4-2.8,6.9-2.1c3,0.8,4.9,3.6,5,6.8l0,0c0,0.1,0,0.1,0,0.2c0,0.5,0,1.1-0.1,1.6c-0.4,3.6-1.2,7.6-2.5,11.9
			c-8.8,27.9-37.7,60.1-45.9,57.5c-1.4-0.4-2.3-1.8-3-3c-1.1-2-1.8-4.2-2.4-6.4c-1.8-6.5-2.5-13.3-2.9-20
			c-0.5-8.2-0.3-16.5,0.6-24.7c0.5-4.9,1.4-9.8,2.5-14.6C320.6,420,321.1,418,321.7,416z"/>
		<g>
			<g>
				<path class="st11" d="M372.4,420.8c0.2-1.2,0.3-2.1,0.4-3.2c0.1-1,0.2-2,0.2-3.1c0.1-2,0.2-4.1,0.3-6.1c0-2,0-4,0-6l-0.1-5.9
					c0-0.7-0.6-1.3-1.3-1.3c-0.6,0-1,0.4-1.2,0.9l-2,5.6c-0.7,1.9-1.3,3.7-2,5.4c-0.7,1.8-1.4,3.5-2.2,5.2c-0.4,0.9-0.8,1.7-1.2,2.6
					c-0.4,0.8-0.8,1.7-1.2,2.4c-1.6,2.7-0.7,6.1,2,7.7c2.7,1.6,6.1,0.7,7.7-2c0.4-0.6,0.6-1.3,0.7-1.9L372.4,420.8z"/>
				<path class="st11" d="M337,410.2c0-0.8,0.1-1.8,0.2-2.7c0.1-0.9,0.2-1.9,0.3-2.8c0.2-1.9,0.5-3.8,0.9-5.6
					c0.3-1.9,0.8-3.7,1.2-5.7l1.3-5.7c0.2-0.7-0.3-1.4-1-1.6c-0.5-0.1-1.1,0.1-1.4,0.6l-3.2,4.9c-1.1,1.6-2.2,3.3-3.2,5
					c-1,1.7-2,3.5-3,5.3c-0.5,0.9-1,1.8-1.4,2.7c-0.5,0.9-0.9,1.8-1.4,2.9l-0.1,0.3c-1.2,2.9,0.1,6.2,3,7.4c2.9,1.2,6.2-0.1,7.4-3
					C336.8,411.6,337,410.9,337,410.2z"/>
				<path class="st11" d="M361,390.2L350,413.1c-1.3,2.8-0.2,6.1,2.6,7.4c2.8,1.3,6.1,0.2,7.4-2.6c0.3-0.6,0.4-1.2,0.5-1.8l2.8-25.2
					c0.1-0.7-0.4-1.4-1.1-1.4C361.7,389.4,361.2,389.8,361,390.2z"/>
				<path class="st11" d="M349.7,387l-10.9,22.9c-1.3,2.8-0.2,6.1,2.6,7.4c2.8,1.3,6.1,0.2,7.4-2.6c0.3-0.6,0.4-1.2,0.5-1.8
					l2.8-25.2c0.1-0.7-0.4-1.4-1.1-1.4C350.5,386.2,349.9,386.5,349.7,387z"/>
			</g>
		</g>
		<path class="st12" d="M321.9,415c0.6-2.3,1.4-4.5,2.3-6.7c0.7-1.8,1.7-3.5,3.1-4.8c1.7-1.5,4.1-2.2,6.4-1.6
			c2.5,0.7,4.3,2.8,4.9,5.4c1.8-1.9,4.4-2.8,6.9-2.1c2.5,0.7,4.3,2.8,4.9,5.4c1.8-1.9,4.4-2.8,6.9-2.1c2.5,0.7,4.3,2.8,4.9,5.4
			c1.8-1.9,4.4-2.8,6.9-2.1c3,0.8,4.9,3.6,5,6.8l0,0c0,0.1,0,0.1,0,0.2c0,0.5,0,1.1-0.1,1.6c-0.4,3.6-1.2,7.6-2.5,11.9
			c-8.8,27.9-37.7,60.1-45.9,57.5c-1.4-0.4-2.3-1.8-3-3c-1.1-2-1.8-4.2-2.4-6.4c-1.8-6.5-2.5-13.3-2.9-20
			c-0.5-8.2-0.3-16.5,0.6-24.7c0.5-4.9,1.4-9.8,2.5-14.6C320.9,419,321.4,417,321.9,415z"/>
		<path class="st13" d="M318.2,470.5c3.1,3.2,7.1,5.6,11.6,6.9c4.5,1.3,9.2,1.3,13.5,0.3"/>
		<path class="st13" d="M317.4,457.1c3.6,5.5,9.1,9.8,15.9,11.8c6.2,1.8,12.6,1.3,18.3-0.9"/>
		<path class="st13" d="M317.7,442.6c3.9,7.4,10.6,13.2,19.1,15.7c8,2.3,16.3,1.2,23.3-2.4"/>
	</g>
</g>
<g id="Front_Left_Paw">
	<g>
		<g>
			<path class="st4" d="M263.2,311.2c-0.2,3.8-0.3,7.9-0.3,11.8c0,4,0.1,7.9,0.4,11.9c0.2,4,0.7,7.9,1.3,11.8c0.3,2,0.7,3.9,1.1,5.8
				c0.4,1.9,0.9,3.9,1.5,5.7l0,0.1c0.3,0.8-0.2,1.7-1,1.9c-0.7,0.2-1.4-0.1-1.8-0.7c-1.1-1.9-2-3.7-2.9-5.6
				c-0.9-1.9-1.7-3.8-2.4-5.8c-1.5-3.9-2.8-7.9-3.9-11.9c-1.1-4-2.1-8.1-2.9-12.1c-0.9-4.1-1.6-8.1-2.2-12.4
				c-0.5-3.6,1.9-6.9,5.5-7.4c3.6-0.5,6.9,1.9,7.4,5.5C263.2,310.3,263.2,310.7,263.2,311.2L263.2,311.2z"/>
			<path class="st4" d="M293.2,357.4c1.6-8.4,2-16.9,1.3-25.2c-0.3-4.2-0.9-8.3-1.7-12.4c-0.4-2-0.9-4.1-1.3-6.2l-1.4-6.2l-0.1-0.2
				c-0.7-3.2,1.3-6.5,4.6-7.2c3.2-0.7,6.5,1.3,7.2,4.6c0.1,0.3,0.1,0.7,0.1,1.1l0.3,6.6c0.1,2.2,0.2,4.4,0.2,6.6
				c0.1,4.5-0.1,9-0.6,13.4c-0.9,8.9-2.9,17.7-6,25.9c-0.3,0.7-1.1,1.1-1.8,0.8C293.4,358.8,293,358.1,293.2,357.4L293.2,357.4z"/>
			<path class="st4" d="M277.2,309.5c-0.3,4.2-0.6,8.5-0.8,12.8c-0.2,4.3-0.3,8.6-0.3,12.8c0,4.2,0.2,8.6,0.4,12.9
				c0.2,4.3,0.5,8.7,0.8,13l0,0c0.1,0.8-0.6,1.6-1.4,1.6c-0.7,0.1-1.4-0.4-1.6-1.1c-1.2-4.2-2.2-8.5-3.3-12.7c-1-4.3-2-8.5-2.9-12.9
				c-0.9-4.4-1.6-8.7-2.3-13.1c-0.7-4.4-1.2-8.7-1.7-13.2c-0.4-3.6,2.2-6.8,5.8-7.2s6.8,2.2,7.2,5.8
				C277.2,308.6,277.2,309,277.2,309.5L277.2,309.5z"/>
			<path class="st4" d="M290.1,307c0,4.6-0.1,9.1-0.2,13.6c-0.1,4.5-0.3,9.1-0.6,13.7c-0.3,4.6-0.8,9.1-1.5,13.6
				c-0.6,4.5-1.4,8.9-2.3,13.4c-0.2,0.8-1,1.4-1.8,1.2c-0.7-0.1-1.2-0.8-1.2-1.5l0,0c0-4.4-0.1-8.9-0.2-13.4
				c-0.2-4.4-0.5-8.8-1-13.2c-0.5-4.4-1.2-8.8-1.8-13.2c-0.7-4.4-1.4-8.8-2.3-13.1l0,0c-0.7-3.5,1.7-7,5.2-7.6
				c3.5-0.7,7,1.7,7.6,5.2C290.1,306.2,290.1,306.7,290.1,307z"/>
		</g>
		<g>
			<path class="st9" d="M262.9,326.6c0-1.2-0.1-2.4-0.1-3.6c0-3.9,0.1-8,0.3-11.8l0-0.1c0-0.4,0-0.9-0.1-1.3c-0.5-3.6-3.8-6-7.4-5.5
				c-3.6,0.5-6,3.9-5.5,7.4c0.6,4.3,1.4,8.3,2.2,12.4c0.1,0.3,0.2,0.7,0.2,1c1-0.6,2.2-1,3.4-1.1C258.6,323.9,261,324.8,262.9,326.6
				z"/>
			<path class="st9" d="M290.1,307c0,0.3,0,0.6,0,0.9l1.3,5.8c0.5,2.1,1,4.2,1.3,6.2c0.3,1.8,0.6,3.6,0.9,5.3c1.4-1.2,3.1-2,4.9-2.1
				c1.3-0.1,2.6,0.1,3.8,0.6c0-1.6,0.1-3.2,0-4.7c0-2.3-0.2-4.4-0.2-6.6l-0.3-6.6c0-0.3-0.1-0.7-0.1-1.1c-0.7-3.2-4-5.3-7.2-4.6
				c-2.6,0.6-4.4,2.7-4.7,5.2c0.1,0.2,0.1,0.4,0.2,0.6C290.1,306.2,290.1,306.7,290.1,307z"/>
			<path class="st9" d="M276.3,324.6c0-0.8,0-1.6,0.1-2.4c0.2-4.3,0.4-8.6,0.8-12.8l0-0.1c0-0.4,0-0.8,0-1.2
				c-0.4-3.6-3.6-6.2-7.2-5.8c-3.6,0.4-6.2,3.6-5.8,7.2c0.5,4.5,1.1,8.8,1.7,13.2c0.1,0.7,0.2,1.5,0.4,2.2c1.3-1,2.9-1.7,4.6-1.8
				C272.8,323,274.7,323.6,276.3,324.6z"/>
			<path class="st9" d="M289.8,324.5c0-1.3,0.1-2.5,0.1-3.8c0.1-4.3,0.2-8.5,0.2-12.8l-0.1-0.4l-0.1-0.2c-0.2-0.7-0.2-1.4-0.1-2
				c-0.9-3.2-4.1-5.2-7.5-4.6c-3.5,0.7-5.9,4.1-5.2,7.6l0,0c0.8,4.3,1.6,8.7,2.3,13.1c0.2,1.2,0.4,2.5,0.6,3.7
				c1.3-1,2.9-1.7,4.6-1.8C286.4,323,288.2,323.5,289.8,324.5z"/>
			<path class="st4" d="M290,307.2l0.1,0.2l0.1,0.4c0-0.3,0-0.6,0-0.9c0-0.4,0-0.8-0.1-1.2c0-0.2-0.1-0.4-0.2-0.6
				C289.8,305.9,289.8,306.5,290,307.2z"/>
		</g>
		<g>
			<path class="st14" d="M260.3,314.7c1.8,0.9,3.1,2.3,3.7,4c1.4-2.5,4.1-4.2,7.2-4.1c3,0.1,5.5,1.9,6.8,4.4c0-0.1,0.1-0.2,0.1-0.3
				c1.8-3.7,6.3-5.3,10-3.5c1.3,0.6,2.3,1.5,3,2.6c0.1-0.2,0.2-0.4,0.3-0.7c1.8-3.7,6.3-5.3,10-3.5c0.6,0.3,1.1,0.6,1.5,1
				c0.1-1.2,0.1-2.4,0.1-3.7c0-22.2-11.9-40.3-26.6-40.3s-26.6,18-26.6,40.3c0,2.5,0.2,4.9,0.4,7.2
				C252.2,314.5,256.6,313,260.3,314.7z"/>
		</g>
		<g>
			<path class="st11" d="M263.2,311.2c-0.2,3.8-0.3,7.9-0.3,11.8c0,4,0.1,7.9,0.4,11.9c0.2,4,0.7,7.9,1.3,11.8
				c0.3,2,0.7,3.9,1.1,5.8c0.4,1.9,0.9,3.9,1.5,5.7l0,0.1c0.3,0.8-0.2,1.7-1,1.9c-0.7,0.2-1.4-0.1-1.8-0.7c-1.1-1.9-2-3.7-2.9-5.6
				c-0.9-1.9-1.7-3.8-2.4-5.8c-1.5-3.9-2.8-7.9-3.9-11.9c-1.1-4-2.1-8.1-2.9-12.1c-0.9-4.1-1.6-8.1-2.2-12.4
				c-0.5-3.6,1.9-6.9,5.5-7.4c3.6-0.5,6.9,1.9,7.4,5.5C263.2,310.3,263.2,310.7,263.2,311.2L263.2,311.2z"/>
			<path class="st11" d="M293.2,357.4c1.6-8.4,2-16.9,1.3-25.2c-0.3-4.2-0.9-8.3-1.7-12.4c-0.4-2-0.9-4.1-1.3-6.2l-1.4-6.2l-0.1-0.2
				c-0.7-3.2,1.3-6.5,4.6-7.2c3.2-0.7,6.5,1.3,7.2,4.6c0.1,0.3,0.1,0.7,0.1,1.1l0.3,6.6c0.1,2.2,0.2,4.4,0.2,6.6
				c0.1,4.5-0.1,9-0.6,13.4c-0.9,8.9-2.9,17.7-6,25.9c-0.3,0.7-1.1,1.1-1.8,0.8C293.4,358.8,293,358.1,293.2,357.4L293.2,357.4z"/>
			<path class="st11" d="M277.2,309.5c-0.3,4.2-0.6,8.5-0.8,12.8c-0.2,4.3-0.3,8.6-0.3,12.8c0,4.2,0.2,8.6,0.4,12.9
				c0.2,4.3,0.5,8.7,0.8,13l0,0c0.1,0.8-0.6,1.6-1.4,1.6c-0.7,0.1-1.4-0.4-1.6-1.1c-1.2-4.2-2.2-8.5-3.3-12.7c-1-4.3-2-8.5-2.9-12.9
				c-0.9-4.4-1.6-8.7-2.3-13.1c-0.7-4.4-1.2-8.7-1.7-13.2c-0.4-3.6,2.2-6.8,5.8-7.2s6.8,2.2,7.2,5.8
				C277.2,308.6,277.2,309,277.2,309.5L277.2,309.5z"/>
			<path class="st11" d="M290.1,307c0,4.6-0.1,9.1-0.2,13.6c-0.1,4.5-0.3,9.1-0.6,13.7c-0.3,4.6-0.8,9.1-1.5,13.6
				c-0.6,4.5-1.4,8.9-2.3,13.4c-0.2,0.8-1,1.4-1.8,1.2c-0.7-0.1-1.2-0.8-1.2-1.5l0,0c0-4.4-0.1-8.9-0.2-13.4
				c-0.2-4.4-0.5-8.8-1-13.2c-0.5-4.4-1.2-8.8-1.8-13.2c-0.7-4.4-1.4-8.8-2.3-13.1l0,0c-0.7-3.5,1.7-7,5.2-7.6
				c3.5-0.7,7,1.7,7.6,5.2C290.1,306.2,290.1,306.7,290.1,307z"/>
		</g>
		<g>
			<path class="st12" d="M260.3,314.7c1.8,0.9,3.1,2.3,3.7,4c1.4-2.5,4.1-4.2,7.2-4.1c3,0.1,5.5,1.9,6.8,4.4c0-0.1,0.1-0.2,0.1-0.3
				c1.8-3.7,6.3-5.3,10-3.5c1.3,0.6,2.3,1.5,3,2.6c0.1-0.2,0.2-0.4,0.3-0.7c1.8-3.7,6.3-5.3,10-3.5c0.6,0.3,1.1,0.6,1.5,1
				c0.1-1.2,0.1-2.4,0.1-3.7c0-22.2-11.9-40.3-26.6-40.3s-26.6,18-26.6,40.3c0,2.5,0.2,4.9,0.4,7.2
				C252.2,314.5,256.6,313,260.3,314.7z"/>
		</g>
		<path class="st13" d="M249.9,315.3c5-8.8,16.3-14.9,29.4-14.9c9.2,0,17.5,3,23.3,7.8"/>
		<path class="st13" d="M250.5,301.2c5.5-7.3,15.6-12.2,27-12.2c9.4,0,17.8,3.3,23.6,8.5"/>
		<path class="st13" d="M254.9,287c5.3-5.3,13.1-8.7,21.8-8.7c8.2,0,15.7,3,20.9,7.9"/>
	</g>
</g>
<g id="Front_Right_Paw">
	<g>
		<g>
			<path class="st4" d="M378.5,309.8c0.2,3.8,0.3,7.9,0.3,11.8c0,4-0.1,7.9-0.4,11.9c-0.2,4-0.7,7.9-1.3,11.8
				c-0.3,2-0.7,3.9-1.1,5.8c-0.4,1.9-0.9,3.9-1.5,5.7l0,0.1c-0.3,0.8,0.2,1.7,1,1.9c0.7,0.2,1.4-0.1,1.8-0.7c1.1-1.9,2-3.7,2.9-5.6
				c0.9-1.9,1.7-3.8,2.4-5.8c1.5-3.9,2.8-7.9,3.9-11.9c1.1-4,2.1-8.1,2.9-12.1c0.9-4.1,1.6-8.1,2.2-12.4c0.5-3.6-1.9-6.9-5.5-7.4
				c-3.6-0.5-6.9,1.9-7.4,5.5C378.5,308.9,378.4,309.4,378.5,309.8L378.5,309.8z"/>
			<path class="st4" d="M348.5,356.1c-1.6-8.4-2-16.9-1.3-25.2c0.3-4.2,0.9-8.3,1.7-12.4c0.4-2,0.9-4.1,1.3-6.2l1.4-6.2l0.1-0.2
				c0.7-3.2-1.3-6.5-4.6-7.2c-3.2-0.7-6.5,1.3-7.2,4.6c-0.1,0.3-0.1,0.7-0.1,1.1l-0.3,6.6c-0.1,2.2-0.2,4.4-0.2,6.6
				c-0.1,4.5,0.1,9,0.6,13.4c0.9,8.9,2.9,17.7,6,25.9c0.3,0.7,1.1,1.1,1.8,0.8C348.3,357.4,348.6,356.7,348.5,356.1L348.5,356.1z"/>
			<path class="st4" d="M364.5,308.1c0.3,4.2,0.6,8.5,0.8,12.8c0.2,4.3,0.3,8.6,0.3,12.8c0,4.2-0.2,8.6-0.4,12.9
				c-0.2,4.3-0.5,8.7-0.8,13l0,0c-0.1,0.8,0.6,1.6,1.4,1.6c0.7,0.1,1.4-0.4,1.6-1.1c1.2-4.2,2.2-8.5,3.3-12.7c1-4.3,2-8.5,2.9-12.9
				c0.9-4.4,1.6-8.7,2.3-13.1c0.7-4.4,1.2-8.7,1.7-13.2c0.4-3.6-2.2-6.8-5.8-7.2s-6.8,2.2-7.2,5.8
				C364.5,307.2,364.5,307.6,364.5,308.1L364.5,308.1z"/>
			<path class="st4" d="M351.5,305.7c0,4.6,0.1,9.1,0.2,13.6c0.1,4.5,0.3,9.1,0.6,13.7c0.3,4.6,0.8,9.1,1.5,13.6
				c0.6,4.5,1.4,8.9,2.3,13.4c0.2,0.8,1,1.4,1.8,1.2c0.7-0.1,1.2-0.8,1.2-1.5l0,0c0-4.4,0.1-8.9,0.2-13.4c0.2-4.4,0.5-8.8,1-13.2
				c0.5-4.4,1.2-8.8,1.8-13.2c0.7-4.4,1.4-8.8,2.3-13.1l0,0c0.7-3.5-1.7-7-5.2-7.6c-3.5-0.7-7,1.7-7.6,5.2
				C351.5,304.9,351.5,305.3,351.5,305.7z"/>
		</g>
		<g>
			<path class="st9" d="M378.7,325.2c0-1.2,0.1-2.4,0.1-3.6c0-3.9-0.1-8-0.3-11.8l0-0.1c0-0.4,0-0.9,0.1-1.3c0.5-3.6,3.8-6,7.4-5.5
				c3.6,0.5,6,3.9,5.5,7.4c-0.6,4.3-1.4,8.3-2.2,12.4c-0.1,0.3-0.2,0.7-0.2,1c-1-0.6-2.2-1-3.4-1.1
				C383.1,322.5,380.6,323.5,378.7,325.2z"/>
			<path class="st9" d="M351.5,305.7c0,0.3,0,0.6,0,0.9l-1.3,5.8c-0.5,2.1-1,4.2-1.3,6.2c-0.3,1.8-0.6,3.6-0.9,5.3
				c-1.4-1.2-3.1-2-4.9-2.1c-1.3-0.1-2.6,0.1-3.8,0.6c0-1.6-0.1-3.2,0-4.7c0-2.3,0.2-4.4,0.2-6.6l0.3-6.6c0-0.3,0.1-0.7,0.1-1.1
				c0.7-3.2,4-5.3,7.2-4.6c2.6,0.6,4.4,2.7,4.7,5.2c-0.1,0.2-0.1,0.4-0.2,0.6C351.5,304.9,351.5,305.3,351.5,305.7z"/>
			<path class="st9" d="M365.3,323.3c0-0.8,0-1.6-0.1-2.4c-0.2-4.3-0.4-8.6-0.8-12.8l0-0.1c0-0.4,0-0.8,0-1.2
				c0.4-3.6,3.6-6.2,7.2-5.8c3.6,0.4,6.2,3.6,5.8,7.2c-0.5,4.5-1.1,8.8-1.7,13.2c-0.1,0.7-0.2,1.5-0.4,2.2c-1.3-1-2.9-1.7-4.6-1.8
				C368.9,321.7,367,322.2,365.3,323.3z"/>
			<path class="st9" d="M351.8,323.1c0-1.3-0.1-2.5-0.1-3.8c-0.1-4.3-0.2-8.5-0.2-12.8l0.1-0.4l0.1-0.2c0.2-0.7,0.2-1.4,0.1-2
				c0.9-3.2,4.1-5.2,7.5-4.6c3.5,0.7,5.9,4.1,5.2,7.6l0,0c-0.8,4.3-1.6,8.7-2.3,13.1c-0.2,1.2-0.4,2.5-0.6,3.7
				c-1.3-1-2.9-1.7-4.6-1.8C355.2,321.7,353.4,322.2,351.8,323.1z"/>
			<path class="st4" d="M351.7,305.9l-0.1,0.2l-0.1,0.4c0-0.3,0-0.6,0-0.9c0-0.4,0-0.8,0.1-1.2c0-0.2,0.1-0.4,0.2-0.6
				C351.8,304.5,351.8,305.2,351.7,305.9z"/>
		</g>
		<g>
			<path class="st14" d="M381.4,313.4c-1.8,0.9-3.1,2.3-3.7,4c-1.4-2.5-4.1-4.2-7.2-4.1c-3,0.1-5.5,1.9-6.8,4.4
				c0-0.1-0.1-0.2-0.1-0.3c-1.8-3.7-6.3-5.3-10-3.5c-1.3,0.6-2.3,1.5-3,2.6c-0.1-0.2-0.2-0.4-0.3-0.7c-1.8-3.7-6.3-5.3-10-3.5
				c-0.6,0.3-1.1,0.6-1.5,1c-0.1-1.2-0.1-2.4-0.1-3.7c0-22.2,11.9-40.3,26.6-40.3s26.6,18,26.6,40.3c0,2.5-0.2,4.9-0.4,7.2
				C389.5,313.1,385.1,311.6,381.4,313.4z"/>
		</g>
		<g>
			<path class="st11" d="M378.5,309.8c0.2,3.8,0.3,7.9,0.3,11.8c0,4-0.1,7.9-0.4,11.9c-0.2,4-0.7,7.9-1.3,11.8
				c-0.3,2-0.7,3.9-1.1,5.8c-0.4,1.9-0.9,3.9-1.5,5.7l0,0.1c-0.3,0.8,0.2,1.7,1,1.9c0.7,0.2,1.4-0.1,1.8-0.7c1.1-1.9,2-3.7,2.9-5.6
				c0.9-1.9,1.7-3.8,2.4-5.8c1.5-3.9,2.8-7.9,3.9-11.9c1.1-4,2.1-8.1,2.9-12.1c0.9-4.1,1.6-8.1,2.2-12.4c0.5-3.6-1.9-6.9-5.5-7.4
				c-3.6-0.5-6.9,1.9-7.4,5.5C378.5,308.9,378.4,309.4,378.5,309.8L378.5,309.8z"/>
			<path class="st11" d="M348.5,356.1c-1.6-8.4-2-16.9-1.3-25.2c0.3-4.2,0.9-8.3,1.7-12.4c0.4-2,0.9-4.1,1.3-6.2l1.4-6.2l0.1-0.2
				c0.7-3.2-1.3-6.5-4.6-7.2c-3.2-0.7-6.5,1.3-7.2,4.6c-0.1,0.3-0.1,0.7-0.1,1.1l-0.3,6.6c-0.1,2.2-0.2,4.4-0.2,6.6
				c-0.1,4.5,0.1,9,0.6,13.4c0.9,8.9,2.9,17.7,6,25.9c0.3,0.7,1.1,1.1,1.8,0.8C348.3,357.4,348.6,356.7,348.5,356.1L348.5,356.1z"/>
			<path class="st11" d="M364.5,308.1c0.3,4.2,0.6,8.5,0.8,12.8c0.2,4.3,0.3,8.6,0.3,12.8c0,4.2-0.2,8.6-0.4,12.9
				c-0.2,4.3-0.5,8.7-0.8,13l0,0c-0.1,0.8,0.6,1.6,1.4,1.6c0.7,0.1,1.4-0.4,1.6-1.1c1.2-4.2,2.2-8.5,3.3-12.7c1-4.3,2-8.5,2.9-12.9
				c0.9-4.4,1.6-8.7,2.3-13.1c0.7-4.4,1.2-8.7,1.7-13.2c0.4-3.6-2.2-6.8-5.8-7.2s-6.8,2.2-7.2,5.8
				C364.5,307.2,364.5,307.6,364.5,308.1L364.5,308.1z"/>
			<path class="st11" d="M351.5,305.7c0,4.6,0.1,9.1,0.2,13.6c0.1,4.5,0.3,9.1,0.6,13.7c0.3,4.6,0.8,9.1,1.5,13.6
				c0.6,4.5,1.4,8.9,2.3,13.4c0.2,0.8,1,1.4,1.8,1.2c0.7-0.1,1.2-0.8,1.2-1.5l0,0c0-4.4,0.1-8.9,0.2-13.4c0.2-4.4,0.5-8.8,1-13.2
				c0.5-4.4,1.2-8.8,1.8-13.2c0.7-4.4,1.4-8.8,2.3-13.1l0,0c0.7-3.5-1.7-7-5.2-7.6c-3.5-0.7-7,1.7-7.6,5.2
				C351.5,304.9,351.5,305.3,351.5,305.7z"/>
		</g>
		<g>
			<path class="st12" d="M381.4,313.4c-1.8,0.9-3.1,2.3-3.7,4c-1.4-2.5-4.1-4.2-7.2-4.1c-3,0.1-5.5,1.9-6.8,4.4
				c0-0.1-0.1-0.2-0.1-0.3c-1.8-3.7-6.3-5.3-10-3.5c-1.3,0.6-2.3,1.5-3,2.6c-0.1-0.2-0.2-0.4-0.3-0.7c-1.8-3.7-6.3-5.3-10-3.5
				c-0.6,0.3-1.1,0.6-1.5,1c-0.1-1.2-0.1-2.4-0.1-3.7c0-22.2,11.9-40.3,26.6-40.3s26.6,18,26.6,40.3c0,2.5-0.2,4.9-0.4,7.2
				C389.5,313.1,385.1,311.6,381.4,313.4z"/>
		</g>
		<path class="st13" d="M391.7,313.9c-5-8.8-16.3-14.9-29.4-14.9c-9.2,0-17.5,3-23.3,7.8"/>
		<path class="st13" d="M391.1,299.8c-5.5-7.3-15.6-12.2-27-12.2c-9.4,0-17.8,3.3-23.6,8.5"/>
		<path class="st13" d="M386.7,285.6c-5.3-5.3-13.1-8.7-21.8-8.7c-8.2,0-15.7,3-20.9,7.9"/>
	</g>
</g>
<g id="Mouth">
	<path class="st15" d="M382,163.1c4.4-3.1,10.3-4.2,15.8-0.6c1.4,0.9,2.6,2,3.6,3.2"/>
</g>
<g id="Teardrop">
	<path class="st16" d="M371.1,140l4.2,6.1c1.9,2.7,1.4,6.6-1.3,8.5c-2.8,2-6.6,1.3-8.6-1.5c-1.4-2.1-1.4-4.8,0-6.8l4.3-6.3
		C370,139.5,370.8,139.5,371.1,140z"/>
</g>
<g id="Eye">
	<path class="st17" d="M392.6,132.5c-3.4,4.6-9.8,6-15,3.2c-1.3-0.7-2.5-1.7-3.4-2.7"/>
</g>
</svg>
